G04 #@! TF.GenerationSoftware,KiCad,Pcbnew,(5.1.9)-1*
G04 #@! TF.CreationDate,2022-04-19T13:51:38+02:00*
G04 #@! TF.ProjectId,thrust_v2,74687275-7374-45f7-9632-2e6b69636164,2.0.3*
G04 #@! TF.SameCoordinates,Original*
G04 #@! TF.FileFunction,Legend,Top*
G04 #@! TF.FilePolarity,Positive*
%FSLAX46Y46*%
G04 Gerber Fmt 4.6, Leading zero omitted, Abs format (unit mm)*
G04 Created by KiCad (PCBNEW (5.1.9)-1) date 2022-04-19 13:51:38*
%MOMM*%
%LPD*%
G01*
G04 APERTURE LIST*
%ADD10C,0.150000*%
%ADD11C,0.120000*%
G04 APERTURE END LIST*
D10*
X139223904Y-110434380D02*
X139223904Y-109434380D01*
X139604857Y-109434380D01*
X139700095Y-109482000D01*
X139747714Y-109529619D01*
X139795333Y-109624857D01*
X139795333Y-109767714D01*
X139747714Y-109862952D01*
X139700095Y-109910571D01*
X139604857Y-109958190D01*
X139223904Y-109958190D01*
X140795333Y-110339142D02*
X140747714Y-110386761D01*
X140604857Y-110434380D01*
X140509619Y-110434380D01*
X140366761Y-110386761D01*
X140271523Y-110291523D01*
X140223904Y-110196285D01*
X140176285Y-110005809D01*
X140176285Y-109862952D01*
X140223904Y-109672476D01*
X140271523Y-109577238D01*
X140366761Y-109482000D01*
X140509619Y-109434380D01*
X140604857Y-109434380D01*
X140747714Y-109482000D01*
X140795333Y-109529619D01*
X141652476Y-109434380D02*
X141462000Y-109434380D01*
X141366761Y-109482000D01*
X141319142Y-109529619D01*
X141223904Y-109672476D01*
X141176285Y-109862952D01*
X141176285Y-110243904D01*
X141223904Y-110339142D01*
X141271523Y-110386761D01*
X141366761Y-110434380D01*
X141557238Y-110434380D01*
X141652476Y-110386761D01*
X141700095Y-110339142D01*
X141747714Y-110243904D01*
X141747714Y-110005809D01*
X141700095Y-109910571D01*
X141652476Y-109862952D01*
X141557238Y-109815333D01*
X141366761Y-109815333D01*
X141271523Y-109862952D01*
X141223904Y-109910571D01*
X141176285Y-110005809D01*
D11*
X104648000Y-88646000D02*
X103632000Y-88646000D01*
X103632000Y-88646000D02*
X104140000Y-87884000D01*
X104140000Y-87884000D02*
X104648000Y-88646000D01*
X104648000Y-103886000D02*
X103632000Y-103886000D01*
X104140000Y-103124000D02*
X104648000Y-103886000D01*
X103632000Y-103886000D02*
X104140000Y-103124000D01*
X104140000Y-118364000D02*
X104648000Y-119126000D01*
X104648000Y-119126000D02*
X103632000Y-119126000D01*
X103632000Y-119126000D02*
X104140000Y-118364000D01*
D10*
X151265333Y-90130380D02*
X151884380Y-90130380D01*
X151551047Y-90511333D01*
X151693904Y-90511333D01*
X151789142Y-90558952D01*
X151836761Y-90606571D01*
X151884380Y-90701809D01*
X151884380Y-90939904D01*
X151836761Y-91035142D01*
X151789142Y-91082761D01*
X151693904Y-91130380D01*
X151408190Y-91130380D01*
X151312952Y-91082761D01*
X151265333Y-91035142D01*
X152265333Y-90225619D02*
X152312952Y-90178000D01*
X152408190Y-90130380D01*
X152646285Y-90130380D01*
X152741523Y-90178000D01*
X152789142Y-90225619D01*
X152836761Y-90320857D01*
X152836761Y-90416095D01*
X152789142Y-90558952D01*
X152217714Y-91130380D01*
X152836761Y-91130380D01*
X153170095Y-90130380D02*
X153836761Y-90130380D01*
X153408190Y-91130380D01*
X154646285Y-90130380D02*
X154455809Y-90130380D01*
X154360571Y-90178000D01*
X154312952Y-90225619D01*
X154217714Y-90368476D01*
X154170095Y-90558952D01*
X154170095Y-90939904D01*
X154217714Y-91035142D01*
X154265333Y-91082761D01*
X154360571Y-91130380D01*
X154551047Y-91130380D01*
X154646285Y-91082761D01*
X154693904Y-91035142D01*
X154741523Y-90939904D01*
X154741523Y-90701809D01*
X154693904Y-90606571D01*
X154646285Y-90558952D01*
X154551047Y-90511333D01*
X154360571Y-90511333D01*
X154265333Y-90558952D01*
X154217714Y-90606571D01*
X154170095Y-90701809D01*
X155312952Y-90558952D02*
X155217714Y-90511333D01*
X155170095Y-90463714D01*
X155122476Y-90368476D01*
X155122476Y-90320857D01*
X155170095Y-90225619D01*
X155217714Y-90178000D01*
X155312952Y-90130380D01*
X155503428Y-90130380D01*
X155598666Y-90178000D01*
X155646285Y-90225619D01*
X155693904Y-90320857D01*
X155693904Y-90368476D01*
X155646285Y-90463714D01*
X155598666Y-90511333D01*
X155503428Y-90558952D01*
X155312952Y-90558952D01*
X155217714Y-90606571D01*
X155170095Y-90654190D01*
X155122476Y-90749428D01*
X155122476Y-90939904D01*
X155170095Y-91035142D01*
X155217714Y-91082761D01*
X155312952Y-91130380D01*
X155503428Y-91130380D01*
X155598666Y-91082761D01*
X155646285Y-91035142D01*
X155693904Y-90939904D01*
X155693904Y-90749428D01*
X155646285Y-90654190D01*
X155598666Y-90606571D01*
X155503428Y-90558952D01*
X156122476Y-91130380D02*
X156122476Y-90130380D01*
X156122476Y-90606571D02*
X156693904Y-90606571D01*
X156693904Y-91130380D02*
X156693904Y-90130380D01*
X157074857Y-90463714D02*
X157598666Y-90463714D01*
X157074857Y-91130380D01*
X157598666Y-91130380D01*
X132500857Y-104735380D02*
X132834190Y-105735380D01*
X133167523Y-104735380D01*
X133500857Y-105735380D02*
X133500857Y-105068714D01*
X133500857Y-105259190D02*
X133548476Y-105163952D01*
X133596095Y-105116333D01*
X133691333Y-105068714D01*
X133786571Y-105068714D01*
X134500857Y-105687761D02*
X134405619Y-105735380D01*
X134215142Y-105735380D01*
X134119904Y-105687761D01*
X134072285Y-105592523D01*
X134072285Y-105211571D01*
X134119904Y-105116333D01*
X134215142Y-105068714D01*
X134405619Y-105068714D01*
X134500857Y-105116333D01*
X134548476Y-105211571D01*
X134548476Y-105306809D01*
X134072285Y-105402047D01*
X134834190Y-105068714D02*
X135215142Y-105068714D01*
X134977047Y-105735380D02*
X134977047Y-104878238D01*
X135024666Y-104783000D01*
X135119904Y-104735380D01*
X135215142Y-104735380D01*
X129667142Y-122864571D02*
X129810000Y-122912190D01*
X129857619Y-122959809D01*
X129905238Y-123055047D01*
X129905238Y-123197904D01*
X129857619Y-123293142D01*
X129810000Y-123340761D01*
X129714761Y-123388380D01*
X129333809Y-123388380D01*
X129333809Y-122388380D01*
X129667142Y-122388380D01*
X129762380Y-122436000D01*
X129810000Y-122483619D01*
X129857619Y-122578857D01*
X129857619Y-122674095D01*
X129810000Y-122769333D01*
X129762380Y-122816952D01*
X129667142Y-122864571D01*
X129333809Y-122864571D01*
X130286190Y-123340761D02*
X130429047Y-123388380D01*
X130667142Y-123388380D01*
X130762380Y-123340761D01*
X130810000Y-123293142D01*
X130857619Y-123197904D01*
X130857619Y-123102666D01*
X130810000Y-123007428D01*
X130762380Y-122959809D01*
X130667142Y-122912190D01*
X130476666Y-122864571D01*
X130381428Y-122816952D01*
X130333809Y-122769333D01*
X130286190Y-122674095D01*
X130286190Y-122578857D01*
X130333809Y-122483619D01*
X130381428Y-122436000D01*
X130476666Y-122388380D01*
X130714761Y-122388380D01*
X130857619Y-122436000D01*
X131286190Y-123388380D02*
X131286190Y-122388380D01*
X132286190Y-122436000D02*
X132190952Y-122388380D01*
X132048095Y-122388380D01*
X131905238Y-122436000D01*
X131810000Y-122531238D01*
X131762380Y-122626476D01*
X131714761Y-122816952D01*
X131714761Y-122959809D01*
X131762380Y-123150285D01*
X131810000Y-123245523D01*
X131905238Y-123340761D01*
X132048095Y-123388380D01*
X132143333Y-123388380D01*
X132286190Y-123340761D01*
X132333809Y-123293142D01*
X132333809Y-122959809D01*
X132143333Y-122959809D01*
X129500476Y-119689571D02*
X129643333Y-119737190D01*
X129690952Y-119784809D01*
X129738571Y-119880047D01*
X129738571Y-120022904D01*
X129690952Y-120118142D01*
X129643333Y-120165761D01*
X129548095Y-120213380D01*
X129167142Y-120213380D01*
X129167142Y-119213380D01*
X129500476Y-119213380D01*
X129595714Y-119261000D01*
X129643333Y-119308619D01*
X129690952Y-119403857D01*
X129690952Y-119499095D01*
X129643333Y-119594333D01*
X129595714Y-119641952D01*
X129500476Y-119689571D01*
X129167142Y-119689571D01*
X130071904Y-119213380D02*
X130690952Y-119213380D01*
X130357619Y-119594333D01*
X130500476Y-119594333D01*
X130595714Y-119641952D01*
X130643333Y-119689571D01*
X130690952Y-119784809D01*
X130690952Y-120022904D01*
X130643333Y-120118142D01*
X130595714Y-120165761D01*
X130500476Y-120213380D01*
X130214761Y-120213380D01*
X130119523Y-120165761D01*
X130071904Y-120118142D01*
X130976666Y-119213380D02*
X131310000Y-120213380D01*
X131643333Y-119213380D01*
X131881428Y-119213380D02*
X132500476Y-119213380D01*
X132167142Y-119594333D01*
X132310000Y-119594333D01*
X132405238Y-119641952D01*
X132452857Y-119689571D01*
X132500476Y-119784809D01*
X132500476Y-120022904D01*
X132452857Y-120118142D01*
X132405238Y-120165761D01*
X132310000Y-120213380D01*
X132024285Y-120213380D01*
X131929047Y-120165761D01*
X131881428Y-120118142D01*
X158627819Y-75247714D02*
X159627819Y-75247714D01*
X159627819Y-75628666D01*
X159580200Y-75723904D01*
X159532580Y-75771523D01*
X159437342Y-75819142D01*
X159294485Y-75819142D01*
X159199247Y-75771523D01*
X159151628Y-75723904D01*
X159104009Y-75628666D01*
X159104009Y-75247714D01*
X158723057Y-76819142D02*
X158675438Y-76771523D01*
X158627819Y-76628666D01*
X158627819Y-76533428D01*
X158675438Y-76390571D01*
X158770676Y-76295333D01*
X158865914Y-76247714D01*
X159056390Y-76200095D01*
X159199247Y-76200095D01*
X159389723Y-76247714D01*
X159484961Y-76295333D01*
X159580200Y-76390571D01*
X159627819Y-76533428D01*
X159627819Y-76628666D01*
X159580200Y-76771523D01*
X159532580Y-76819142D01*
X158627819Y-77771523D02*
X158627819Y-77200095D01*
X158627819Y-77485809D02*
X159627819Y-77485809D01*
X159484961Y-77390571D01*
X159389723Y-77295333D01*
X159342104Y-77200095D01*
X159627819Y-78104857D02*
X159627819Y-78723904D01*
X159246866Y-78390571D01*
X159246866Y-78533428D01*
X159199247Y-78628666D01*
X159151628Y-78676285D01*
X159056390Y-78723904D01*
X158818295Y-78723904D01*
X158723057Y-78676285D01*
X158675438Y-78628666D01*
X158627819Y-78533428D01*
X158627819Y-78247714D01*
X158675438Y-78152476D01*
X158723057Y-78104857D01*
D11*
X183388000Y-89027000D02*
X182880000Y-89789000D01*
X182880000Y-89789000D02*
X182372000Y-89027000D01*
X182372000Y-89027000D02*
X183388000Y-89027000D01*
X173736000Y-68580000D02*
X172974000Y-69088000D01*
X172974000Y-69088000D02*
X172974000Y-68072000D01*
X172974000Y-68072000D02*
X173736000Y-68580000D01*
X172339000Y-68072000D02*
X172339000Y-69088000D01*
X171577000Y-68580000D02*
X172339000Y-68072000D01*
X172339000Y-69088000D02*
X171577000Y-68580000D01*
X116967000Y-124968000D02*
X116205000Y-124460000D01*
X116205000Y-124460000D02*
X116967000Y-123952000D01*
X116967000Y-123952000D02*
X116967000Y-124968000D01*
X182880000Y-118491000D02*
X183388000Y-119253000D01*
X183388000Y-119253000D02*
X182372000Y-119253000D01*
X182372000Y-119253000D02*
X182880000Y-118491000D01*
X182372000Y-86233000D02*
X182880000Y-85471000D01*
X182880000Y-85471000D02*
X183388000Y-86233000D01*
X183388000Y-86233000D02*
X182372000Y-86233000D01*
X153416000Y-68580000D02*
X152654000Y-69088000D01*
X152654000Y-69088000D02*
X152654000Y-68072000D01*
X152654000Y-68072000D02*
X153416000Y-68580000D01*
X145796000Y-68580000D02*
X145034000Y-69088000D01*
X145034000Y-68072000D02*
X145796000Y-68580000D01*
X145034000Y-69088000D02*
X145034000Y-68072000D01*
X110236000Y-68580000D02*
X109474000Y-69088000D01*
X109474000Y-68072000D02*
X110236000Y-68580000D01*
X109474000Y-69088000D02*
X109474000Y-68072000D01*
X120396000Y-68580000D02*
X119634000Y-69088000D01*
X119634000Y-69088000D02*
X119634000Y-68072000D01*
X119634000Y-68072000D02*
X120396000Y-68580000D01*
X134874000Y-69088000D02*
X134874000Y-68072000D01*
X135636000Y-68580000D02*
X134874000Y-69088000D01*
X134874000Y-68072000D02*
X135636000Y-68580000D01*
D10*
X142422761Y-89034952D02*
X142327523Y-88987333D01*
X142279904Y-88939714D01*
X142232285Y-88844476D01*
X142232285Y-88796857D01*
X142279904Y-88701619D01*
X142327523Y-88654000D01*
X142422761Y-88606380D01*
X142613238Y-88606380D01*
X142708476Y-88654000D01*
X142756095Y-88701619D01*
X142803714Y-88796857D01*
X142803714Y-88844476D01*
X142756095Y-88939714D01*
X142708476Y-88987333D01*
X142613238Y-89034952D01*
X142422761Y-89034952D01*
X142327523Y-89082571D01*
X142279904Y-89130190D01*
X142232285Y-89225428D01*
X142232285Y-89415904D01*
X142279904Y-89511142D01*
X142327523Y-89558761D01*
X142422761Y-89606380D01*
X142613238Y-89606380D01*
X142708476Y-89558761D01*
X142756095Y-89511142D01*
X142803714Y-89415904D01*
X142803714Y-89225428D01*
X142756095Y-89130190D01*
X142708476Y-89082571D01*
X142613238Y-89034952D01*
X143232285Y-89606380D02*
X143232285Y-88606380D01*
X143565619Y-89320666D01*
X143898952Y-88606380D01*
X143898952Y-89606380D01*
X144375142Y-89606380D02*
X144375142Y-88606380D01*
X144375142Y-89082571D02*
X144946571Y-89082571D01*
X144946571Y-89606380D02*
X144946571Y-88606380D01*
X145327523Y-88939714D02*
X145851333Y-88939714D01*
X145327523Y-89606380D01*
X145851333Y-89606380D01*
X159543904Y-96972380D02*
X159543904Y-95972380D01*
X159924857Y-95972380D01*
X160020095Y-96020000D01*
X160067714Y-96067619D01*
X160115333Y-96162857D01*
X160115333Y-96305714D01*
X160067714Y-96400952D01*
X160020095Y-96448571D01*
X159924857Y-96496190D01*
X159543904Y-96496190D01*
X160877238Y-96448571D02*
X161020095Y-96496190D01*
X161067714Y-96543809D01*
X161115333Y-96639047D01*
X161115333Y-96781904D01*
X161067714Y-96877142D01*
X161020095Y-96924761D01*
X160924857Y-96972380D01*
X160543904Y-96972380D01*
X160543904Y-95972380D01*
X160877238Y-95972380D01*
X160972476Y-96020000D01*
X161020095Y-96067619D01*
X161067714Y-96162857D01*
X161067714Y-96258095D01*
X161020095Y-96353333D01*
X160972476Y-96400952D01*
X160877238Y-96448571D01*
X160543904Y-96448571D01*
X161686761Y-96400952D02*
X161591523Y-96353333D01*
X161543904Y-96305714D01*
X161496285Y-96210476D01*
X161496285Y-96162857D01*
X161543904Y-96067619D01*
X161591523Y-96020000D01*
X161686761Y-95972380D01*
X161877238Y-95972380D01*
X161972476Y-96020000D01*
X162020095Y-96067619D01*
X162067714Y-96162857D01*
X162067714Y-96210476D01*
X162020095Y-96305714D01*
X161972476Y-96353333D01*
X161877238Y-96400952D01*
X161686761Y-96400952D01*
X161591523Y-96448571D01*
X161543904Y-96496190D01*
X161496285Y-96591428D01*
X161496285Y-96781904D01*
X161543904Y-96877142D01*
X161591523Y-96924761D01*
X161686761Y-96972380D01*
X161877238Y-96972380D01*
X161972476Y-96924761D01*
X162020095Y-96877142D01*
X162067714Y-96781904D01*
X162067714Y-96591428D01*
X162020095Y-96496190D01*
X161972476Y-96448571D01*
X161877238Y-96400952D01*
X156241904Y-96972380D02*
X156241904Y-95972380D01*
X156622857Y-95972380D01*
X156718095Y-96020000D01*
X156765714Y-96067619D01*
X156813333Y-96162857D01*
X156813333Y-96305714D01*
X156765714Y-96400952D01*
X156718095Y-96448571D01*
X156622857Y-96496190D01*
X156241904Y-96496190D01*
X157575238Y-96448571D02*
X157718095Y-96496190D01*
X157765714Y-96543809D01*
X157813333Y-96639047D01*
X157813333Y-96781904D01*
X157765714Y-96877142D01*
X157718095Y-96924761D01*
X157622857Y-96972380D01*
X157241904Y-96972380D01*
X157241904Y-95972380D01*
X157575238Y-95972380D01*
X157670476Y-96020000D01*
X157718095Y-96067619D01*
X157765714Y-96162857D01*
X157765714Y-96258095D01*
X157718095Y-96353333D01*
X157670476Y-96400952D01*
X157575238Y-96448571D01*
X157241904Y-96448571D01*
X158289523Y-96972380D02*
X158480000Y-96972380D01*
X158575238Y-96924761D01*
X158622857Y-96877142D01*
X158718095Y-96734285D01*
X158765714Y-96543809D01*
X158765714Y-96162857D01*
X158718095Y-96067619D01*
X158670476Y-96020000D01*
X158575238Y-95972380D01*
X158384761Y-95972380D01*
X158289523Y-96020000D01*
X158241904Y-96067619D01*
X158194285Y-96162857D01*
X158194285Y-96400952D01*
X158241904Y-96496190D01*
X158289523Y-96543809D01*
X158384761Y-96591428D01*
X158575238Y-96591428D01*
X158670476Y-96543809D01*
X158718095Y-96496190D01*
X158765714Y-96400952D01*
X124904761Y-70905666D02*
X125380952Y-70905666D01*
X124809523Y-71191380D02*
X125142857Y-70191380D01*
X125476190Y-71191380D01*
X126380952Y-71096142D02*
X126333333Y-71143761D01*
X126190476Y-71191380D01*
X126095238Y-71191380D01*
X125952380Y-71143761D01*
X125857142Y-71048523D01*
X125809523Y-70953285D01*
X125761904Y-70762809D01*
X125761904Y-70619952D01*
X125809523Y-70429476D01*
X125857142Y-70334238D01*
X125952380Y-70239000D01*
X126095238Y-70191380D01*
X126190476Y-70191380D01*
X126333333Y-70239000D01*
X126380952Y-70286619D01*
X127380952Y-71096142D02*
X127333333Y-71143761D01*
X127190476Y-71191380D01*
X127095238Y-71191380D01*
X126952380Y-71143761D01*
X126857142Y-71048523D01*
X126809523Y-70953285D01*
X126761904Y-70762809D01*
X126761904Y-70619952D01*
X126809523Y-70429476D01*
X126857142Y-70334238D01*
X126952380Y-70239000D01*
X127095238Y-70191380D01*
X127190476Y-70191380D01*
X127333333Y-70239000D01*
X127380952Y-70286619D01*
X127809523Y-70667571D02*
X128142857Y-70667571D01*
X128285714Y-71191380D02*
X127809523Y-71191380D01*
X127809523Y-70191380D01*
X128285714Y-70191380D01*
X129190476Y-71191380D02*
X128714285Y-71191380D01*
X128714285Y-70191380D01*
X133056380Y-79874857D02*
X134056380Y-79541523D01*
X133056380Y-79208190D01*
X133056380Y-78684380D02*
X133056380Y-78493904D01*
X133104000Y-78398666D01*
X133199238Y-78303428D01*
X133389714Y-78255809D01*
X133723047Y-78255809D01*
X133913523Y-78303428D01*
X134008761Y-78398666D01*
X134056380Y-78493904D01*
X134056380Y-78684380D01*
X134008761Y-78779619D01*
X133913523Y-78874857D01*
X133723047Y-78922476D01*
X133389714Y-78922476D01*
X133199238Y-78874857D01*
X133104000Y-78779619D01*
X133056380Y-78684380D01*
X134056380Y-77351047D02*
X134056380Y-77827238D01*
X133056380Y-77827238D01*
X133056380Y-77160571D02*
X133056380Y-76589142D01*
X134056380Y-76874857D02*
X133056380Y-76874857D01*
X128730571Y-83240571D02*
X129063904Y-83240571D01*
X129206761Y-83764380D02*
X128730571Y-83764380D01*
X128730571Y-82764380D01*
X129206761Y-82764380D01*
X129587714Y-83716761D02*
X129730571Y-83764380D01*
X129968666Y-83764380D01*
X130063904Y-83716761D01*
X130111523Y-83669142D01*
X130159142Y-83573904D01*
X130159142Y-83478666D01*
X130111523Y-83383428D01*
X130063904Y-83335809D01*
X129968666Y-83288190D01*
X129778190Y-83240571D01*
X129682952Y-83192952D01*
X129635333Y-83145333D01*
X129587714Y-83050095D01*
X129587714Y-82954857D01*
X129635333Y-82859619D01*
X129682952Y-82812000D01*
X129778190Y-82764380D01*
X130016285Y-82764380D01*
X130159142Y-82812000D01*
X131159142Y-83669142D02*
X131111523Y-83716761D01*
X130968666Y-83764380D01*
X130873428Y-83764380D01*
X130730571Y-83716761D01*
X130635333Y-83621523D01*
X130587714Y-83526285D01*
X130540095Y-83335809D01*
X130540095Y-83192952D01*
X130587714Y-83002476D01*
X130635333Y-82907238D01*
X130730571Y-82812000D01*
X130873428Y-82764380D01*
X130968666Y-82764380D01*
X131111523Y-82812000D01*
X131159142Y-82859619D01*
X131444857Y-82764380D02*
X132016285Y-82764380D01*
X131730571Y-83764380D02*
X131730571Y-82764380D01*
X127833380Y-79247904D02*
X127357190Y-79581238D01*
X127833380Y-79819333D02*
X126833380Y-79819333D01*
X126833380Y-79438380D01*
X126881000Y-79343142D01*
X126928619Y-79295523D01*
X127023857Y-79247904D01*
X127166714Y-79247904D01*
X127261952Y-79295523D01*
X127309571Y-79343142D01*
X127357190Y-79438380D01*
X127357190Y-79819333D01*
X127833380Y-78819333D02*
X126833380Y-78819333D01*
X126833380Y-78438380D01*
X126881000Y-78343142D01*
X126928619Y-78295523D01*
X127023857Y-78247904D01*
X127166714Y-78247904D01*
X127261952Y-78295523D01*
X127309571Y-78343142D01*
X127357190Y-78438380D01*
X127357190Y-78819333D01*
X127833380Y-77819333D02*
X126833380Y-77819333D01*
X127547666Y-77486000D01*
X126833380Y-77152666D01*
X127833380Y-77152666D01*
X126706571Y-87082380D02*
X126706571Y-87891904D01*
X126754190Y-87987142D01*
X126801809Y-88034761D01*
X126897047Y-88082380D01*
X127087523Y-88082380D01*
X127182761Y-88034761D01*
X127230380Y-87987142D01*
X127278000Y-87891904D01*
X127278000Y-87082380D01*
X127706571Y-87796666D02*
X128182761Y-87796666D01*
X127611333Y-88082380D02*
X127944666Y-87082380D01*
X128278000Y-88082380D01*
X129182761Y-88082380D02*
X128849428Y-87606190D01*
X128611333Y-88082380D02*
X128611333Y-87082380D01*
X128992285Y-87082380D01*
X129087523Y-87130000D01*
X129135142Y-87177619D01*
X129182761Y-87272857D01*
X129182761Y-87415714D01*
X129135142Y-87510952D01*
X129087523Y-87558571D01*
X128992285Y-87606190D01*
X128611333Y-87606190D01*
X129468476Y-87082380D02*
X130039904Y-87082380D01*
X129754190Y-88082380D02*
X129754190Y-87082380D01*
X130325619Y-87177619D02*
X130373238Y-87130000D01*
X130468476Y-87082380D01*
X130706571Y-87082380D01*
X130801809Y-87130000D01*
X130849428Y-87177619D01*
X130897047Y-87272857D01*
X130897047Y-87368095D01*
X130849428Y-87510952D01*
X130278000Y-88082380D01*
X130897047Y-88082380D01*
X131895904Y-86207523D02*
X131895904Y-85750380D01*
X132695904Y-85978952D02*
X131895904Y-85978952D01*
X131895904Y-85559904D02*
X132695904Y-85026571D01*
X131895904Y-85026571D02*
X132695904Y-85559904D01*
X125837904Y-85731333D02*
X125456952Y-85998000D01*
X125837904Y-86188476D02*
X125037904Y-86188476D01*
X125037904Y-85883714D01*
X125076000Y-85807523D01*
X125114095Y-85769428D01*
X125190285Y-85731333D01*
X125304571Y-85731333D01*
X125380761Y-85769428D01*
X125418857Y-85807523D01*
X125456952Y-85883714D01*
X125456952Y-86188476D01*
X125037904Y-85464666D02*
X125837904Y-84931333D01*
X125037904Y-84931333D02*
X125837904Y-85464666D01*
X124436380Y-104084380D02*
X124436380Y-103084380D01*
X124674476Y-103084380D01*
X124817333Y-103132000D01*
X124912571Y-103227238D01*
X124960190Y-103322476D01*
X125007809Y-103512952D01*
X125007809Y-103655809D01*
X124960190Y-103846285D01*
X124912571Y-103941523D01*
X124817333Y-104036761D01*
X124674476Y-104084380D01*
X124436380Y-104084380D01*
X125388761Y-103798666D02*
X125864952Y-103798666D01*
X125293523Y-104084380D02*
X125626857Y-103084380D01*
X125960190Y-104084380D01*
X126150666Y-103084380D02*
X126722095Y-103084380D01*
X126436380Y-104084380D02*
X126436380Y-103084380D01*
X126960190Y-103084380D02*
X127579238Y-103084380D01*
X127245904Y-103465333D01*
X127388761Y-103465333D01*
X127484000Y-103512952D01*
X127531619Y-103560571D01*
X127579238Y-103655809D01*
X127579238Y-103893904D01*
X127531619Y-103989142D01*
X127484000Y-104036761D01*
X127388761Y-104084380D01*
X127103047Y-104084380D01*
X127007809Y-104036761D01*
X126960190Y-103989142D01*
X124436380Y-101290380D02*
X124436380Y-100290380D01*
X124674476Y-100290380D01*
X124817333Y-100338000D01*
X124912571Y-100433238D01*
X124960190Y-100528476D01*
X125007809Y-100718952D01*
X125007809Y-100861809D01*
X124960190Y-101052285D01*
X124912571Y-101147523D01*
X124817333Y-101242761D01*
X124674476Y-101290380D01*
X124436380Y-101290380D01*
X125388761Y-101004666D02*
X125864952Y-101004666D01*
X125293523Y-101290380D02*
X125626857Y-100290380D01*
X125960190Y-101290380D01*
X126150666Y-100290380D02*
X126722095Y-100290380D01*
X126436380Y-101290380D02*
X126436380Y-100290380D01*
X127007809Y-100385619D02*
X127055428Y-100338000D01*
X127150666Y-100290380D01*
X127388761Y-100290380D01*
X127484000Y-100338000D01*
X127531619Y-100385619D01*
X127579238Y-100480857D01*
X127579238Y-100576095D01*
X127531619Y-100718952D01*
X126960190Y-101290380D01*
X127579238Y-101290380D01*
X124436380Y-98496380D02*
X124436380Y-97496380D01*
X124674476Y-97496380D01*
X124817333Y-97544000D01*
X124912571Y-97639238D01*
X124960190Y-97734476D01*
X125007809Y-97924952D01*
X125007809Y-98067809D01*
X124960190Y-98258285D01*
X124912571Y-98353523D01*
X124817333Y-98448761D01*
X124674476Y-98496380D01*
X124436380Y-98496380D01*
X125388761Y-98210666D02*
X125864952Y-98210666D01*
X125293523Y-98496380D02*
X125626857Y-97496380D01*
X125960190Y-98496380D01*
X126150666Y-97496380D02*
X126722095Y-97496380D01*
X126436380Y-98496380D02*
X126436380Y-97496380D01*
X127579238Y-98496380D02*
X127007809Y-98496380D01*
X127293523Y-98496380D02*
X127293523Y-97496380D01*
X127198285Y-97639238D01*
X127103047Y-97734476D01*
X127007809Y-97782095D01*
X125031619Y-95702380D02*
X124698285Y-95226190D01*
X124460190Y-95702380D02*
X124460190Y-94702380D01*
X124841142Y-94702380D01*
X124936380Y-94750000D01*
X124984000Y-94797619D01*
X125031619Y-94892857D01*
X125031619Y-95035714D01*
X124984000Y-95130952D01*
X124936380Y-95178571D01*
X124841142Y-95226190D01*
X124460190Y-95226190D01*
X125412571Y-95416666D02*
X125888761Y-95416666D01*
X125317333Y-95702380D02*
X125650666Y-94702380D01*
X125984000Y-95702380D01*
X126174476Y-94702380D02*
X126745904Y-94702380D01*
X126460190Y-95702380D02*
X126460190Y-94702380D01*
X127079238Y-95178571D02*
X127412571Y-95178571D01*
X127555428Y-95702380D02*
X127079238Y-95702380D01*
X127079238Y-94702380D01*
X127555428Y-94702380D01*
X124952285Y-93114761D02*
X125095142Y-93162380D01*
X125333238Y-93162380D01*
X125428476Y-93114761D01*
X125476095Y-93067142D01*
X125523714Y-92971904D01*
X125523714Y-92876666D01*
X125476095Y-92781428D01*
X125428476Y-92733809D01*
X125333238Y-92686190D01*
X125142761Y-92638571D01*
X125047523Y-92590952D01*
X124999904Y-92543333D01*
X124952285Y-92448095D01*
X124952285Y-92352857D01*
X124999904Y-92257619D01*
X125047523Y-92210000D01*
X125142761Y-92162380D01*
X125380857Y-92162380D01*
X125523714Y-92210000D01*
X126523714Y-93067142D02*
X126476095Y-93114761D01*
X126333238Y-93162380D01*
X126238000Y-93162380D01*
X126095142Y-93114761D01*
X125999904Y-93019523D01*
X125952285Y-92924285D01*
X125904666Y-92733809D01*
X125904666Y-92590952D01*
X125952285Y-92400476D01*
X125999904Y-92305238D01*
X126095142Y-92210000D01*
X126238000Y-92162380D01*
X126333238Y-92162380D01*
X126476095Y-92210000D01*
X126523714Y-92257619D01*
X126952285Y-93162380D02*
X126952285Y-92162380D01*
X127523714Y-93162380D02*
X127095142Y-92590952D01*
X127523714Y-92162380D02*
X126952285Y-92733809D01*
X113538095Y-71191380D02*
X113204761Y-70715190D01*
X112966666Y-71191380D02*
X112966666Y-70191380D01*
X113347619Y-70191380D01*
X113442857Y-70239000D01*
X113490476Y-70286619D01*
X113538095Y-70381857D01*
X113538095Y-70524714D01*
X113490476Y-70619952D01*
X113442857Y-70667571D01*
X113347619Y-70715190D01*
X112966666Y-70715190D01*
X113966666Y-71191380D02*
X113966666Y-70191380D01*
X114347619Y-70191380D01*
X114442857Y-70239000D01*
X114490476Y-70286619D01*
X114538095Y-70381857D01*
X114538095Y-70524714D01*
X114490476Y-70619952D01*
X114442857Y-70667571D01*
X114347619Y-70715190D01*
X113966666Y-70715190D01*
X114966666Y-71191380D02*
X114966666Y-70191380D01*
X115300000Y-70905666D01*
X115633333Y-70191380D01*
X115633333Y-71191380D01*
X137438095Y-71191380D02*
X137438095Y-70191380D01*
X137771428Y-70905666D01*
X138104761Y-70191380D01*
X138104761Y-71191380D01*
X138771428Y-70191380D02*
X138961904Y-70191380D01*
X139057142Y-70239000D01*
X139152380Y-70334238D01*
X139200000Y-70524714D01*
X139200000Y-70858047D01*
X139152380Y-71048523D01*
X139057142Y-71143761D01*
X138961904Y-71191380D01*
X138771428Y-71191380D01*
X138676190Y-71143761D01*
X138580952Y-71048523D01*
X138533333Y-70858047D01*
X138533333Y-70524714D01*
X138580952Y-70334238D01*
X138676190Y-70239000D01*
X138771428Y-70191380D01*
X139485714Y-70191380D02*
X140057142Y-70191380D01*
X139771428Y-71191380D02*
X139771428Y-70191380D01*
X140580952Y-70191380D02*
X140771428Y-70191380D01*
X140866666Y-70239000D01*
X140961904Y-70334238D01*
X141009523Y-70524714D01*
X141009523Y-70858047D01*
X140961904Y-71048523D01*
X140866666Y-71143761D01*
X140771428Y-71191380D01*
X140580952Y-71191380D01*
X140485714Y-71143761D01*
X140390476Y-71048523D01*
X140342857Y-70858047D01*
X140342857Y-70524714D01*
X140390476Y-70334238D01*
X140485714Y-70239000D01*
X140580952Y-70191380D01*
X142009523Y-71191380D02*
X141676190Y-70715190D01*
X141438095Y-71191380D02*
X141438095Y-70191380D01*
X141819047Y-70191380D01*
X141914285Y-70239000D01*
X141961904Y-70286619D01*
X142009523Y-70381857D01*
X142009523Y-70524714D01*
X141961904Y-70619952D01*
X141914285Y-70667571D01*
X141819047Y-70715190D01*
X141438095Y-70715190D01*
X146820142Y-70191380D02*
X147153476Y-71191380D01*
X147486809Y-70191380D01*
X148010619Y-70191380D02*
X148201095Y-70191380D01*
X148296333Y-70239000D01*
X148391571Y-70334238D01*
X148439190Y-70524714D01*
X148439190Y-70858047D01*
X148391571Y-71048523D01*
X148296333Y-71143761D01*
X148201095Y-71191380D01*
X148010619Y-71191380D01*
X147915380Y-71143761D01*
X147820142Y-71048523D01*
X147772523Y-70858047D01*
X147772523Y-70524714D01*
X147820142Y-70334238D01*
X147915380Y-70239000D01*
X148010619Y-70191380D01*
X149343952Y-71191380D02*
X148867761Y-71191380D01*
X148867761Y-70191380D01*
X149534428Y-70191380D02*
X150105857Y-70191380D01*
X149820142Y-71191380D02*
X149820142Y-70191380D01*
X158805714Y-71096142D02*
X158758095Y-71143761D01*
X158615238Y-71191380D01*
X158520000Y-71191380D01*
X158377142Y-71143761D01*
X158281904Y-71048523D01*
X158234285Y-70953285D01*
X158186666Y-70762809D01*
X158186666Y-70619952D01*
X158234285Y-70429476D01*
X158281904Y-70334238D01*
X158377142Y-70239000D01*
X158520000Y-70191380D01*
X158615238Y-70191380D01*
X158758095Y-70239000D01*
X158805714Y-70286619D01*
X159234285Y-70191380D02*
X159234285Y-71000904D01*
X159281904Y-71096142D01*
X159329523Y-71143761D01*
X159424761Y-71191380D01*
X159615238Y-71191380D01*
X159710476Y-71143761D01*
X159758095Y-71096142D01*
X159805714Y-71000904D01*
X159805714Y-70191380D01*
X160853333Y-71191380D02*
X160520000Y-70715190D01*
X160281904Y-71191380D02*
X160281904Y-70191380D01*
X160662857Y-70191380D01*
X160758095Y-70239000D01*
X160805714Y-70286619D01*
X160853333Y-70381857D01*
X160853333Y-70524714D01*
X160805714Y-70619952D01*
X160758095Y-70667571D01*
X160662857Y-70715190D01*
X160281904Y-70715190D01*
X161853333Y-71191380D02*
X161520000Y-70715190D01*
X161281904Y-71191380D02*
X161281904Y-70191380D01*
X161662857Y-70191380D01*
X161758095Y-70239000D01*
X161805714Y-70286619D01*
X161853333Y-70381857D01*
X161853333Y-70524714D01*
X161805714Y-70619952D01*
X161758095Y-70667571D01*
X161662857Y-70715190D01*
X161281904Y-70715190D01*
X167600380Y-71572190D02*
X167600380Y-70953142D01*
X167981333Y-71286476D01*
X167981333Y-71143619D01*
X168028952Y-71048380D01*
X168076571Y-71000761D01*
X168171809Y-70953142D01*
X168409904Y-70953142D01*
X168505142Y-71000761D01*
X168552761Y-71048380D01*
X168600380Y-71143619D01*
X168600380Y-71429333D01*
X168552761Y-71524571D01*
X168505142Y-71572190D01*
X168505142Y-70524571D02*
X168552761Y-70476952D01*
X168600380Y-70524571D01*
X168552761Y-70572190D01*
X168505142Y-70524571D01*
X168600380Y-70524571D01*
X167600380Y-70143619D02*
X167600380Y-69524571D01*
X167981333Y-69857904D01*
X167981333Y-69715047D01*
X168028952Y-69619809D01*
X168076571Y-69572190D01*
X168171809Y-69524571D01*
X168409904Y-69524571D01*
X168505142Y-69572190D01*
X168552761Y-69619809D01*
X168600380Y-69715047D01*
X168600380Y-70000761D01*
X168552761Y-70096000D01*
X168505142Y-70143619D01*
X167600380Y-69238857D02*
X168600380Y-68905523D01*
X167600380Y-68572190D01*
X168600380Y-68238857D02*
X167600380Y-68238857D01*
X167600380Y-68000761D01*
X167648000Y-67857904D01*
X167743238Y-67762666D01*
X167838476Y-67715047D01*
X168028952Y-67667428D01*
X168171809Y-67667428D01*
X168362285Y-67715047D01*
X168457523Y-67762666D01*
X168552761Y-67857904D01*
X168600380Y-68000761D01*
X168600380Y-68238857D01*
X177347571Y-72167476D02*
X177347571Y-71834142D01*
X177871380Y-71691285D02*
X177871380Y-72167476D01*
X176871380Y-72167476D01*
X176871380Y-71691285D01*
X177871380Y-71357952D02*
X177204714Y-70834142D01*
X177204714Y-71357952D02*
X177871380Y-70834142D01*
X177204714Y-70596047D02*
X177204714Y-70215095D01*
X176871380Y-70453190D02*
X177728523Y-70453190D01*
X177823761Y-70405571D01*
X177871380Y-70310333D01*
X177871380Y-70215095D01*
X176871380Y-68643666D02*
X176871380Y-69119857D01*
X177347571Y-69167476D01*
X177299952Y-69119857D01*
X177252333Y-69024619D01*
X177252333Y-68786523D01*
X177299952Y-68691285D01*
X177347571Y-68643666D01*
X177442809Y-68596047D01*
X177680904Y-68596047D01*
X177776142Y-68643666D01*
X177823761Y-68691285D01*
X177871380Y-68786523D01*
X177871380Y-69024619D01*
X177823761Y-69119857D01*
X177776142Y-69167476D01*
X176871380Y-68310333D02*
X177871380Y-67977000D01*
X176871380Y-67643666D01*
X179792380Y-83597333D02*
X180601904Y-83597333D01*
X180697142Y-83549714D01*
X180744761Y-83502095D01*
X180792380Y-83406857D01*
X180792380Y-83216380D01*
X180744761Y-83121142D01*
X180697142Y-83073523D01*
X180601904Y-83025904D01*
X179792380Y-83025904D01*
X180506666Y-82597333D02*
X180506666Y-82121142D01*
X180792380Y-82692571D02*
X179792380Y-82359238D01*
X180792380Y-82025904D01*
X180792380Y-81121142D02*
X180316190Y-81454476D01*
X180792380Y-81692571D02*
X179792380Y-81692571D01*
X179792380Y-81311619D01*
X179840000Y-81216380D01*
X179887619Y-81168761D01*
X179982857Y-81121142D01*
X180125714Y-81121142D01*
X180220952Y-81168761D01*
X180268571Y-81216380D01*
X180316190Y-81311619D01*
X180316190Y-81692571D01*
X179792380Y-80835428D02*
X179792380Y-80264000D01*
X180792380Y-80549714D02*
X179792380Y-80549714D01*
X179744761Y-79216380D02*
X181030476Y-80073523D01*
X180792380Y-78883047D02*
X179792380Y-78883047D01*
X179887619Y-78454476D02*
X179840000Y-78406857D01*
X179792380Y-78311619D01*
X179792380Y-78073523D01*
X179840000Y-77978285D01*
X179887619Y-77930666D01*
X179982857Y-77883047D01*
X180078095Y-77883047D01*
X180220952Y-77930666D01*
X180792380Y-78502095D01*
X180792380Y-77883047D01*
X180697142Y-76883047D02*
X180744761Y-76930666D01*
X180792380Y-77073523D01*
X180792380Y-77168761D01*
X180744761Y-77311619D01*
X180649523Y-77406857D01*
X180554285Y-77454476D01*
X180363809Y-77502095D01*
X180220952Y-77502095D01*
X180030476Y-77454476D01*
X179935238Y-77406857D01*
X179840000Y-77311619D01*
X179792380Y-77168761D01*
X179792380Y-77073523D01*
X179840000Y-76930666D01*
X179887619Y-76883047D01*
X141121238Y-76811142D02*
X141073619Y-76858761D01*
X140930761Y-76906380D01*
X140835523Y-76906380D01*
X140692666Y-76858761D01*
X140597428Y-76763523D01*
X140549809Y-76668285D01*
X140502190Y-76477809D01*
X140502190Y-76334952D01*
X140549809Y-76144476D01*
X140597428Y-76049238D01*
X140692666Y-75954000D01*
X140835523Y-75906380D01*
X140930761Y-75906380D01*
X141073619Y-75954000D01*
X141121238Y-76001619D01*
X141549809Y-75906380D02*
X141549809Y-76715904D01*
X141597428Y-76811142D01*
X141645047Y-76858761D01*
X141740285Y-76906380D01*
X141930761Y-76906380D01*
X142026000Y-76858761D01*
X142073619Y-76811142D01*
X142121238Y-76715904D01*
X142121238Y-75906380D01*
X143168857Y-76906380D02*
X142835523Y-76430190D01*
X142597428Y-76906380D02*
X142597428Y-75906380D01*
X142978380Y-75906380D01*
X143073619Y-75954000D01*
X143121238Y-76001619D01*
X143168857Y-76096857D01*
X143168857Y-76239714D01*
X143121238Y-76334952D01*
X143073619Y-76382571D01*
X142978380Y-76430190D01*
X142597428Y-76430190D01*
X144168857Y-76906380D02*
X143835523Y-76430190D01*
X143597428Y-76906380D02*
X143597428Y-75906380D01*
X143978380Y-75906380D01*
X144073619Y-75954000D01*
X144121238Y-76001619D01*
X144168857Y-76096857D01*
X144168857Y-76239714D01*
X144121238Y-76334952D01*
X144073619Y-76382571D01*
X143978380Y-76430190D01*
X143597428Y-76430190D01*
X145311714Y-75858761D02*
X144454571Y-77144476D01*
X145549809Y-75906380D02*
X146216476Y-75906380D01*
X145549809Y-76906380D01*
X146216476Y-76906380D01*
X146978380Y-76858761D02*
X146883142Y-76906380D01*
X146692666Y-76906380D01*
X146597428Y-76858761D01*
X146549809Y-76763523D01*
X146549809Y-76382571D01*
X146597428Y-76287333D01*
X146692666Y-76239714D01*
X146883142Y-76239714D01*
X146978380Y-76287333D01*
X147026000Y-76382571D01*
X147026000Y-76477809D01*
X146549809Y-76573047D01*
X147454571Y-76906380D02*
X147454571Y-76239714D01*
X147454571Y-76430190D02*
X147502190Y-76334952D01*
X147549809Y-76287333D01*
X147645047Y-76239714D01*
X147740285Y-76239714D01*
X148216476Y-76906380D02*
X148121238Y-76858761D01*
X148073619Y-76811142D01*
X148026000Y-76715904D01*
X148026000Y-76430190D01*
X148073619Y-76334952D01*
X148121238Y-76287333D01*
X148216476Y-76239714D01*
X148359333Y-76239714D01*
X148454571Y-76287333D01*
X148502190Y-76334952D01*
X148549809Y-76430190D01*
X148549809Y-76715904D01*
X148502190Y-76811142D01*
X148454571Y-76858761D01*
X148359333Y-76906380D01*
X148216476Y-76906380D01*
X142525904Y-110434380D02*
X142525904Y-109434380D01*
X142906857Y-109434380D01*
X143002095Y-109482000D01*
X143049714Y-109529619D01*
X143097333Y-109624857D01*
X143097333Y-109767714D01*
X143049714Y-109862952D01*
X143002095Y-109910571D01*
X142906857Y-109958190D01*
X142525904Y-109958190D01*
X144097333Y-110339142D02*
X144049714Y-110386761D01*
X143906857Y-110434380D01*
X143811619Y-110434380D01*
X143668761Y-110386761D01*
X143573523Y-110291523D01*
X143525904Y-110196285D01*
X143478285Y-110005809D01*
X143478285Y-109862952D01*
X143525904Y-109672476D01*
X143573523Y-109577238D01*
X143668761Y-109482000D01*
X143811619Y-109434380D01*
X143906857Y-109434380D01*
X144049714Y-109482000D01*
X144097333Y-109529619D01*
X144573523Y-110434380D02*
X144764000Y-110434380D01*
X144859238Y-110386761D01*
X144906857Y-110339142D01*
X145002095Y-110196285D01*
X145049714Y-110005809D01*
X145049714Y-109624857D01*
X145002095Y-109529619D01*
X144954476Y-109482000D01*
X144859238Y-109434380D01*
X144668761Y-109434380D01*
X144573523Y-109482000D01*
X144525904Y-109529619D01*
X144478285Y-109624857D01*
X144478285Y-109862952D01*
X144525904Y-109958190D01*
X144573523Y-110005809D01*
X144668761Y-110053428D01*
X144859238Y-110053428D01*
X144954476Y-110005809D01*
X145002095Y-109958190D01*
X145049714Y-109862952D01*
X106703761Y-113758023D02*
X106751380Y-113615166D01*
X106751380Y-113377071D01*
X106703761Y-113281833D01*
X106656142Y-113234214D01*
X106560904Y-113186595D01*
X106465666Y-113186595D01*
X106370428Y-113234214D01*
X106322809Y-113281833D01*
X106275190Y-113377071D01*
X106227571Y-113567547D01*
X106179952Y-113662785D01*
X106132333Y-113710404D01*
X106037095Y-113758023D01*
X105941857Y-113758023D01*
X105846619Y-113710404D01*
X105799000Y-113662785D01*
X105751380Y-113567547D01*
X105751380Y-113329452D01*
X105799000Y-113186595D01*
X106084714Y-112900880D02*
X106084714Y-112519928D01*
X105751380Y-112758023D02*
X106608523Y-112758023D01*
X106703761Y-112710404D01*
X106751380Y-112615166D01*
X106751380Y-112519928D01*
X106656142Y-112186595D02*
X106703761Y-112138976D01*
X106751380Y-112186595D01*
X106703761Y-112234214D01*
X106656142Y-112186595D01*
X106751380Y-112186595D01*
X105799000Y-111186595D02*
X105751380Y-111281833D01*
X105751380Y-111424690D01*
X105799000Y-111567547D01*
X105894238Y-111662785D01*
X105989476Y-111710404D01*
X106179952Y-111758023D01*
X106322809Y-111758023D01*
X106513285Y-111710404D01*
X106608523Y-111662785D01*
X106703761Y-111567547D01*
X106751380Y-111424690D01*
X106751380Y-111329452D01*
X106703761Y-111186595D01*
X106656142Y-111138976D01*
X106322809Y-111138976D01*
X106322809Y-111329452D01*
X106751380Y-110281833D02*
X106227571Y-110281833D01*
X106132333Y-110329452D01*
X106084714Y-110424690D01*
X106084714Y-110615166D01*
X106132333Y-110710404D01*
X106703761Y-110281833D02*
X106751380Y-110377071D01*
X106751380Y-110615166D01*
X106703761Y-110710404D01*
X106608523Y-110758023D01*
X106513285Y-110758023D01*
X106418047Y-110710404D01*
X106370428Y-110615166D01*
X106370428Y-110377071D01*
X106322809Y-110281833D01*
X106084714Y-109377071D02*
X106751380Y-109377071D01*
X106084714Y-109805642D02*
X106608523Y-109805642D01*
X106703761Y-109758023D01*
X106751380Y-109662785D01*
X106751380Y-109519928D01*
X106703761Y-109424690D01*
X106656142Y-109377071D01*
X106084714Y-108472309D02*
X106894238Y-108472309D01*
X106989476Y-108519928D01*
X107037095Y-108567547D01*
X107084714Y-108662785D01*
X107084714Y-108805642D01*
X107037095Y-108900880D01*
X106703761Y-108472309D02*
X106751380Y-108567547D01*
X106751380Y-108758023D01*
X106703761Y-108853261D01*
X106656142Y-108900880D01*
X106560904Y-108948500D01*
X106275190Y-108948500D01*
X106179952Y-108900880D01*
X106132333Y-108853261D01*
X106084714Y-108758023D01*
X106084714Y-108567547D01*
X106132333Y-108472309D01*
X106703761Y-107615166D02*
X106751380Y-107710404D01*
X106751380Y-107900880D01*
X106703761Y-107996119D01*
X106608523Y-108043738D01*
X106227571Y-108043738D01*
X106132333Y-107996119D01*
X106084714Y-107900880D01*
X106084714Y-107710404D01*
X106132333Y-107615166D01*
X106227571Y-107567547D01*
X106322809Y-107567547D01*
X106418047Y-108043738D01*
X105751380Y-106472309D02*
X105751380Y-105853261D01*
X106132333Y-106186595D01*
X106132333Y-106043738D01*
X106179952Y-105948500D01*
X106227571Y-105900880D01*
X106322809Y-105853261D01*
X106560904Y-105853261D01*
X106656142Y-105900880D01*
X106703761Y-105948500D01*
X106751380Y-106043738D01*
X106751380Y-106329452D01*
X106703761Y-106424690D01*
X106656142Y-106472309D01*
X106703761Y-98518023D02*
X106751380Y-98375166D01*
X106751380Y-98137071D01*
X106703761Y-98041833D01*
X106656142Y-97994214D01*
X106560904Y-97946595D01*
X106465666Y-97946595D01*
X106370428Y-97994214D01*
X106322809Y-98041833D01*
X106275190Y-98137071D01*
X106227571Y-98327547D01*
X106179952Y-98422785D01*
X106132333Y-98470404D01*
X106037095Y-98518023D01*
X105941857Y-98518023D01*
X105846619Y-98470404D01*
X105799000Y-98422785D01*
X105751380Y-98327547D01*
X105751380Y-98089452D01*
X105799000Y-97946595D01*
X106084714Y-97660880D02*
X106084714Y-97279928D01*
X105751380Y-97518023D02*
X106608523Y-97518023D01*
X106703761Y-97470404D01*
X106751380Y-97375166D01*
X106751380Y-97279928D01*
X106656142Y-96946595D02*
X106703761Y-96898976D01*
X106751380Y-96946595D01*
X106703761Y-96994214D01*
X106656142Y-96946595D01*
X106751380Y-96946595D01*
X105799000Y-95946595D02*
X105751380Y-96041833D01*
X105751380Y-96184690D01*
X105799000Y-96327547D01*
X105894238Y-96422785D01*
X105989476Y-96470404D01*
X106179952Y-96518023D01*
X106322809Y-96518023D01*
X106513285Y-96470404D01*
X106608523Y-96422785D01*
X106703761Y-96327547D01*
X106751380Y-96184690D01*
X106751380Y-96089452D01*
X106703761Y-95946595D01*
X106656142Y-95898976D01*
X106322809Y-95898976D01*
X106322809Y-96089452D01*
X106751380Y-95041833D02*
X106227571Y-95041833D01*
X106132333Y-95089452D01*
X106084714Y-95184690D01*
X106084714Y-95375166D01*
X106132333Y-95470404D01*
X106703761Y-95041833D02*
X106751380Y-95137071D01*
X106751380Y-95375166D01*
X106703761Y-95470404D01*
X106608523Y-95518023D01*
X106513285Y-95518023D01*
X106418047Y-95470404D01*
X106370428Y-95375166D01*
X106370428Y-95137071D01*
X106322809Y-95041833D01*
X106084714Y-94137071D02*
X106751380Y-94137071D01*
X106084714Y-94565642D02*
X106608523Y-94565642D01*
X106703761Y-94518023D01*
X106751380Y-94422785D01*
X106751380Y-94279928D01*
X106703761Y-94184690D01*
X106656142Y-94137071D01*
X106084714Y-93232309D02*
X106894238Y-93232309D01*
X106989476Y-93279928D01*
X107037095Y-93327547D01*
X107084714Y-93422785D01*
X107084714Y-93565642D01*
X107037095Y-93660880D01*
X106703761Y-93232309D02*
X106751380Y-93327547D01*
X106751380Y-93518023D01*
X106703761Y-93613261D01*
X106656142Y-93660880D01*
X106560904Y-93708500D01*
X106275190Y-93708500D01*
X106179952Y-93660880D01*
X106132333Y-93613261D01*
X106084714Y-93518023D01*
X106084714Y-93327547D01*
X106132333Y-93232309D01*
X106703761Y-92375166D02*
X106751380Y-92470404D01*
X106751380Y-92660880D01*
X106703761Y-92756119D01*
X106608523Y-92803738D01*
X106227571Y-92803738D01*
X106132333Y-92756119D01*
X106084714Y-92660880D01*
X106084714Y-92470404D01*
X106132333Y-92375166D01*
X106227571Y-92327547D01*
X106322809Y-92327547D01*
X106418047Y-92803738D01*
X105846619Y-91184690D02*
X105799000Y-91137071D01*
X105751380Y-91041833D01*
X105751380Y-90803738D01*
X105799000Y-90708500D01*
X105846619Y-90660880D01*
X105941857Y-90613261D01*
X106037095Y-90613261D01*
X106179952Y-90660880D01*
X106751380Y-91232309D01*
X106751380Y-90613261D01*
X106703761Y-83278023D02*
X106751380Y-83135166D01*
X106751380Y-82897071D01*
X106703761Y-82801833D01*
X106656142Y-82754214D01*
X106560904Y-82706595D01*
X106465666Y-82706595D01*
X106370428Y-82754214D01*
X106322809Y-82801833D01*
X106275190Y-82897071D01*
X106227571Y-83087547D01*
X106179952Y-83182785D01*
X106132333Y-83230404D01*
X106037095Y-83278023D01*
X105941857Y-83278023D01*
X105846619Y-83230404D01*
X105799000Y-83182785D01*
X105751380Y-83087547D01*
X105751380Y-82849452D01*
X105799000Y-82706595D01*
X106084714Y-82420880D02*
X106084714Y-82039928D01*
X105751380Y-82278023D02*
X106608523Y-82278023D01*
X106703761Y-82230404D01*
X106751380Y-82135166D01*
X106751380Y-82039928D01*
X106656142Y-81706595D02*
X106703761Y-81658976D01*
X106751380Y-81706595D01*
X106703761Y-81754214D01*
X106656142Y-81706595D01*
X106751380Y-81706595D01*
X105799000Y-80706595D02*
X105751380Y-80801833D01*
X105751380Y-80944690D01*
X105799000Y-81087547D01*
X105894238Y-81182785D01*
X105989476Y-81230404D01*
X106179952Y-81278023D01*
X106322809Y-81278023D01*
X106513285Y-81230404D01*
X106608523Y-81182785D01*
X106703761Y-81087547D01*
X106751380Y-80944690D01*
X106751380Y-80849452D01*
X106703761Y-80706595D01*
X106656142Y-80658976D01*
X106322809Y-80658976D01*
X106322809Y-80849452D01*
X106751380Y-79801833D02*
X106227571Y-79801833D01*
X106132333Y-79849452D01*
X106084714Y-79944690D01*
X106084714Y-80135166D01*
X106132333Y-80230404D01*
X106703761Y-79801833D02*
X106751380Y-79897071D01*
X106751380Y-80135166D01*
X106703761Y-80230404D01*
X106608523Y-80278023D01*
X106513285Y-80278023D01*
X106418047Y-80230404D01*
X106370428Y-80135166D01*
X106370428Y-79897071D01*
X106322809Y-79801833D01*
X106084714Y-78897071D02*
X106751380Y-78897071D01*
X106084714Y-79325642D02*
X106608523Y-79325642D01*
X106703761Y-79278023D01*
X106751380Y-79182785D01*
X106751380Y-79039928D01*
X106703761Y-78944690D01*
X106656142Y-78897071D01*
X106084714Y-77992309D02*
X106894238Y-77992309D01*
X106989476Y-78039928D01*
X107037095Y-78087547D01*
X107084714Y-78182785D01*
X107084714Y-78325642D01*
X107037095Y-78420880D01*
X106703761Y-77992309D02*
X106751380Y-78087547D01*
X106751380Y-78278023D01*
X106703761Y-78373261D01*
X106656142Y-78420880D01*
X106560904Y-78468500D01*
X106275190Y-78468500D01*
X106179952Y-78420880D01*
X106132333Y-78373261D01*
X106084714Y-78278023D01*
X106084714Y-78087547D01*
X106132333Y-77992309D01*
X106703761Y-77135166D02*
X106751380Y-77230404D01*
X106751380Y-77420880D01*
X106703761Y-77516119D01*
X106608523Y-77563738D01*
X106227571Y-77563738D01*
X106132333Y-77516119D01*
X106084714Y-77420880D01*
X106084714Y-77230404D01*
X106132333Y-77135166D01*
X106227571Y-77087547D01*
X106322809Y-77087547D01*
X106418047Y-77563738D01*
X106751380Y-75373261D02*
X106751380Y-75944690D01*
X106751380Y-75658976D02*
X105751380Y-75658976D01*
X105894238Y-75754214D01*
X105989476Y-75849452D01*
X106037095Y-75944690D01*
X111339380Y-124856666D02*
X111339380Y-124237619D01*
X111720333Y-124570952D01*
X111720333Y-124428095D01*
X111767952Y-124332857D01*
X111815571Y-124285238D01*
X111910809Y-124237619D01*
X112148904Y-124237619D01*
X112244142Y-124285238D01*
X112291761Y-124332857D01*
X112339380Y-124428095D01*
X112339380Y-124713809D01*
X112291761Y-124809047D01*
X112244142Y-124856666D01*
X111339380Y-123951904D02*
X112339380Y-123618571D01*
X111339380Y-123285238D01*
X111339380Y-123047142D02*
X111339380Y-122428095D01*
X111720333Y-122761428D01*
X111720333Y-122618571D01*
X111767952Y-122523333D01*
X111815571Y-122475714D01*
X111910809Y-122428095D01*
X112148904Y-122428095D01*
X112244142Y-122475714D01*
X112291761Y-122523333D01*
X112339380Y-122618571D01*
X112339380Y-122904285D01*
X112291761Y-122999523D01*
X112244142Y-123047142D01*
X112053666Y-122047142D02*
X112053666Y-121570952D01*
X112339380Y-122142380D02*
X111339380Y-121809047D01*
X112339380Y-121475714D01*
X180998761Y-109307142D02*
X181046380Y-109164285D01*
X181046380Y-108926190D01*
X180998761Y-108830952D01*
X180951142Y-108783333D01*
X180855904Y-108735714D01*
X180760666Y-108735714D01*
X180665428Y-108783333D01*
X180617809Y-108830952D01*
X180570190Y-108926190D01*
X180522571Y-109116666D01*
X180474952Y-109211904D01*
X180427333Y-109259523D01*
X180332095Y-109307142D01*
X180236857Y-109307142D01*
X180141619Y-109259523D01*
X180094000Y-109211904D01*
X180046380Y-109116666D01*
X180046380Y-108878571D01*
X180094000Y-108735714D01*
X180046380Y-108402380D02*
X181046380Y-108164285D01*
X180332095Y-107973809D01*
X181046380Y-107783333D01*
X180046380Y-107545238D01*
X181046380Y-107164285D02*
X180046380Y-107164285D01*
X180046380Y-106926190D01*
X180094000Y-106783333D01*
X180189238Y-106688095D01*
X180284476Y-106640476D01*
X180474952Y-106592857D01*
X180617809Y-106592857D01*
X180808285Y-106640476D01*
X180903523Y-106688095D01*
X180998761Y-106783333D01*
X181046380Y-106926190D01*
X181046380Y-107164285D01*
X180792380Y-97535714D02*
X180792380Y-98011904D01*
X179792380Y-98011904D01*
X180697142Y-96630952D02*
X180744761Y-96678571D01*
X180792380Y-96821428D01*
X180792380Y-96916666D01*
X180744761Y-97059523D01*
X180649523Y-97154761D01*
X180554285Y-97202380D01*
X180363809Y-97250000D01*
X180220952Y-97250000D01*
X180030476Y-97202380D01*
X179935238Y-97154761D01*
X179840000Y-97059523D01*
X179792380Y-96916666D01*
X179792380Y-96821428D01*
X179840000Y-96678571D01*
X179887619Y-96630952D01*
X180792380Y-96202380D02*
X179792380Y-96202380D01*
X179792380Y-95964285D01*
X179840000Y-95821428D01*
X179935238Y-95726190D01*
X180030476Y-95678571D01*
X180220952Y-95630952D01*
X180363809Y-95630952D01*
X180554285Y-95678571D01*
X180649523Y-95726190D01*
X180744761Y-95821428D01*
X180792380Y-95964285D01*
X180792380Y-96202380D01*
X180792380Y-94440476D02*
X179792380Y-94440476D01*
X179887619Y-94011904D02*
X179840000Y-93964285D01*
X179792380Y-93869047D01*
X179792380Y-93630952D01*
X179840000Y-93535714D01*
X179887619Y-93488095D01*
X179982857Y-93440476D01*
X180078095Y-93440476D01*
X180220952Y-93488095D01*
X180792380Y-94059523D01*
X180792380Y-93440476D01*
X180697142Y-92440476D02*
X180744761Y-92488095D01*
X180792380Y-92630952D01*
X180792380Y-92726190D01*
X180744761Y-92869047D01*
X180649523Y-92964285D01*
X180554285Y-93011904D01*
X180363809Y-93059523D01*
X180220952Y-93059523D01*
X180030476Y-93011904D01*
X179935238Y-92964285D01*
X179840000Y-92869047D01*
X179792380Y-92726190D01*
X179792380Y-92630952D01*
X179840000Y-92488095D01*
X179887619Y-92440476D01*
X160528095Y-90432000D02*
X160432857Y-90384380D01*
X160290000Y-90384380D01*
X160147142Y-90432000D01*
X160051904Y-90527238D01*
X160004285Y-90622476D01*
X159956666Y-90812952D01*
X159956666Y-90955809D01*
X160004285Y-91146285D01*
X160051904Y-91241523D01*
X160147142Y-91336761D01*
X160290000Y-91384380D01*
X160385238Y-91384380D01*
X160528095Y-91336761D01*
X160575714Y-91289142D01*
X160575714Y-90955809D01*
X160385238Y-90955809D01*
X161004285Y-91384380D02*
X161004285Y-90384380D01*
X161575714Y-91384380D01*
X161575714Y-90384380D01*
X162051904Y-91384380D02*
X162051904Y-90384380D01*
X162290000Y-90384380D01*
X162432857Y-90432000D01*
X162528095Y-90527238D01*
X162575714Y-90622476D01*
X162623333Y-90812952D01*
X162623333Y-90955809D01*
X162575714Y-91146285D01*
X162528095Y-91241523D01*
X162432857Y-91336761D01*
X162290000Y-91384380D01*
X162051904Y-91384380D01*
X166155904Y-88352380D02*
X166774952Y-88352380D01*
X166441619Y-88733333D01*
X166584476Y-88733333D01*
X166679714Y-88780952D01*
X166727333Y-88828571D01*
X166774952Y-88923809D01*
X166774952Y-89161904D01*
X166727333Y-89257142D01*
X166679714Y-89304761D01*
X166584476Y-89352380D01*
X166298761Y-89352380D01*
X166203523Y-89304761D01*
X166155904Y-89257142D01*
X167060666Y-88352380D02*
X167394000Y-89352380D01*
X167727333Y-88352380D01*
X167965428Y-88352380D02*
X168584476Y-88352380D01*
X168251142Y-88733333D01*
X168394000Y-88733333D01*
X168489238Y-88780952D01*
X168536857Y-88828571D01*
X168584476Y-88923809D01*
X168584476Y-89161904D01*
X168536857Y-89257142D01*
X168489238Y-89304761D01*
X168394000Y-89352380D01*
X168108285Y-89352380D01*
X168013047Y-89304761D01*
X167965428Y-89257142D01*
X169013047Y-89352380D02*
X169013047Y-88352380D01*
X169251142Y-88352380D01*
X169394000Y-88400000D01*
X169489238Y-88495238D01*
X169536857Y-88590476D01*
X169584476Y-88780952D01*
X169584476Y-88923809D01*
X169536857Y-89114285D01*
X169489238Y-89209523D01*
X169394000Y-89304761D01*
X169251142Y-89352380D01*
X169013047Y-89352380D01*
X170545238Y-89352380D02*
X170545238Y-88352380D01*
X171497619Y-88352380D02*
X171021428Y-88352380D01*
X170973809Y-88828571D01*
X171021428Y-88780952D01*
X171116666Y-88733333D01*
X171354761Y-88733333D01*
X171450000Y-88780952D01*
X171497619Y-88828571D01*
X171545238Y-88923809D01*
X171545238Y-89161904D01*
X171497619Y-89257142D01*
X171450000Y-89304761D01*
X171354761Y-89352380D01*
X171116666Y-89352380D01*
X171021428Y-89304761D01*
X170973809Y-89257142D01*
X171830952Y-88352380D02*
X172164285Y-89352380D01*
X172497619Y-88352380D01*
X163742857Y-98226571D02*
X163885714Y-98274190D01*
X163933333Y-98321809D01*
X163980952Y-98417047D01*
X163980952Y-98559904D01*
X163933333Y-98655142D01*
X163885714Y-98702761D01*
X163790476Y-98750380D01*
X163409523Y-98750380D01*
X163409523Y-97750380D01*
X163742857Y-97750380D01*
X163838095Y-97798000D01*
X163885714Y-97845619D01*
X163933333Y-97940857D01*
X163933333Y-98036095D01*
X163885714Y-98131333D01*
X163838095Y-98178952D01*
X163742857Y-98226571D01*
X163409523Y-98226571D01*
X164600000Y-97750380D02*
X164790476Y-97750380D01*
X164885714Y-97798000D01*
X164980952Y-97893238D01*
X165028571Y-98083714D01*
X165028571Y-98417047D01*
X164980952Y-98607523D01*
X164885714Y-98702761D01*
X164790476Y-98750380D01*
X164600000Y-98750380D01*
X164504761Y-98702761D01*
X164409523Y-98607523D01*
X164361904Y-98417047D01*
X164361904Y-98083714D01*
X164409523Y-97893238D01*
X164504761Y-97798000D01*
X164600000Y-97750380D01*
X165647619Y-97750380D02*
X165838095Y-97750380D01*
X165933333Y-97798000D01*
X166028571Y-97893238D01*
X166076190Y-98083714D01*
X166076190Y-98417047D01*
X166028571Y-98607523D01*
X165933333Y-98702761D01*
X165838095Y-98750380D01*
X165647619Y-98750380D01*
X165552380Y-98702761D01*
X165457142Y-98607523D01*
X165409523Y-98417047D01*
X165409523Y-98083714D01*
X165457142Y-97893238D01*
X165552380Y-97798000D01*
X165647619Y-97750380D01*
X166361904Y-97750380D02*
X166933333Y-97750380D01*
X166647619Y-98750380D02*
X166647619Y-97750380D01*
X169743619Y-98750380D02*
X169410285Y-98274190D01*
X169172190Y-98750380D02*
X169172190Y-97750380D01*
X169553142Y-97750380D01*
X169648380Y-97798000D01*
X169696000Y-97845619D01*
X169743619Y-97940857D01*
X169743619Y-98083714D01*
X169696000Y-98178952D01*
X169648380Y-98226571D01*
X169553142Y-98274190D01*
X169172190Y-98274190D01*
X170172190Y-98226571D02*
X170505523Y-98226571D01*
X170648380Y-98750380D02*
X170172190Y-98750380D01*
X170172190Y-97750380D01*
X170648380Y-97750380D01*
X171029333Y-98702761D02*
X171172190Y-98750380D01*
X171410285Y-98750380D01*
X171505523Y-98702761D01*
X171553142Y-98655142D01*
X171600761Y-98559904D01*
X171600761Y-98464666D01*
X171553142Y-98369428D01*
X171505523Y-98321809D01*
X171410285Y-98274190D01*
X171219809Y-98226571D01*
X171124571Y-98178952D01*
X171076952Y-98131333D01*
X171029333Y-98036095D01*
X171029333Y-97940857D01*
X171076952Y-97845619D01*
X171124571Y-97798000D01*
X171219809Y-97750380D01*
X171457904Y-97750380D01*
X171600761Y-97798000D01*
X172029333Y-98226571D02*
X172362666Y-98226571D01*
X172505523Y-98750380D02*
X172029333Y-98750380D01*
X172029333Y-97750380D01*
X172505523Y-97750380D01*
X172791238Y-97750380D02*
X173362666Y-97750380D01*
X173076952Y-98750380D02*
X173076952Y-97750380D01*
X137731714Y-124928380D02*
X137731714Y-125737904D01*
X137779333Y-125833142D01*
X137826952Y-125880761D01*
X137922190Y-125928380D01*
X138112666Y-125928380D01*
X138207904Y-125880761D01*
X138255523Y-125833142D01*
X138303142Y-125737904D01*
X138303142Y-124928380D01*
X138731714Y-125880761D02*
X138874571Y-125928380D01*
X139112666Y-125928380D01*
X139207904Y-125880761D01*
X139255523Y-125833142D01*
X139303142Y-125737904D01*
X139303142Y-125642666D01*
X139255523Y-125547428D01*
X139207904Y-125499809D01*
X139112666Y-125452190D01*
X138922190Y-125404571D01*
X138826952Y-125356952D01*
X138779333Y-125309333D01*
X138731714Y-125214095D01*
X138731714Y-125118857D01*
X138779333Y-125023619D01*
X138826952Y-124976000D01*
X138922190Y-124928380D01*
X139160285Y-124928380D01*
X139303142Y-124976000D01*
X139731714Y-125404571D02*
X140065047Y-125404571D01*
X140207904Y-125928380D02*
X139731714Y-125928380D01*
X139731714Y-124928380D01*
X140207904Y-124928380D01*
X141207904Y-125928380D02*
X140874571Y-125452190D01*
X140636476Y-125928380D02*
X140636476Y-124928380D01*
X141017428Y-124928380D01*
X141112666Y-124976000D01*
X141160285Y-125023619D01*
X141207904Y-125118857D01*
X141207904Y-125261714D01*
X141160285Y-125356952D01*
X141112666Y-125404571D01*
X141017428Y-125452190D01*
X140636476Y-125452190D01*
D11*
X139766000Y-108646000D02*
X139766000Y-106746000D01*
X141666000Y-108646000D02*
X139766000Y-108646000D01*
X141666000Y-106746000D02*
X141666000Y-108646000D01*
X139766000Y-106746000D02*
X141666000Y-106746000D01*
X137860000Y-105156000D02*
G75*
G03*
X137860000Y-105156000I-700000J0D01*
G01*
X141056000Y-116096000D02*
X141056000Y-113646000D01*
X137836000Y-114296000D02*
X137836000Y-116096000D01*
X129327000Y-107515000D02*
X129327000Y-109315000D01*
X132547000Y-109315000D02*
X132547000Y-106865000D01*
X155902000Y-116316400D02*
X157702000Y-116316400D01*
X157702000Y-113096400D02*
X155252000Y-113096400D01*
X171953000Y-113460000D02*
X176753000Y-113460000D01*
X171953000Y-110060000D02*
X171953000Y-113460000D01*
X176753000Y-110060000D02*
X171953000Y-110060000D01*
X167070500Y-75516000D02*
X162270500Y-75516000D01*
X167070500Y-78916000D02*
X167070500Y-75516000D01*
X162270500Y-78916000D02*
X167070500Y-78916000D01*
X174068000Y-89049000D02*
X174068000Y-93849000D01*
X177468000Y-89049000D02*
X174068000Y-89049000D01*
X177468000Y-93849000D02*
X177468000Y-89049000D01*
X178320000Y-76834000D02*
X172720000Y-76834000D01*
X178320000Y-73534000D02*
X172720000Y-73534000D01*
X178320000Y-76834000D02*
X178320000Y-73534000D01*
X174288000Y-109092000D02*
X168688000Y-109092000D01*
X174288000Y-105792000D02*
X168688000Y-105792000D01*
X174288000Y-109092000D02*
X174288000Y-105792000D01*
X174880000Y-85896000D02*
X174880000Y-80296000D01*
X178180000Y-85896000D02*
X178180000Y-80296000D01*
X174880000Y-85896000D02*
X178180000Y-85896000D01*
X134517224Y-71613500D02*
X134007776Y-71613500D01*
X134517224Y-72658500D02*
X134007776Y-72658500D01*
X138024776Y-74690500D02*
X138534224Y-74690500D01*
X138024776Y-73645500D02*
X138534224Y-73645500D01*
X134119233Y-74678000D02*
X134411767Y-74678000D01*
X134119233Y-73658000D02*
X134411767Y-73658000D01*
X138130233Y-72646000D02*
X138422767Y-72646000D01*
X138130233Y-71626000D02*
X138422767Y-71626000D01*
X133970500Y-108609224D02*
X133970500Y-108099776D01*
X135015500Y-108609224D02*
X135015500Y-108099776D01*
X136002500Y-108609224D02*
X136002500Y-108099776D01*
X137047500Y-108609224D02*
X137047500Y-108099776D01*
X135528267Y-112270000D02*
X135235733Y-112270000D01*
X135528267Y-111250000D02*
X135235733Y-111250000D01*
X173470000Y-119870000D02*
X173470000Y-115060000D01*
X173470000Y-115060000D02*
X161150000Y-115060000D01*
X161150000Y-115060000D02*
X161150000Y-119870000D01*
X173470000Y-123970000D02*
X173470000Y-132330000D01*
X173470000Y-132330000D02*
X161150000Y-132330000D01*
X161150000Y-132330000D02*
X161150000Y-123970000D01*
X168560000Y-114790000D02*
X169060000Y-114290000D01*
X169060000Y-114290000D02*
X168060000Y-114290000D01*
X168060000Y-114290000D02*
X168560000Y-114790000D01*
X152204800Y-86878200D02*
X151504800Y-86878200D01*
X152204800Y-81178200D02*
X152204800Y-84978200D01*
X156404800Y-84978200D02*
X156404800Y-81178200D01*
X156404800Y-78878200D02*
X156404800Y-79278200D01*
X152204800Y-78878200D02*
X156404800Y-78878200D01*
X152204800Y-79278200D02*
X152204800Y-78878200D01*
X156404800Y-87278200D02*
X156404800Y-86878200D01*
X152204800Y-87278200D02*
X156404800Y-87278200D01*
X152204800Y-86878200D02*
X152204800Y-87278200D01*
X171030000Y-104308000D02*
X170930000Y-104308000D01*
X169430000Y-99908000D02*
X169430000Y-100958000D01*
X172530000Y-104308000D02*
X172530000Y-99908000D01*
X171030000Y-99908000D02*
X170930000Y-99908000D01*
X169430000Y-103258000D02*
X169430000Y-104308000D01*
X165188000Y-104308000D02*
X165088000Y-104308000D01*
X163588000Y-99908000D02*
X163588000Y-100958000D01*
X166688000Y-104308000D02*
X166688000Y-99908000D01*
X165188000Y-99908000D02*
X165088000Y-99908000D01*
X163588000Y-103258000D02*
X163588000Y-104308000D01*
X136881000Y-119585000D02*
X136881000Y-120610000D01*
X138056000Y-118735000D02*
X140806000Y-118735000D01*
X138056000Y-123835000D02*
X140806000Y-123835000D01*
X136881000Y-121960000D02*
X136881000Y-122985000D01*
X141981000Y-119585000D02*
X141981000Y-120610000D01*
X141981000Y-121960000D02*
X141981000Y-122985000D01*
X120102000Y-109621000D02*
X116652000Y-109621000D01*
X120102000Y-109621000D02*
X122052000Y-109621000D01*
X120102000Y-119741000D02*
X118152000Y-119741000D01*
X120102000Y-119741000D02*
X122052000Y-119741000D01*
X120102000Y-79141000D02*
X116652000Y-79141000D01*
X120102000Y-79141000D02*
X122052000Y-79141000D01*
X120102000Y-89261000D02*
X118152000Y-89261000D01*
X120102000Y-89261000D02*
X122052000Y-89261000D01*
X120102000Y-94381000D02*
X116652000Y-94381000D01*
X120102000Y-94381000D02*
X122052000Y-94381000D01*
X120102000Y-104501000D02*
X118152000Y-104501000D01*
X120102000Y-104501000D02*
X122052000Y-104501000D01*
X119506276Y-77201500D02*
X120015724Y-77201500D01*
X119506276Y-78246500D02*
X120015724Y-78246500D01*
X132886267Y-116588000D02*
X132543733Y-116588000D01*
X132886267Y-115568000D02*
X132543733Y-115568000D01*
X132908000Y-118684000D02*
X134808000Y-118684000D01*
X134808000Y-118684000D02*
X134808000Y-120584000D01*
X134808000Y-120584000D02*
X132908000Y-120584000D01*
X132908000Y-120584000D02*
X132908000Y-118684000D01*
X132908000Y-121986000D02*
X134808000Y-121986000D01*
X134808000Y-121986000D02*
X134808000Y-123886000D01*
X134808000Y-123886000D02*
X132908000Y-123886000D01*
X132908000Y-123886000D02*
X132908000Y-121986000D01*
X153816267Y-71626000D02*
X153523733Y-71626000D01*
X153816267Y-72646000D02*
X153523733Y-72646000D01*
X161651733Y-72646000D02*
X161944267Y-72646000D01*
X161651733Y-71626000D02*
X161944267Y-71626000D01*
X123712500Y-72793776D02*
X123712500Y-73303224D01*
X122667500Y-72793776D02*
X122667500Y-73303224D01*
X129896776Y-75677500D02*
X130406224Y-75677500D01*
X129896776Y-76722500D02*
X130406224Y-76722500D01*
X129896776Y-71613500D02*
X130406224Y-71613500D01*
X129896776Y-72658500D02*
X130406224Y-72658500D01*
X125732000Y-72905233D02*
X125732000Y-73197767D01*
X124712000Y-72905233D02*
X124712000Y-73197767D01*
X130347767Y-78742000D02*
X130055233Y-78742000D01*
X130347767Y-77722000D02*
X130055233Y-77722000D01*
X130347767Y-74678000D02*
X130055233Y-74678000D01*
X130347767Y-73658000D02*
X130055233Y-73658000D01*
X155768000Y-77404000D02*
X155768000Y-75504000D01*
X157668000Y-77404000D02*
X155768000Y-77404000D01*
X157668000Y-75504000D02*
X157668000Y-77404000D01*
X155768000Y-75504000D02*
X157668000Y-75504000D01*
X166430000Y-69910000D02*
X166430000Y-67250000D01*
X156210000Y-69910000D02*
X166430000Y-69910000D01*
X156210000Y-67250000D02*
X166430000Y-67250000D01*
X156210000Y-69910000D02*
X156210000Y-67250000D01*
X154940000Y-69910000D02*
X153610000Y-69910000D01*
X153610000Y-69910000D02*
X153610000Y-68580000D01*
X133410000Y-69910000D02*
X133410000Y-67250000D01*
X123190000Y-69910000D02*
X133410000Y-69910000D01*
X123190000Y-67250000D02*
X133410000Y-67250000D01*
X123190000Y-69910000D02*
X123190000Y-67250000D01*
X121920000Y-69910000D02*
X120590000Y-69910000D01*
X120590000Y-69910000D02*
X120590000Y-68580000D01*
X160943000Y-84820000D02*
X160943000Y-82820000D01*
X163743000Y-84820000D02*
X160943000Y-84820000D01*
X163743000Y-82820000D02*
X163743000Y-84820000D01*
X160943000Y-82820000D02*
X163743000Y-82820000D01*
X163388000Y-91882000D02*
X163388000Y-89982000D01*
X165288000Y-91882000D02*
X163388000Y-91882000D01*
X165288000Y-89982000D02*
X165288000Y-91882000D01*
X163388000Y-89982000D02*
X165288000Y-89982000D01*
X140718000Y-87615000D02*
X147118000Y-87615000D01*
X140718000Y-82565000D02*
X147118000Y-82565000D01*
X147118000Y-87615000D02*
G75*
G03*
X147118000Y-82565000I0J2525000D01*
G01*
X140718000Y-87615000D02*
G75*
G02*
X140718000Y-82565000I0J2525000D01*
G01*
X146222767Y-80516000D02*
X145930233Y-80516000D01*
X146222767Y-81536000D02*
X145930233Y-81536000D01*
X137924000Y-91432767D02*
X137924000Y-91140233D01*
X136904000Y-91432767D02*
X136904000Y-91140233D01*
X166944000Y-89982000D02*
X168844000Y-89982000D01*
X168844000Y-89982000D02*
X168844000Y-91882000D01*
X168844000Y-91882000D02*
X166944000Y-91882000D01*
X166944000Y-91882000D02*
X166944000Y-89982000D01*
X168924500Y-94893224D02*
X168924500Y-94383776D01*
X167879500Y-94893224D02*
X167879500Y-94383776D01*
X172400000Y-91882000D02*
X170500000Y-91882000D01*
X172400000Y-89982000D02*
X172400000Y-91882000D01*
X170500000Y-89982000D02*
X172400000Y-89982000D01*
X170500000Y-91882000D02*
X170500000Y-89982000D01*
X156297000Y-111236000D02*
X156297000Y-109236000D01*
X159097000Y-111236000D02*
X156297000Y-111236000D01*
X159097000Y-109236000D02*
X159097000Y-111236000D01*
X156297000Y-109236000D02*
X159097000Y-109236000D01*
X163590500Y-87527224D02*
X163590500Y-87017776D01*
X162545500Y-87527224D02*
X162545500Y-87017776D01*
X161558500Y-87527224D02*
X161558500Y-87017776D01*
X160513500Y-87527224D02*
X160513500Y-87017776D01*
X144524000Y-119272267D02*
X144524000Y-118979733D01*
X145544000Y-119272267D02*
X145544000Y-118979733D01*
X180354500Y-104244224D02*
X180354500Y-103734776D01*
X179309500Y-104244224D02*
X179309500Y-103734776D01*
X179322000Y-111714233D02*
X179322000Y-112006767D01*
X180342000Y-111714233D02*
X180342000Y-112006767D01*
X162054000Y-112414267D02*
X162054000Y-112121733D01*
X161034000Y-112414267D02*
X161034000Y-112121733D01*
X175155776Y-101585500D02*
X175665224Y-101585500D01*
X175155776Y-102630500D02*
X175665224Y-102630500D01*
X148487224Y-122188500D02*
X147977776Y-122188500D01*
X148487224Y-121143500D02*
X147977776Y-121143500D01*
X145556500Y-122530776D02*
X145556500Y-123040224D01*
X144511500Y-122530776D02*
X144511500Y-123040224D01*
X175267233Y-99312000D02*
X175559767Y-99312000D01*
X175267233Y-100332000D02*
X175559767Y-100332000D01*
X175267233Y-103884000D02*
X175559767Y-103884000D01*
X175267233Y-104904000D02*
X175559767Y-104904000D01*
X148036233Y-123188000D02*
X148328767Y-123188000D01*
X148036233Y-124208000D02*
X148328767Y-124208000D01*
X126304000Y-84521000D02*
X128204000Y-84521000D01*
X128204000Y-84521000D02*
X128204000Y-86421000D01*
X128204000Y-86421000D02*
X126304000Y-86421000D01*
X126304000Y-86421000D02*
X126304000Y-84521000D01*
X129352000Y-84521000D02*
X131252000Y-84521000D01*
X131252000Y-84521000D02*
X131252000Y-86421000D01*
X131252000Y-86421000D02*
X129352000Y-86421000D01*
X129352000Y-86421000D02*
X129352000Y-84521000D01*
X178306000Y-90785733D02*
X178306000Y-91078267D01*
X179326000Y-90785733D02*
X179326000Y-91078267D01*
X166892500Y-94893224D02*
X166892500Y-94383776D01*
X165847500Y-94893224D02*
X165847500Y-94383776D01*
X116457000Y-76715233D02*
X116457000Y-77007767D01*
X117477000Y-76715233D02*
X117477000Y-77007767D01*
X159832000Y-93538000D02*
X161732000Y-93538000D01*
X161732000Y-93538000D02*
X161732000Y-95438000D01*
X161732000Y-95438000D02*
X159832000Y-95438000D01*
X159832000Y-95438000D02*
X159832000Y-93538000D01*
X162320500Y-100733776D02*
X162320500Y-101243224D01*
X161275500Y-100733776D02*
X161275500Y-101243224D01*
X144460000Y-108646000D02*
X142560000Y-108646000D01*
X142560000Y-108646000D02*
X142560000Y-106746000D01*
X142560000Y-106746000D02*
X144460000Y-106746000D01*
X144460000Y-106746000D02*
X144460000Y-108646000D01*
X156530000Y-93538000D02*
X158430000Y-93538000D01*
X158430000Y-93538000D02*
X158430000Y-95438000D01*
X158430000Y-95438000D02*
X156530000Y-95438000D01*
X156530000Y-95438000D02*
X156530000Y-93538000D01*
X184210000Y-118170000D02*
X182880000Y-118170000D01*
X184210000Y-116840000D02*
X184210000Y-118170000D01*
X184210000Y-115570000D02*
X181550000Y-115570000D01*
X181550000Y-115570000D02*
X181550000Y-102810000D01*
X184210000Y-115570000D02*
X184210000Y-102810000D01*
X184210000Y-102810000D02*
X181550000Y-102810000D01*
X135634000Y-114762233D02*
X135634000Y-115054767D01*
X136654000Y-114762233D02*
X136654000Y-115054767D01*
X112714000Y-110236000D02*
G75*
G03*
X112714000Y-110236000I-700000J0D01*
G01*
X112714000Y-94996000D02*
G75*
G03*
X112714000Y-94996000I-700000J0D01*
G01*
X112714000Y-79756000D02*
G75*
G03*
X112714000Y-79756000I-700000J0D01*
G01*
X112417776Y-72658500D02*
X112927224Y-72658500D01*
X112417776Y-71613500D02*
X112927224Y-71613500D01*
X152043224Y-115301500D02*
X151533776Y-115301500D01*
X152043224Y-116346500D02*
X151533776Y-116346500D01*
X152043224Y-113015500D02*
X151533776Y-113015500D01*
X152043224Y-114060500D02*
X151533776Y-114060500D01*
X165876500Y-112522724D02*
X165876500Y-112013276D01*
X164831500Y-112522724D02*
X164831500Y-112013276D01*
X165876500Y-108712724D02*
X165876500Y-108203276D01*
X164831500Y-108712724D02*
X164831500Y-108203276D01*
X146662224Y-71613500D02*
X146152776Y-71613500D01*
X146662224Y-72658500D02*
X146152776Y-72658500D01*
X142088776Y-72658500D02*
X142598224Y-72658500D01*
X142088776Y-71613500D02*
X142598224Y-71613500D01*
X156195500Y-72793776D02*
X156195500Y-73303224D01*
X157240500Y-72793776D02*
X157240500Y-73303224D01*
X146152776Y-74690500D02*
X146662224Y-74690500D01*
X146152776Y-73645500D02*
X146662224Y-73645500D01*
X158227500Y-72793776D02*
X158227500Y-73303224D01*
X159272500Y-72793776D02*
X159272500Y-73303224D01*
X158647224Y-105395500D02*
X158137776Y-105395500D01*
X158647224Y-106440500D02*
X158137776Y-106440500D01*
X158621824Y-103388900D02*
X158112376Y-103388900D01*
X158621824Y-104433900D02*
X158112376Y-104433900D01*
X158621824Y-101331500D02*
X158112376Y-101331500D01*
X158621824Y-102376500D02*
X158112376Y-102376500D01*
X158621824Y-99324900D02*
X158112376Y-99324900D01*
X158621824Y-100369900D02*
X158112376Y-100369900D01*
X124699500Y-76556776D02*
X124699500Y-77066224D01*
X125744500Y-76556776D02*
X125744500Y-77066224D01*
X112790500Y-113435224D02*
X112790500Y-112925776D01*
X111745500Y-113435224D02*
X111745500Y-112925776D01*
X114822500Y-111403224D02*
X114822500Y-110893776D01*
X113777500Y-111403224D02*
X113777500Y-110893776D01*
X112790500Y-98195224D02*
X112790500Y-97685776D01*
X111745500Y-98195224D02*
X111745500Y-97685776D01*
X114822500Y-96163224D02*
X114822500Y-95653776D01*
X113777500Y-96163224D02*
X113777500Y-95653776D01*
X112790500Y-82955224D02*
X112790500Y-82445776D01*
X111745500Y-82955224D02*
X111745500Y-82445776D01*
X114822500Y-80923224D02*
X114822500Y-80413776D01*
X113777500Y-80923224D02*
X113777500Y-80413776D01*
X109070224Y-115809500D02*
X108560776Y-115809500D01*
X109070224Y-116854500D02*
X108560776Y-116854500D01*
X109070224Y-113777500D02*
X108560776Y-113777500D01*
X109070224Y-114822500D02*
X108560776Y-114822500D01*
X109070224Y-100569500D02*
X108560776Y-100569500D01*
X109070224Y-101614500D02*
X108560776Y-101614500D01*
X109070224Y-98537500D02*
X108560776Y-98537500D01*
X109070224Y-99582500D02*
X108560776Y-99582500D01*
X109070224Y-85329500D02*
X108560776Y-85329500D01*
X109070224Y-86374500D02*
X108560776Y-86374500D01*
X109070224Y-83297500D02*
X108560776Y-83297500D01*
X109070224Y-84342500D02*
X108560776Y-84342500D01*
X169688252Y-110542000D02*
X169165748Y-110542000D01*
X169688252Y-111962000D02*
X169165748Y-111962000D01*
X116847233Y-72646000D02*
X117139767Y-72646000D01*
X116847233Y-71626000D02*
X117139767Y-71626000D01*
X151645233Y-112016000D02*
X151937767Y-112016000D01*
X151645233Y-110996000D02*
X151937767Y-110996000D01*
X151645233Y-118366000D02*
X151937767Y-118366000D01*
X151645233Y-117346000D02*
X151937767Y-117346000D01*
X133809200Y-95498967D02*
X133809200Y-95206433D01*
X132789200Y-95498967D02*
X132789200Y-95206433D01*
X136146000Y-95496767D02*
X136146000Y-95204233D01*
X135126000Y-95496767D02*
X135126000Y-95204233D01*
X152144000Y-93733233D02*
X152144000Y-94025767D01*
X153164000Y-93733233D02*
X153164000Y-94025767D01*
X134792767Y-102868000D02*
X134500233Y-102868000D01*
X134792767Y-103888000D02*
X134500233Y-103888000D01*
X149090767Y-106246200D02*
X148798233Y-106246200D01*
X149090767Y-107266200D02*
X148798233Y-107266200D01*
X142486767Y-73658000D02*
X142194233Y-73658000D01*
X142486767Y-74678000D02*
X142194233Y-74678000D01*
X153816267Y-73658000D02*
X153523733Y-73658000D01*
X153816267Y-74678000D02*
X153523733Y-74678000D01*
X150116000Y-73197767D02*
X150116000Y-72905233D01*
X149096000Y-73197767D02*
X149096000Y-72905233D01*
X134792767Y-100912200D02*
X134500233Y-100912200D01*
X134792767Y-101932200D02*
X134500233Y-101932200D01*
X161651733Y-74678000D02*
X161944267Y-74678000D01*
X161651733Y-73658000D02*
X161944267Y-73658000D01*
X135638000Y-91432767D02*
X135638000Y-91140233D01*
X134618000Y-91432767D02*
X134618000Y-91140233D01*
X152418533Y-89486200D02*
X152711067Y-89486200D01*
X152418533Y-88466200D02*
X152711067Y-88466200D01*
X156166067Y-88466200D02*
X155873533Y-88466200D01*
X156166067Y-89486200D02*
X155873533Y-89486200D01*
X141585733Y-81536000D02*
X141878267Y-81536000D01*
X141585733Y-80516000D02*
X141878267Y-80516000D01*
X131109767Y-111250000D02*
X130817233Y-111250000D01*
X131109767Y-112270000D02*
X130817233Y-112270000D01*
X123115800Y-107688767D02*
X123115800Y-107396233D01*
X122095800Y-107688767D02*
X122095800Y-107396233D01*
X123192000Y-92501767D02*
X123192000Y-92209233D01*
X122172000Y-92501767D02*
X122172000Y-92209233D01*
X123700000Y-77007767D02*
X123700000Y-76715233D01*
X122680000Y-77007767D02*
X122680000Y-76715233D01*
X129030000Y-114762233D02*
X129030000Y-115054767D01*
X130050000Y-114762233D02*
X130050000Y-115054767D01*
X117092000Y-107396233D02*
X117092000Y-107688767D01*
X118112000Y-107396233D02*
X118112000Y-107688767D01*
X116838000Y-92156233D02*
X116838000Y-92448767D01*
X117858000Y-92156233D02*
X117858000Y-92448767D01*
X126744000Y-114762233D02*
X126744000Y-115054767D01*
X127764000Y-114762233D02*
X127764000Y-115054767D01*
X164637767Y-80262000D02*
X164345233Y-80262000D01*
X164637767Y-81282000D02*
X164345233Y-81282000D01*
X114810000Y-115054767D02*
X114810000Y-114762233D01*
X113790000Y-115054767D02*
X113790000Y-114762233D01*
X114810000Y-99814767D02*
X114810000Y-99522233D01*
X113790000Y-99814767D02*
X113790000Y-99522233D01*
X114810000Y-84574767D02*
X114810000Y-84282233D01*
X113790000Y-84574767D02*
X113790000Y-84282233D01*
X111758000Y-116794233D02*
X111758000Y-117086767D01*
X112778000Y-116794233D02*
X112778000Y-117086767D01*
X109218000Y-110444233D02*
X109218000Y-110736767D01*
X110238000Y-110444233D02*
X110238000Y-110736767D01*
X110027767Y-105154000D02*
X109735233Y-105154000D01*
X110027767Y-106174000D02*
X109735233Y-106174000D01*
X111758000Y-101554233D02*
X111758000Y-101846767D01*
X112778000Y-101554233D02*
X112778000Y-101846767D01*
X109218000Y-95204233D02*
X109218000Y-95496767D01*
X110238000Y-95204233D02*
X110238000Y-95496767D01*
X110027767Y-89914000D02*
X109735233Y-89914000D01*
X110027767Y-90934000D02*
X109735233Y-90934000D01*
X111758000Y-86314233D02*
X111758000Y-86606767D01*
X112778000Y-86314233D02*
X112778000Y-86606767D01*
X109218000Y-79964233D02*
X109218000Y-80256767D01*
X110238000Y-79964233D02*
X110238000Y-80256767D01*
X110027767Y-74674000D02*
X109735233Y-74674000D01*
X110027767Y-75694000D02*
X109735233Y-75694000D01*
X107186000Y-110444233D02*
X107186000Y-110736767D01*
X108206000Y-110444233D02*
X108206000Y-110736767D01*
X107186000Y-95204233D02*
X107186000Y-95496767D01*
X108206000Y-95204233D02*
X108206000Y-95496767D01*
X107186000Y-79964233D02*
X107186000Y-80256767D01*
X108206000Y-79964233D02*
X108206000Y-80256767D01*
X142238000Y-114762233D02*
X142238000Y-115054767D01*
X143258000Y-114762233D02*
X143258000Y-115054767D01*
X144524000Y-114762233D02*
X144524000Y-115054767D01*
X145544000Y-114762233D02*
X145544000Y-115054767D01*
X115630000Y-125790000D02*
X114300000Y-125790000D01*
X115630000Y-124460000D02*
X115630000Y-125790000D01*
X115630000Y-123190000D02*
X112970000Y-123190000D01*
X112970000Y-123190000D02*
X112970000Y-120590000D01*
X115630000Y-123190000D02*
X115630000Y-120590000D01*
X115630000Y-120590000D02*
X112970000Y-120590000D01*
X168850000Y-67250000D02*
X170180000Y-67250000D01*
X168850000Y-68580000D02*
X168850000Y-67250000D01*
X168850000Y-69850000D02*
X171510000Y-69850000D01*
X171510000Y-69850000D02*
X171510000Y-72450000D01*
X168850000Y-69850000D02*
X168850000Y-72450000D01*
X168850000Y-72450000D02*
X171510000Y-72450000D01*
X181550000Y-90110000D02*
X182880000Y-90110000D01*
X181550000Y-91440000D02*
X181550000Y-90110000D01*
X181550000Y-92710000D02*
X184210000Y-92710000D01*
X184210000Y-92710000D02*
X184210000Y-100390000D01*
X181550000Y-92710000D02*
X181550000Y-100390000D01*
X181550000Y-100390000D02*
X184210000Y-100390000D01*
X129352000Y-82230000D02*
X129352000Y-80330000D01*
X131252000Y-82230000D02*
X129352000Y-82230000D01*
X131252000Y-80330000D02*
X131252000Y-82230000D01*
X129352000Y-80330000D02*
X131252000Y-80330000D01*
X126304000Y-82230000D02*
X126304000Y-80330000D01*
X128204000Y-82230000D02*
X126304000Y-82230000D01*
X128204000Y-80330000D02*
X128204000Y-82230000D01*
X126304000Y-80330000D02*
X128204000Y-80330000D01*
X149164000Y-77404000D02*
X149164000Y-75504000D01*
X151064000Y-77404000D02*
X149164000Y-77404000D01*
X151064000Y-75504000D02*
X151064000Y-77404000D01*
X149164000Y-75504000D02*
X151064000Y-75504000D01*
X132400000Y-82230000D02*
X132400000Y-80330000D01*
X134300000Y-82230000D02*
X132400000Y-82230000D01*
X134300000Y-80330000D02*
X134300000Y-82230000D01*
X132400000Y-80330000D02*
X134300000Y-80330000D01*
X152466000Y-77404000D02*
X152466000Y-75504000D01*
X154366000Y-77404000D02*
X152466000Y-77404000D01*
X154366000Y-75504000D02*
X154366000Y-77404000D01*
X152466000Y-75504000D02*
X154366000Y-75504000D01*
X127955000Y-104582000D02*
X127955000Y-102682000D01*
X129855000Y-104582000D02*
X127955000Y-104582000D01*
X129855000Y-102682000D02*
X129855000Y-104582000D01*
X127955000Y-102682000D02*
X129855000Y-102682000D01*
X127955000Y-101788000D02*
X127955000Y-99888000D01*
X129855000Y-101788000D02*
X127955000Y-101788000D01*
X129855000Y-99888000D02*
X129855000Y-101788000D01*
X127955000Y-99888000D02*
X129855000Y-99888000D01*
X127955000Y-96200000D02*
X127955000Y-94300000D01*
X129855000Y-96200000D02*
X127955000Y-96200000D01*
X129855000Y-94300000D02*
X129855000Y-96200000D01*
X127955000Y-94300000D02*
X129855000Y-94300000D01*
X127955000Y-98994000D02*
X127955000Y-97094000D01*
X129855000Y-98994000D02*
X127955000Y-98994000D01*
X129855000Y-97094000D02*
X129855000Y-98994000D01*
X127955000Y-97094000D02*
X129855000Y-97094000D01*
X127955000Y-93406000D02*
X127955000Y-91506000D01*
X129855000Y-93406000D02*
X127955000Y-93406000D01*
X129855000Y-91506000D02*
X129855000Y-93406000D01*
X127955000Y-91506000D02*
X129855000Y-91506000D01*
X113048000Y-105674000D02*
X114508000Y-105674000D01*
X113048000Y-108834000D02*
X115208000Y-108834000D01*
X113048000Y-108834000D02*
X113048000Y-107904000D01*
X113048000Y-105674000D02*
X113048000Y-106604000D01*
X113048000Y-90434000D02*
X114508000Y-90434000D01*
X113048000Y-93594000D02*
X115208000Y-93594000D01*
X113048000Y-93594000D02*
X113048000Y-92664000D01*
X113048000Y-90434000D02*
X113048000Y-91364000D01*
X113048000Y-75194000D02*
X114508000Y-75194000D01*
X113048000Y-78354000D02*
X115208000Y-78354000D01*
X113048000Y-78354000D02*
X113048000Y-77424000D01*
X113048000Y-75194000D02*
X113048000Y-76124000D01*
X132332000Y-91127733D02*
X132332000Y-91470267D01*
X133352000Y-91127733D02*
X133352000Y-91470267D01*
X132900267Y-113536000D02*
X132557733Y-113536000D01*
X132900267Y-114556000D02*
X132557733Y-114556000D01*
X109697733Y-108206000D02*
X110040267Y-108206000D01*
X109697733Y-107186000D02*
X110040267Y-107186000D01*
X109697733Y-92966000D02*
X110040267Y-92966000D01*
X109697733Y-91946000D02*
X110040267Y-91946000D01*
X109697733Y-77726000D02*
X110040267Y-77726000D01*
X109697733Y-76706000D02*
X110040267Y-76706000D01*
X184210000Y-85150000D02*
X182880000Y-85150000D01*
X184210000Y-83820000D02*
X184210000Y-85150000D01*
X184210000Y-82550000D02*
X181550000Y-82550000D01*
X181550000Y-82550000D02*
X181550000Y-74870000D01*
X184210000Y-82550000D02*
X184210000Y-74870000D01*
X184210000Y-74870000D02*
X181550000Y-74870000D01*
X110430000Y-69910000D02*
X110430000Y-68580000D01*
X111760000Y-69910000D02*
X110430000Y-69910000D01*
X113030000Y-69910000D02*
X113030000Y-67250000D01*
X113030000Y-67250000D02*
X118170000Y-67250000D01*
X113030000Y-69910000D02*
X118170000Y-69910000D01*
X118170000Y-69910000D02*
X118170000Y-67250000D01*
X135830000Y-69910000D02*
X135830000Y-68580000D01*
X137160000Y-69910000D02*
X135830000Y-69910000D01*
X138430000Y-69910000D02*
X138430000Y-67250000D01*
X138430000Y-67250000D02*
X143570000Y-67250000D01*
X138430000Y-69910000D02*
X143570000Y-69910000D01*
X143570000Y-69910000D02*
X143570000Y-67250000D01*
X145990000Y-69910000D02*
X145990000Y-68580000D01*
X147320000Y-69910000D02*
X145990000Y-69910000D01*
X148590000Y-69910000D02*
X148590000Y-67250000D01*
X148590000Y-67250000D02*
X151190000Y-67250000D01*
X148590000Y-69910000D02*
X151190000Y-69910000D01*
X151190000Y-69910000D02*
X151190000Y-67250000D01*
X173930000Y-67250000D02*
X175260000Y-67250000D01*
X173930000Y-68580000D02*
X173930000Y-67250000D01*
X173930000Y-69850000D02*
X176590000Y-69850000D01*
X176590000Y-69850000D02*
X176590000Y-72450000D01*
X173930000Y-69850000D02*
X173930000Y-72450000D01*
X173930000Y-72450000D02*
X176590000Y-72450000D01*
X105470000Y-118170000D02*
X104140000Y-118170000D01*
X105470000Y-116840000D02*
X105470000Y-118170000D01*
X105470000Y-115570000D02*
X102810000Y-115570000D01*
X102810000Y-115570000D02*
X102810000Y-105350000D01*
X105470000Y-115570000D02*
X105470000Y-105350000D01*
X105470000Y-105350000D02*
X102810000Y-105350000D01*
X105470000Y-102930000D02*
X104140000Y-102930000D01*
X105470000Y-101600000D02*
X105470000Y-102930000D01*
X105470000Y-100330000D02*
X102810000Y-100330000D01*
X102810000Y-100330000D02*
X102810000Y-90110000D01*
X105470000Y-100330000D02*
X105470000Y-90110000D01*
X105470000Y-90110000D02*
X102810000Y-90110000D01*
X105470000Y-87690000D02*
X104140000Y-87690000D01*
X105470000Y-86360000D02*
X105470000Y-87690000D01*
X105470000Y-85090000D02*
X102810000Y-85090000D01*
X102810000Y-85090000D02*
X102810000Y-74870000D01*
X105470000Y-85090000D02*
X105470000Y-74870000D01*
X105470000Y-74870000D02*
X102810000Y-74870000D01*
X156106000Y-105208400D02*
X153646000Y-105208400D01*
X156106000Y-106678400D02*
X156106000Y-105208400D01*
X153646000Y-106678400D02*
X156106000Y-106678400D01*
X156106000Y-103201800D02*
X153646000Y-103201800D01*
X156106000Y-104671800D02*
X156106000Y-103201800D01*
X153646000Y-104671800D02*
X156106000Y-104671800D01*
X156106000Y-101169800D02*
X153646000Y-101169800D01*
X156106000Y-102639800D02*
X156106000Y-101169800D01*
X153646000Y-102639800D02*
X156106000Y-102639800D01*
X156080600Y-99137800D02*
X153620600Y-99137800D01*
X156080600Y-100607800D02*
X156080600Y-99137800D01*
X153620600Y-100607800D02*
X156080600Y-100607800D01*
X173844000Y-81250000D02*
X172584000Y-81250000D01*
X167024000Y-81250000D02*
X168284000Y-81250000D01*
X173844000Y-85010000D02*
X173844000Y-81250000D01*
X167024000Y-87260000D02*
X167024000Y-81250000D01*
X139162000Y-102712000D02*
X139162000Y-103662000D01*
X139162000Y-103662000D02*
X140112000Y-103662000D01*
X139162000Y-94392000D02*
X139162000Y-93442000D01*
X139162000Y-93442000D02*
X140112000Y-93442000D01*
X149382000Y-102712000D02*
X149382000Y-103662000D01*
X149382000Y-103662000D02*
X148432000Y-103662000D01*
X149382000Y-94392000D02*
X149382000Y-93442000D01*
X149382000Y-93442000D02*
X148432000Y-93442000D01*
X148432000Y-93442000D02*
X148432000Y-92102000D01*
D10*
X158551666Y-83272380D02*
X158551666Y-83986666D01*
X158504047Y-84129523D01*
X158408809Y-84224761D01*
X158265952Y-84272380D01*
X158170714Y-84272380D01*
X159027857Y-84272380D02*
X159027857Y-83272380D01*
X159408809Y-83272380D01*
X159504047Y-83320000D01*
X159551666Y-83367619D01*
X159599285Y-83462857D01*
X159599285Y-83605714D01*
X159551666Y-83700952D01*
X159504047Y-83748571D01*
X159408809Y-83796190D01*
X159027857Y-83796190D01*
X159980238Y-83367619D02*
X160027857Y-83320000D01*
X160123095Y-83272380D01*
X160361190Y-83272380D01*
X160456428Y-83320000D01*
X160504047Y-83367619D01*
X160551666Y-83462857D01*
X160551666Y-83558095D01*
X160504047Y-83700952D01*
X159932619Y-84272380D01*
X160551666Y-84272380D01*
X153979666Y-109688380D02*
X153979666Y-110402666D01*
X153932047Y-110545523D01*
X153836809Y-110640761D01*
X153693952Y-110688380D01*
X153598714Y-110688380D01*
X154455857Y-110688380D02*
X154455857Y-109688380D01*
X154836809Y-109688380D01*
X154932047Y-109736000D01*
X154979666Y-109783619D01*
X155027285Y-109878857D01*
X155027285Y-110021714D01*
X154979666Y-110116952D01*
X154932047Y-110164571D01*
X154836809Y-110212190D01*
X154455857Y-110212190D01*
X155979666Y-110688380D02*
X155408238Y-110688380D01*
X155693952Y-110688380D02*
X155693952Y-109688380D01*
X155598714Y-109831238D01*
X155503476Y-109926476D01*
X155408238Y-109974095D01*
X169093666Y-112830571D02*
X168760333Y-112830571D01*
X168760333Y-113354380D02*
X168760333Y-112354380D01*
X169236523Y-112354380D01*
X170141285Y-113354380D02*
X169569857Y-113354380D01*
X169855571Y-113354380D02*
X169855571Y-112354380D01*
X169760333Y-112497238D01*
X169665095Y-112592476D01*
X169569857Y-112640095D01*
M02*
