G04 #@! TF.GenerationSoftware,KiCad,Pcbnew,(5.1.9)-1*
G04 #@! TF.CreationDate,2022-04-19T13:51:38+02:00*
G04 #@! TF.ProjectId,thrust_v2,74687275-7374-45f7-9632-2e6b69636164,2.0.3*
G04 #@! TF.SameCoordinates,Original*
G04 #@! TF.FileFunction,Paste,Top*
G04 #@! TF.FilePolarity,Positive*
%FSLAX46Y46*%
G04 Gerber Fmt 4.6, Leading zero omitted, Abs format (unit mm)*
G04 Created by KiCad (PCBNEW (5.1.9)-1) date 2022-04-19 13:51:38*
%MOMM*%
%LPD*%
G01*
G04 APERTURE LIST*
%ADD10R,2.500000X1.800000*%
%ADD11R,1.800000X2.500000*%
%ADD12R,1.900000X1.300000*%
%ADD13R,0.550000X1.700000*%
%ADD14R,1.000000X0.900000*%
%ADD15R,0.450000X1.000000*%
%ADD16R,0.600000X1.000000*%
%ADD17R,0.900000X0.800000*%
%ADD18R,3.800000X2.000000*%
%ADD19R,1.500000X2.000000*%
G04 APERTURE END LIST*
G36*
G01*
X140196200Y-115746000D02*
X140595800Y-115746000D01*
G75*
G02*
X140696000Y-115846200I0J-100200D01*
G01*
X140696000Y-116845800D01*
G75*
G02*
X140595800Y-116946000I-100200J0D01*
G01*
X140196200Y-116946000D01*
G75*
G02*
X140096000Y-116845800I0J100200D01*
G01*
X140096000Y-115846200D01*
G75*
G02*
X140196200Y-115746000I100200J0D01*
G01*
G37*
G36*
G01*
X138296200Y-115746000D02*
X138695800Y-115746000D01*
G75*
G02*
X138796000Y-115846200I0J-100200D01*
G01*
X138796000Y-116845800D01*
G75*
G02*
X138695800Y-116946000I-100200J0D01*
G01*
X138296200Y-116946000D01*
G75*
G02*
X138196000Y-116845800I0J100200D01*
G01*
X138196000Y-115846200D01*
G75*
G02*
X138296200Y-115746000I100200J0D01*
G01*
G37*
G36*
G01*
X138296200Y-113446000D02*
X138695800Y-113446000D01*
G75*
G02*
X138796000Y-113546200I0J-100200D01*
G01*
X138796000Y-114545800D01*
G75*
G02*
X138695800Y-114646000I-100200J0D01*
G01*
X138296200Y-114646000D01*
G75*
G02*
X138196000Y-114545800I0J100200D01*
G01*
X138196000Y-113546200D01*
G75*
G02*
X138296200Y-113446000I100200J0D01*
G01*
G37*
G36*
G01*
X139246200Y-113446000D02*
X139645800Y-113446000D01*
G75*
G02*
X139746000Y-113546200I0J-100200D01*
G01*
X139746000Y-114545800D01*
G75*
G02*
X139645800Y-114646000I-100200J0D01*
G01*
X139246200Y-114646000D01*
G75*
G02*
X139146000Y-114545800I0J100200D01*
G01*
X139146000Y-113546200D01*
G75*
G02*
X139246200Y-113446000I100200J0D01*
G01*
G37*
G36*
G01*
X140196200Y-113446000D02*
X140595800Y-113446000D01*
G75*
G02*
X140696000Y-113546200I0J-100200D01*
G01*
X140696000Y-114545800D01*
G75*
G02*
X140595800Y-114646000I-100200J0D01*
G01*
X140196200Y-114646000D01*
G75*
G02*
X140096000Y-114545800I0J100200D01*
G01*
X140096000Y-113546200D01*
G75*
G02*
X140196200Y-113446000I100200J0D01*
G01*
G37*
G36*
G01*
X130737200Y-108965000D02*
X131136800Y-108965000D01*
G75*
G02*
X131237000Y-109065200I0J-100200D01*
G01*
X131237000Y-110064800D01*
G75*
G02*
X131136800Y-110165000I-100200J0D01*
G01*
X130737200Y-110165000D01*
G75*
G02*
X130637000Y-110064800I0J100200D01*
G01*
X130637000Y-109065200D01*
G75*
G02*
X130737200Y-108965000I100200J0D01*
G01*
G37*
G36*
G01*
X131687200Y-108965000D02*
X132086800Y-108965000D01*
G75*
G02*
X132187000Y-109065200I0J-100200D01*
G01*
X132187000Y-110064800D01*
G75*
G02*
X132086800Y-110165000I-100200J0D01*
G01*
X131687200Y-110165000D01*
G75*
G02*
X131587000Y-110064800I0J100200D01*
G01*
X131587000Y-109065200D01*
G75*
G02*
X131687200Y-108965000I100200J0D01*
G01*
G37*
G36*
G01*
X129787200Y-108965000D02*
X130186800Y-108965000D01*
G75*
G02*
X130287000Y-109065200I0J-100200D01*
G01*
X130287000Y-110064800D01*
G75*
G02*
X130186800Y-110165000I-100200J0D01*
G01*
X129787200Y-110165000D01*
G75*
G02*
X129687000Y-110064800I0J100200D01*
G01*
X129687000Y-109065200D01*
G75*
G02*
X129787200Y-108965000I100200J0D01*
G01*
G37*
G36*
G01*
X129787200Y-106665000D02*
X130186800Y-106665000D01*
G75*
G02*
X130287000Y-106765200I0J-100200D01*
G01*
X130287000Y-107764800D01*
G75*
G02*
X130186800Y-107865000I-100200J0D01*
G01*
X129787200Y-107865000D01*
G75*
G02*
X129687000Y-107764800I0J100200D01*
G01*
X129687000Y-106765200D01*
G75*
G02*
X129787200Y-106665000I100200J0D01*
G01*
G37*
G36*
G01*
X130737200Y-106665000D02*
X131136800Y-106665000D01*
G75*
G02*
X131237000Y-106765200I0J-100200D01*
G01*
X131237000Y-107764800D01*
G75*
G02*
X131136800Y-107865000I-100200J0D01*
G01*
X130737200Y-107865000D01*
G75*
G02*
X130637000Y-107764800I0J100200D01*
G01*
X130637000Y-106765200D01*
G75*
G02*
X130737200Y-106665000I100200J0D01*
G01*
G37*
G36*
G01*
X131687200Y-106665000D02*
X132086800Y-106665000D01*
G75*
G02*
X132187000Y-106765200I0J-100200D01*
G01*
X132187000Y-107764800D01*
G75*
G02*
X132086800Y-107865000I-100200J0D01*
G01*
X131687200Y-107865000D01*
G75*
G02*
X131587000Y-107764800I0J100200D01*
G01*
X131587000Y-106765200D01*
G75*
G02*
X131687200Y-106665000I100200J0D01*
G01*
G37*
G36*
G01*
X157352000Y-114906200D02*
X157352000Y-114506600D01*
G75*
G02*
X157452200Y-114406400I100200J0D01*
G01*
X158451800Y-114406400D01*
G75*
G02*
X158552000Y-114506600I0J-100200D01*
G01*
X158552000Y-114906200D01*
G75*
G02*
X158451800Y-115006400I-100200J0D01*
G01*
X157452200Y-115006400D01*
G75*
G02*
X157352000Y-114906200I0J100200D01*
G01*
G37*
G36*
G01*
X157352000Y-113956200D02*
X157352000Y-113556600D01*
G75*
G02*
X157452200Y-113456400I100200J0D01*
G01*
X158451800Y-113456400D01*
G75*
G02*
X158552000Y-113556600I0J-100200D01*
G01*
X158552000Y-113956200D01*
G75*
G02*
X158451800Y-114056400I-100200J0D01*
G01*
X157452200Y-114056400D01*
G75*
G02*
X157352000Y-113956200I0J100200D01*
G01*
G37*
G36*
G01*
X157352000Y-115856200D02*
X157352000Y-115456600D01*
G75*
G02*
X157452200Y-115356400I100200J0D01*
G01*
X158451800Y-115356400D01*
G75*
G02*
X158552000Y-115456600I0J-100200D01*
G01*
X158552000Y-115856200D01*
G75*
G02*
X158451800Y-115956400I-100200J0D01*
G01*
X157452200Y-115956400D01*
G75*
G02*
X157352000Y-115856200I0J100200D01*
G01*
G37*
G36*
G01*
X155052000Y-115856200D02*
X155052000Y-115456600D01*
G75*
G02*
X155152200Y-115356400I100200J0D01*
G01*
X156151800Y-115356400D01*
G75*
G02*
X156252000Y-115456600I0J-100200D01*
G01*
X156252000Y-115856200D01*
G75*
G02*
X156151800Y-115956400I-100200J0D01*
G01*
X155152200Y-115956400D01*
G75*
G02*
X155052000Y-115856200I0J100200D01*
G01*
G37*
G36*
G01*
X155052000Y-114906200D02*
X155052000Y-114506600D01*
G75*
G02*
X155152200Y-114406400I100200J0D01*
G01*
X156151800Y-114406400D01*
G75*
G02*
X156252000Y-114506600I0J-100200D01*
G01*
X156252000Y-114906200D01*
G75*
G02*
X156151800Y-115006400I-100200J0D01*
G01*
X155152200Y-115006400D01*
G75*
G02*
X155052000Y-114906200I0J100200D01*
G01*
G37*
G36*
G01*
X155052000Y-113956200D02*
X155052000Y-113556600D01*
G75*
G02*
X155152200Y-113456400I100200J0D01*
G01*
X156151800Y-113456400D01*
G75*
G02*
X156252000Y-113556600I0J-100200D01*
G01*
X156252000Y-113956200D01*
G75*
G02*
X156151800Y-114056400I-100200J0D01*
G01*
X155152200Y-114056400D01*
G75*
G02*
X155052000Y-113956200I0J100200D01*
G01*
G37*
G36*
G01*
X175628000Y-112742700D02*
X175628000Y-110777300D01*
G75*
G02*
X175945300Y-110460000I317300J0D01*
G01*
X177210700Y-110460000D01*
G75*
G02*
X177528000Y-110777300I0J-317300D01*
G01*
X177528000Y-112742700D01*
G75*
G02*
X177210700Y-113060000I-317300J0D01*
G01*
X175945300Y-113060000D01*
G75*
G02*
X175628000Y-112742700I0J317300D01*
G01*
G37*
G36*
G01*
X172378000Y-112742700D02*
X172378000Y-110777300D01*
G75*
G02*
X172695300Y-110460000I317300J0D01*
G01*
X173960700Y-110460000D01*
G75*
G02*
X174278000Y-110777300I0J-317300D01*
G01*
X174278000Y-112742700D01*
G75*
G02*
X173960700Y-113060000I-317300J0D01*
G01*
X172695300Y-113060000D01*
G75*
G02*
X172378000Y-112742700I0J317300D01*
G01*
G37*
G36*
G01*
X163395500Y-76233300D02*
X163395500Y-78198700D01*
G75*
G02*
X163078200Y-78516000I-317300J0D01*
G01*
X161812800Y-78516000D01*
G75*
G02*
X161495500Y-78198700I0J317300D01*
G01*
X161495500Y-76233300D01*
G75*
G02*
X161812800Y-75916000I317300J0D01*
G01*
X163078200Y-75916000D01*
G75*
G02*
X163395500Y-76233300I0J-317300D01*
G01*
G37*
G36*
G01*
X166645500Y-76233300D02*
X166645500Y-78198700D01*
G75*
G02*
X166328200Y-78516000I-317300J0D01*
G01*
X165062800Y-78516000D01*
G75*
G02*
X164745500Y-78198700I0J317300D01*
G01*
X164745500Y-76233300D01*
G75*
G02*
X165062800Y-75916000I317300J0D01*
G01*
X166328200Y-75916000D01*
G75*
G02*
X166645500Y-76233300I0J-317300D01*
G01*
G37*
G36*
G01*
X174785300Y-92724000D02*
X176750700Y-92724000D01*
G75*
G02*
X177068000Y-93041300I0J-317300D01*
G01*
X177068000Y-94306700D01*
G75*
G02*
X176750700Y-94624000I-317300J0D01*
G01*
X174785300Y-94624000D01*
G75*
G02*
X174468000Y-94306700I0J317300D01*
G01*
X174468000Y-93041300D01*
G75*
G02*
X174785300Y-92724000I317300J0D01*
G01*
G37*
G36*
G01*
X174785300Y-89474000D02*
X176750700Y-89474000D01*
G75*
G02*
X177068000Y-89791300I0J-317300D01*
G01*
X177068000Y-91056700D01*
G75*
G02*
X176750700Y-91374000I-317300J0D01*
G01*
X174785300Y-91374000D01*
G75*
G02*
X174468000Y-91056700I0J317300D01*
G01*
X174468000Y-89791300D01*
G75*
G02*
X174785300Y-89474000I317300J0D01*
G01*
G37*
D10*
X172720000Y-75184000D03*
X176720000Y-75184000D03*
X168688000Y-107442000D03*
X172688000Y-107442000D03*
D11*
X176530000Y-80296000D03*
X176530000Y-84296000D03*
G36*
G01*
X133837500Y-71898500D02*
X133837500Y-72373500D01*
G75*
G02*
X133600000Y-72611000I-237500J0D01*
G01*
X133100000Y-72611000D01*
G75*
G02*
X132862500Y-72373500I0J237500D01*
G01*
X132862500Y-71898500D01*
G75*
G02*
X133100000Y-71661000I237500J0D01*
G01*
X133600000Y-71661000D01*
G75*
G02*
X133837500Y-71898500I0J-237500D01*
G01*
G37*
G36*
G01*
X135662500Y-71898500D02*
X135662500Y-72373500D01*
G75*
G02*
X135425000Y-72611000I-237500J0D01*
G01*
X134925000Y-72611000D01*
G75*
G02*
X134687500Y-72373500I0J237500D01*
G01*
X134687500Y-71898500D01*
G75*
G02*
X134925000Y-71661000I237500J0D01*
G01*
X135425000Y-71661000D01*
G75*
G02*
X135662500Y-71898500I0J-237500D01*
G01*
G37*
G36*
G01*
X138704500Y-74405500D02*
X138704500Y-73930500D01*
G75*
G02*
X138942000Y-73693000I237500J0D01*
G01*
X139442000Y-73693000D01*
G75*
G02*
X139679500Y-73930500I0J-237500D01*
G01*
X139679500Y-74405500D01*
G75*
G02*
X139442000Y-74643000I-237500J0D01*
G01*
X138942000Y-74643000D01*
G75*
G02*
X138704500Y-74405500I0J237500D01*
G01*
G37*
G36*
G01*
X136879500Y-74405500D02*
X136879500Y-73930500D01*
G75*
G02*
X137117000Y-73693000I237500J0D01*
G01*
X137617000Y-73693000D01*
G75*
G02*
X137854500Y-73930500I0J-237500D01*
G01*
X137854500Y-74405500D01*
G75*
G02*
X137617000Y-74643000I-237500J0D01*
G01*
X137117000Y-74643000D01*
G75*
G02*
X136879500Y-74405500I0J237500D01*
G01*
G37*
G36*
G01*
X134590500Y-74405500D02*
X134590500Y-73930500D01*
G75*
G02*
X134828000Y-73693000I237500J0D01*
G01*
X135428000Y-73693000D01*
G75*
G02*
X135665500Y-73930500I0J-237500D01*
G01*
X135665500Y-74405500D01*
G75*
G02*
X135428000Y-74643000I-237500J0D01*
G01*
X134828000Y-74643000D01*
G75*
G02*
X134590500Y-74405500I0J237500D01*
G01*
G37*
G36*
G01*
X132865500Y-74405500D02*
X132865500Y-73930500D01*
G75*
G02*
X133103000Y-73693000I237500J0D01*
G01*
X133703000Y-73693000D01*
G75*
G02*
X133940500Y-73930500I0J-237500D01*
G01*
X133940500Y-74405500D01*
G75*
G02*
X133703000Y-74643000I-237500J0D01*
G01*
X133103000Y-74643000D01*
G75*
G02*
X132865500Y-74405500I0J237500D01*
G01*
G37*
G36*
G01*
X138601500Y-72373500D02*
X138601500Y-71898500D01*
G75*
G02*
X138839000Y-71661000I237500J0D01*
G01*
X139439000Y-71661000D01*
G75*
G02*
X139676500Y-71898500I0J-237500D01*
G01*
X139676500Y-72373500D01*
G75*
G02*
X139439000Y-72611000I-237500J0D01*
G01*
X138839000Y-72611000D01*
G75*
G02*
X138601500Y-72373500I0J237500D01*
G01*
G37*
G36*
G01*
X136876500Y-72373500D02*
X136876500Y-71898500D01*
G75*
G02*
X137114000Y-71661000I237500J0D01*
G01*
X137714000Y-71661000D01*
G75*
G02*
X137951500Y-71898500I0J-237500D01*
G01*
X137951500Y-72373500D01*
G75*
G02*
X137714000Y-72611000I-237500J0D01*
G01*
X137114000Y-72611000D01*
G75*
G02*
X136876500Y-72373500I0J237500D01*
G01*
G37*
G36*
G01*
X134730500Y-107929500D02*
X134255500Y-107929500D01*
G75*
G02*
X134018000Y-107692000I0J237500D01*
G01*
X134018000Y-107192000D01*
G75*
G02*
X134255500Y-106954500I237500J0D01*
G01*
X134730500Y-106954500D01*
G75*
G02*
X134968000Y-107192000I0J-237500D01*
G01*
X134968000Y-107692000D01*
G75*
G02*
X134730500Y-107929500I-237500J0D01*
G01*
G37*
G36*
G01*
X134730500Y-109754500D02*
X134255500Y-109754500D01*
G75*
G02*
X134018000Y-109517000I0J237500D01*
G01*
X134018000Y-109017000D01*
G75*
G02*
X134255500Y-108779500I237500J0D01*
G01*
X134730500Y-108779500D01*
G75*
G02*
X134968000Y-109017000I0J-237500D01*
G01*
X134968000Y-109517000D01*
G75*
G02*
X134730500Y-109754500I-237500J0D01*
G01*
G37*
G36*
G01*
X136762500Y-107929500D02*
X136287500Y-107929500D01*
G75*
G02*
X136050000Y-107692000I0J237500D01*
G01*
X136050000Y-107192000D01*
G75*
G02*
X136287500Y-106954500I237500J0D01*
G01*
X136762500Y-106954500D01*
G75*
G02*
X137000000Y-107192000I0J-237500D01*
G01*
X137000000Y-107692000D01*
G75*
G02*
X136762500Y-107929500I-237500J0D01*
G01*
G37*
G36*
G01*
X136762500Y-109754500D02*
X136287500Y-109754500D01*
G75*
G02*
X136050000Y-109517000I0J237500D01*
G01*
X136050000Y-109017000D01*
G75*
G02*
X136287500Y-108779500I237500J0D01*
G01*
X136762500Y-108779500D01*
G75*
G02*
X137000000Y-109017000I0J-237500D01*
G01*
X137000000Y-109517000D01*
G75*
G02*
X136762500Y-109754500I-237500J0D01*
G01*
G37*
G36*
G01*
X135057000Y-111522500D02*
X135057000Y-111997500D01*
G75*
G02*
X134819500Y-112235000I-237500J0D01*
G01*
X134219500Y-112235000D01*
G75*
G02*
X133982000Y-111997500I0J237500D01*
G01*
X133982000Y-111522500D01*
G75*
G02*
X134219500Y-111285000I237500J0D01*
G01*
X134819500Y-111285000D01*
G75*
G02*
X135057000Y-111522500I0J-237500D01*
G01*
G37*
G36*
G01*
X136782000Y-111522500D02*
X136782000Y-111997500D01*
G75*
G02*
X136544500Y-112235000I-237500J0D01*
G01*
X135944500Y-112235000D01*
G75*
G02*
X135707000Y-111997500I0J237500D01*
G01*
X135707000Y-111522500D01*
G75*
G02*
X135944500Y-111285000I237500J0D01*
G01*
X136544500Y-111285000D01*
G75*
G02*
X136782000Y-111522500I0J-237500D01*
G01*
G37*
D12*
X152704800Y-80228200D03*
X152704800Y-85928200D03*
X155904800Y-80228200D03*
X155904800Y-85928200D03*
D13*
X169555000Y-102108000D03*
D14*
X170180000Y-104158000D03*
X171780000Y-104158000D03*
X170180000Y-100058000D03*
X171780000Y-100058000D03*
D13*
X163713000Y-102108000D03*
D14*
X164338000Y-104158000D03*
X165938000Y-104158000D03*
X164338000Y-100058000D03*
X165938000Y-100058000D03*
D15*
X141956000Y-121285000D03*
X136906000Y-121285000D03*
D16*
X141281000Y-123485000D03*
X141281000Y-119085000D03*
X137581000Y-119085000D03*
X137581000Y-123485000D03*
G36*
G01*
X121602000Y-110386000D02*
X121602000Y-110086000D01*
G75*
G02*
X121752000Y-109936000I150000J0D01*
G01*
X123402000Y-109936000D01*
G75*
G02*
X123552000Y-110086000I0J-150000D01*
G01*
X123552000Y-110386000D01*
G75*
G02*
X123402000Y-110536000I-150000J0D01*
G01*
X121752000Y-110536000D01*
G75*
G02*
X121602000Y-110386000I0J150000D01*
G01*
G37*
G36*
G01*
X121602000Y-111656000D02*
X121602000Y-111356000D01*
G75*
G02*
X121752000Y-111206000I150000J0D01*
G01*
X123402000Y-111206000D01*
G75*
G02*
X123552000Y-111356000I0J-150000D01*
G01*
X123552000Y-111656000D01*
G75*
G02*
X123402000Y-111806000I-150000J0D01*
G01*
X121752000Y-111806000D01*
G75*
G02*
X121602000Y-111656000I0J150000D01*
G01*
G37*
G36*
G01*
X121602000Y-112926000D02*
X121602000Y-112626000D01*
G75*
G02*
X121752000Y-112476000I150000J0D01*
G01*
X123402000Y-112476000D01*
G75*
G02*
X123552000Y-112626000I0J-150000D01*
G01*
X123552000Y-112926000D01*
G75*
G02*
X123402000Y-113076000I-150000J0D01*
G01*
X121752000Y-113076000D01*
G75*
G02*
X121602000Y-112926000I0J150000D01*
G01*
G37*
G36*
G01*
X121602000Y-114196000D02*
X121602000Y-113896000D01*
G75*
G02*
X121752000Y-113746000I150000J0D01*
G01*
X123402000Y-113746000D01*
G75*
G02*
X123552000Y-113896000I0J-150000D01*
G01*
X123552000Y-114196000D01*
G75*
G02*
X123402000Y-114346000I-150000J0D01*
G01*
X121752000Y-114346000D01*
G75*
G02*
X121602000Y-114196000I0J150000D01*
G01*
G37*
G36*
G01*
X121602000Y-115466000D02*
X121602000Y-115166000D01*
G75*
G02*
X121752000Y-115016000I150000J0D01*
G01*
X123402000Y-115016000D01*
G75*
G02*
X123552000Y-115166000I0J-150000D01*
G01*
X123552000Y-115466000D01*
G75*
G02*
X123402000Y-115616000I-150000J0D01*
G01*
X121752000Y-115616000D01*
G75*
G02*
X121602000Y-115466000I0J150000D01*
G01*
G37*
G36*
G01*
X121602000Y-116736000D02*
X121602000Y-116436000D01*
G75*
G02*
X121752000Y-116286000I150000J0D01*
G01*
X123402000Y-116286000D01*
G75*
G02*
X123552000Y-116436000I0J-150000D01*
G01*
X123552000Y-116736000D01*
G75*
G02*
X123402000Y-116886000I-150000J0D01*
G01*
X121752000Y-116886000D01*
G75*
G02*
X121602000Y-116736000I0J150000D01*
G01*
G37*
G36*
G01*
X121602000Y-118006000D02*
X121602000Y-117706000D01*
G75*
G02*
X121752000Y-117556000I150000J0D01*
G01*
X123402000Y-117556000D01*
G75*
G02*
X123552000Y-117706000I0J-150000D01*
G01*
X123552000Y-118006000D01*
G75*
G02*
X123402000Y-118156000I-150000J0D01*
G01*
X121752000Y-118156000D01*
G75*
G02*
X121602000Y-118006000I0J150000D01*
G01*
G37*
G36*
G01*
X121602000Y-119276000D02*
X121602000Y-118976000D01*
G75*
G02*
X121752000Y-118826000I150000J0D01*
G01*
X123402000Y-118826000D01*
G75*
G02*
X123552000Y-118976000I0J-150000D01*
G01*
X123552000Y-119276000D01*
G75*
G02*
X123402000Y-119426000I-150000J0D01*
G01*
X121752000Y-119426000D01*
G75*
G02*
X121602000Y-119276000I0J150000D01*
G01*
G37*
G36*
G01*
X116652000Y-119276000D02*
X116652000Y-118976000D01*
G75*
G02*
X116802000Y-118826000I150000J0D01*
G01*
X118452000Y-118826000D01*
G75*
G02*
X118602000Y-118976000I0J-150000D01*
G01*
X118602000Y-119276000D01*
G75*
G02*
X118452000Y-119426000I-150000J0D01*
G01*
X116802000Y-119426000D01*
G75*
G02*
X116652000Y-119276000I0J150000D01*
G01*
G37*
G36*
G01*
X116652000Y-118006000D02*
X116652000Y-117706000D01*
G75*
G02*
X116802000Y-117556000I150000J0D01*
G01*
X118452000Y-117556000D01*
G75*
G02*
X118602000Y-117706000I0J-150000D01*
G01*
X118602000Y-118006000D01*
G75*
G02*
X118452000Y-118156000I-150000J0D01*
G01*
X116802000Y-118156000D01*
G75*
G02*
X116652000Y-118006000I0J150000D01*
G01*
G37*
G36*
G01*
X116652000Y-116736000D02*
X116652000Y-116436000D01*
G75*
G02*
X116802000Y-116286000I150000J0D01*
G01*
X118452000Y-116286000D01*
G75*
G02*
X118602000Y-116436000I0J-150000D01*
G01*
X118602000Y-116736000D01*
G75*
G02*
X118452000Y-116886000I-150000J0D01*
G01*
X116802000Y-116886000D01*
G75*
G02*
X116652000Y-116736000I0J150000D01*
G01*
G37*
G36*
G01*
X116652000Y-115466000D02*
X116652000Y-115166000D01*
G75*
G02*
X116802000Y-115016000I150000J0D01*
G01*
X118452000Y-115016000D01*
G75*
G02*
X118602000Y-115166000I0J-150000D01*
G01*
X118602000Y-115466000D01*
G75*
G02*
X118452000Y-115616000I-150000J0D01*
G01*
X116802000Y-115616000D01*
G75*
G02*
X116652000Y-115466000I0J150000D01*
G01*
G37*
G36*
G01*
X116652000Y-114196000D02*
X116652000Y-113896000D01*
G75*
G02*
X116802000Y-113746000I150000J0D01*
G01*
X118452000Y-113746000D01*
G75*
G02*
X118602000Y-113896000I0J-150000D01*
G01*
X118602000Y-114196000D01*
G75*
G02*
X118452000Y-114346000I-150000J0D01*
G01*
X116802000Y-114346000D01*
G75*
G02*
X116652000Y-114196000I0J150000D01*
G01*
G37*
G36*
G01*
X116652000Y-112926000D02*
X116652000Y-112626000D01*
G75*
G02*
X116802000Y-112476000I150000J0D01*
G01*
X118452000Y-112476000D01*
G75*
G02*
X118602000Y-112626000I0J-150000D01*
G01*
X118602000Y-112926000D01*
G75*
G02*
X118452000Y-113076000I-150000J0D01*
G01*
X116802000Y-113076000D01*
G75*
G02*
X116652000Y-112926000I0J150000D01*
G01*
G37*
G36*
G01*
X116652000Y-111656000D02*
X116652000Y-111356000D01*
G75*
G02*
X116802000Y-111206000I150000J0D01*
G01*
X118452000Y-111206000D01*
G75*
G02*
X118602000Y-111356000I0J-150000D01*
G01*
X118602000Y-111656000D01*
G75*
G02*
X118452000Y-111806000I-150000J0D01*
G01*
X116802000Y-111806000D01*
G75*
G02*
X116652000Y-111656000I0J150000D01*
G01*
G37*
G36*
G01*
X116652000Y-110386000D02*
X116652000Y-110086000D01*
G75*
G02*
X116802000Y-109936000I150000J0D01*
G01*
X118452000Y-109936000D01*
G75*
G02*
X118602000Y-110086000I0J-150000D01*
G01*
X118602000Y-110386000D01*
G75*
G02*
X118452000Y-110536000I-150000J0D01*
G01*
X116802000Y-110536000D01*
G75*
G02*
X116652000Y-110386000I0J150000D01*
G01*
G37*
G36*
G01*
X121602000Y-79906000D02*
X121602000Y-79606000D01*
G75*
G02*
X121752000Y-79456000I150000J0D01*
G01*
X123402000Y-79456000D01*
G75*
G02*
X123552000Y-79606000I0J-150000D01*
G01*
X123552000Y-79906000D01*
G75*
G02*
X123402000Y-80056000I-150000J0D01*
G01*
X121752000Y-80056000D01*
G75*
G02*
X121602000Y-79906000I0J150000D01*
G01*
G37*
G36*
G01*
X121602000Y-81176000D02*
X121602000Y-80876000D01*
G75*
G02*
X121752000Y-80726000I150000J0D01*
G01*
X123402000Y-80726000D01*
G75*
G02*
X123552000Y-80876000I0J-150000D01*
G01*
X123552000Y-81176000D01*
G75*
G02*
X123402000Y-81326000I-150000J0D01*
G01*
X121752000Y-81326000D01*
G75*
G02*
X121602000Y-81176000I0J150000D01*
G01*
G37*
G36*
G01*
X121602000Y-82446000D02*
X121602000Y-82146000D01*
G75*
G02*
X121752000Y-81996000I150000J0D01*
G01*
X123402000Y-81996000D01*
G75*
G02*
X123552000Y-82146000I0J-150000D01*
G01*
X123552000Y-82446000D01*
G75*
G02*
X123402000Y-82596000I-150000J0D01*
G01*
X121752000Y-82596000D01*
G75*
G02*
X121602000Y-82446000I0J150000D01*
G01*
G37*
G36*
G01*
X121602000Y-83716000D02*
X121602000Y-83416000D01*
G75*
G02*
X121752000Y-83266000I150000J0D01*
G01*
X123402000Y-83266000D01*
G75*
G02*
X123552000Y-83416000I0J-150000D01*
G01*
X123552000Y-83716000D01*
G75*
G02*
X123402000Y-83866000I-150000J0D01*
G01*
X121752000Y-83866000D01*
G75*
G02*
X121602000Y-83716000I0J150000D01*
G01*
G37*
G36*
G01*
X121602000Y-84986000D02*
X121602000Y-84686000D01*
G75*
G02*
X121752000Y-84536000I150000J0D01*
G01*
X123402000Y-84536000D01*
G75*
G02*
X123552000Y-84686000I0J-150000D01*
G01*
X123552000Y-84986000D01*
G75*
G02*
X123402000Y-85136000I-150000J0D01*
G01*
X121752000Y-85136000D01*
G75*
G02*
X121602000Y-84986000I0J150000D01*
G01*
G37*
G36*
G01*
X121602000Y-86256000D02*
X121602000Y-85956000D01*
G75*
G02*
X121752000Y-85806000I150000J0D01*
G01*
X123402000Y-85806000D01*
G75*
G02*
X123552000Y-85956000I0J-150000D01*
G01*
X123552000Y-86256000D01*
G75*
G02*
X123402000Y-86406000I-150000J0D01*
G01*
X121752000Y-86406000D01*
G75*
G02*
X121602000Y-86256000I0J150000D01*
G01*
G37*
G36*
G01*
X121602000Y-87526000D02*
X121602000Y-87226000D01*
G75*
G02*
X121752000Y-87076000I150000J0D01*
G01*
X123402000Y-87076000D01*
G75*
G02*
X123552000Y-87226000I0J-150000D01*
G01*
X123552000Y-87526000D01*
G75*
G02*
X123402000Y-87676000I-150000J0D01*
G01*
X121752000Y-87676000D01*
G75*
G02*
X121602000Y-87526000I0J150000D01*
G01*
G37*
G36*
G01*
X121602000Y-88796000D02*
X121602000Y-88496000D01*
G75*
G02*
X121752000Y-88346000I150000J0D01*
G01*
X123402000Y-88346000D01*
G75*
G02*
X123552000Y-88496000I0J-150000D01*
G01*
X123552000Y-88796000D01*
G75*
G02*
X123402000Y-88946000I-150000J0D01*
G01*
X121752000Y-88946000D01*
G75*
G02*
X121602000Y-88796000I0J150000D01*
G01*
G37*
G36*
G01*
X116652000Y-88796000D02*
X116652000Y-88496000D01*
G75*
G02*
X116802000Y-88346000I150000J0D01*
G01*
X118452000Y-88346000D01*
G75*
G02*
X118602000Y-88496000I0J-150000D01*
G01*
X118602000Y-88796000D01*
G75*
G02*
X118452000Y-88946000I-150000J0D01*
G01*
X116802000Y-88946000D01*
G75*
G02*
X116652000Y-88796000I0J150000D01*
G01*
G37*
G36*
G01*
X116652000Y-87526000D02*
X116652000Y-87226000D01*
G75*
G02*
X116802000Y-87076000I150000J0D01*
G01*
X118452000Y-87076000D01*
G75*
G02*
X118602000Y-87226000I0J-150000D01*
G01*
X118602000Y-87526000D01*
G75*
G02*
X118452000Y-87676000I-150000J0D01*
G01*
X116802000Y-87676000D01*
G75*
G02*
X116652000Y-87526000I0J150000D01*
G01*
G37*
G36*
G01*
X116652000Y-86256000D02*
X116652000Y-85956000D01*
G75*
G02*
X116802000Y-85806000I150000J0D01*
G01*
X118452000Y-85806000D01*
G75*
G02*
X118602000Y-85956000I0J-150000D01*
G01*
X118602000Y-86256000D01*
G75*
G02*
X118452000Y-86406000I-150000J0D01*
G01*
X116802000Y-86406000D01*
G75*
G02*
X116652000Y-86256000I0J150000D01*
G01*
G37*
G36*
G01*
X116652000Y-84986000D02*
X116652000Y-84686000D01*
G75*
G02*
X116802000Y-84536000I150000J0D01*
G01*
X118452000Y-84536000D01*
G75*
G02*
X118602000Y-84686000I0J-150000D01*
G01*
X118602000Y-84986000D01*
G75*
G02*
X118452000Y-85136000I-150000J0D01*
G01*
X116802000Y-85136000D01*
G75*
G02*
X116652000Y-84986000I0J150000D01*
G01*
G37*
G36*
G01*
X116652000Y-83716000D02*
X116652000Y-83416000D01*
G75*
G02*
X116802000Y-83266000I150000J0D01*
G01*
X118452000Y-83266000D01*
G75*
G02*
X118602000Y-83416000I0J-150000D01*
G01*
X118602000Y-83716000D01*
G75*
G02*
X118452000Y-83866000I-150000J0D01*
G01*
X116802000Y-83866000D01*
G75*
G02*
X116652000Y-83716000I0J150000D01*
G01*
G37*
G36*
G01*
X116652000Y-82446000D02*
X116652000Y-82146000D01*
G75*
G02*
X116802000Y-81996000I150000J0D01*
G01*
X118452000Y-81996000D01*
G75*
G02*
X118602000Y-82146000I0J-150000D01*
G01*
X118602000Y-82446000D01*
G75*
G02*
X118452000Y-82596000I-150000J0D01*
G01*
X116802000Y-82596000D01*
G75*
G02*
X116652000Y-82446000I0J150000D01*
G01*
G37*
G36*
G01*
X116652000Y-81176000D02*
X116652000Y-80876000D01*
G75*
G02*
X116802000Y-80726000I150000J0D01*
G01*
X118452000Y-80726000D01*
G75*
G02*
X118602000Y-80876000I0J-150000D01*
G01*
X118602000Y-81176000D01*
G75*
G02*
X118452000Y-81326000I-150000J0D01*
G01*
X116802000Y-81326000D01*
G75*
G02*
X116652000Y-81176000I0J150000D01*
G01*
G37*
G36*
G01*
X116652000Y-79906000D02*
X116652000Y-79606000D01*
G75*
G02*
X116802000Y-79456000I150000J0D01*
G01*
X118452000Y-79456000D01*
G75*
G02*
X118602000Y-79606000I0J-150000D01*
G01*
X118602000Y-79906000D01*
G75*
G02*
X118452000Y-80056000I-150000J0D01*
G01*
X116802000Y-80056000D01*
G75*
G02*
X116652000Y-79906000I0J150000D01*
G01*
G37*
G36*
G01*
X121602000Y-95146000D02*
X121602000Y-94846000D01*
G75*
G02*
X121752000Y-94696000I150000J0D01*
G01*
X123402000Y-94696000D01*
G75*
G02*
X123552000Y-94846000I0J-150000D01*
G01*
X123552000Y-95146000D01*
G75*
G02*
X123402000Y-95296000I-150000J0D01*
G01*
X121752000Y-95296000D01*
G75*
G02*
X121602000Y-95146000I0J150000D01*
G01*
G37*
G36*
G01*
X121602000Y-96416000D02*
X121602000Y-96116000D01*
G75*
G02*
X121752000Y-95966000I150000J0D01*
G01*
X123402000Y-95966000D01*
G75*
G02*
X123552000Y-96116000I0J-150000D01*
G01*
X123552000Y-96416000D01*
G75*
G02*
X123402000Y-96566000I-150000J0D01*
G01*
X121752000Y-96566000D01*
G75*
G02*
X121602000Y-96416000I0J150000D01*
G01*
G37*
G36*
G01*
X121602000Y-97686000D02*
X121602000Y-97386000D01*
G75*
G02*
X121752000Y-97236000I150000J0D01*
G01*
X123402000Y-97236000D01*
G75*
G02*
X123552000Y-97386000I0J-150000D01*
G01*
X123552000Y-97686000D01*
G75*
G02*
X123402000Y-97836000I-150000J0D01*
G01*
X121752000Y-97836000D01*
G75*
G02*
X121602000Y-97686000I0J150000D01*
G01*
G37*
G36*
G01*
X121602000Y-98956000D02*
X121602000Y-98656000D01*
G75*
G02*
X121752000Y-98506000I150000J0D01*
G01*
X123402000Y-98506000D01*
G75*
G02*
X123552000Y-98656000I0J-150000D01*
G01*
X123552000Y-98956000D01*
G75*
G02*
X123402000Y-99106000I-150000J0D01*
G01*
X121752000Y-99106000D01*
G75*
G02*
X121602000Y-98956000I0J150000D01*
G01*
G37*
G36*
G01*
X121602000Y-100226000D02*
X121602000Y-99926000D01*
G75*
G02*
X121752000Y-99776000I150000J0D01*
G01*
X123402000Y-99776000D01*
G75*
G02*
X123552000Y-99926000I0J-150000D01*
G01*
X123552000Y-100226000D01*
G75*
G02*
X123402000Y-100376000I-150000J0D01*
G01*
X121752000Y-100376000D01*
G75*
G02*
X121602000Y-100226000I0J150000D01*
G01*
G37*
G36*
G01*
X121602000Y-101496000D02*
X121602000Y-101196000D01*
G75*
G02*
X121752000Y-101046000I150000J0D01*
G01*
X123402000Y-101046000D01*
G75*
G02*
X123552000Y-101196000I0J-150000D01*
G01*
X123552000Y-101496000D01*
G75*
G02*
X123402000Y-101646000I-150000J0D01*
G01*
X121752000Y-101646000D01*
G75*
G02*
X121602000Y-101496000I0J150000D01*
G01*
G37*
G36*
G01*
X121602000Y-102766000D02*
X121602000Y-102466000D01*
G75*
G02*
X121752000Y-102316000I150000J0D01*
G01*
X123402000Y-102316000D01*
G75*
G02*
X123552000Y-102466000I0J-150000D01*
G01*
X123552000Y-102766000D01*
G75*
G02*
X123402000Y-102916000I-150000J0D01*
G01*
X121752000Y-102916000D01*
G75*
G02*
X121602000Y-102766000I0J150000D01*
G01*
G37*
G36*
G01*
X121602000Y-104036000D02*
X121602000Y-103736000D01*
G75*
G02*
X121752000Y-103586000I150000J0D01*
G01*
X123402000Y-103586000D01*
G75*
G02*
X123552000Y-103736000I0J-150000D01*
G01*
X123552000Y-104036000D01*
G75*
G02*
X123402000Y-104186000I-150000J0D01*
G01*
X121752000Y-104186000D01*
G75*
G02*
X121602000Y-104036000I0J150000D01*
G01*
G37*
G36*
G01*
X116652000Y-104036000D02*
X116652000Y-103736000D01*
G75*
G02*
X116802000Y-103586000I150000J0D01*
G01*
X118452000Y-103586000D01*
G75*
G02*
X118602000Y-103736000I0J-150000D01*
G01*
X118602000Y-104036000D01*
G75*
G02*
X118452000Y-104186000I-150000J0D01*
G01*
X116802000Y-104186000D01*
G75*
G02*
X116652000Y-104036000I0J150000D01*
G01*
G37*
G36*
G01*
X116652000Y-102766000D02*
X116652000Y-102466000D01*
G75*
G02*
X116802000Y-102316000I150000J0D01*
G01*
X118452000Y-102316000D01*
G75*
G02*
X118602000Y-102466000I0J-150000D01*
G01*
X118602000Y-102766000D01*
G75*
G02*
X118452000Y-102916000I-150000J0D01*
G01*
X116802000Y-102916000D01*
G75*
G02*
X116652000Y-102766000I0J150000D01*
G01*
G37*
G36*
G01*
X116652000Y-101496000D02*
X116652000Y-101196000D01*
G75*
G02*
X116802000Y-101046000I150000J0D01*
G01*
X118452000Y-101046000D01*
G75*
G02*
X118602000Y-101196000I0J-150000D01*
G01*
X118602000Y-101496000D01*
G75*
G02*
X118452000Y-101646000I-150000J0D01*
G01*
X116802000Y-101646000D01*
G75*
G02*
X116652000Y-101496000I0J150000D01*
G01*
G37*
G36*
G01*
X116652000Y-100226000D02*
X116652000Y-99926000D01*
G75*
G02*
X116802000Y-99776000I150000J0D01*
G01*
X118452000Y-99776000D01*
G75*
G02*
X118602000Y-99926000I0J-150000D01*
G01*
X118602000Y-100226000D01*
G75*
G02*
X118452000Y-100376000I-150000J0D01*
G01*
X116802000Y-100376000D01*
G75*
G02*
X116652000Y-100226000I0J150000D01*
G01*
G37*
G36*
G01*
X116652000Y-98956000D02*
X116652000Y-98656000D01*
G75*
G02*
X116802000Y-98506000I150000J0D01*
G01*
X118452000Y-98506000D01*
G75*
G02*
X118602000Y-98656000I0J-150000D01*
G01*
X118602000Y-98956000D01*
G75*
G02*
X118452000Y-99106000I-150000J0D01*
G01*
X116802000Y-99106000D01*
G75*
G02*
X116652000Y-98956000I0J150000D01*
G01*
G37*
G36*
G01*
X116652000Y-97686000D02*
X116652000Y-97386000D01*
G75*
G02*
X116802000Y-97236000I150000J0D01*
G01*
X118452000Y-97236000D01*
G75*
G02*
X118602000Y-97386000I0J-150000D01*
G01*
X118602000Y-97686000D01*
G75*
G02*
X118452000Y-97836000I-150000J0D01*
G01*
X116802000Y-97836000D01*
G75*
G02*
X116652000Y-97686000I0J150000D01*
G01*
G37*
G36*
G01*
X116652000Y-96416000D02*
X116652000Y-96116000D01*
G75*
G02*
X116802000Y-95966000I150000J0D01*
G01*
X118452000Y-95966000D01*
G75*
G02*
X118602000Y-96116000I0J-150000D01*
G01*
X118602000Y-96416000D01*
G75*
G02*
X118452000Y-96566000I-150000J0D01*
G01*
X116802000Y-96566000D01*
G75*
G02*
X116652000Y-96416000I0J150000D01*
G01*
G37*
G36*
G01*
X116652000Y-95146000D02*
X116652000Y-94846000D01*
G75*
G02*
X116802000Y-94696000I150000J0D01*
G01*
X118452000Y-94696000D01*
G75*
G02*
X118602000Y-94846000I0J-150000D01*
G01*
X118602000Y-95146000D01*
G75*
G02*
X118452000Y-95296000I-150000J0D01*
G01*
X116802000Y-95296000D01*
G75*
G02*
X116652000Y-95146000I0J150000D01*
G01*
G37*
G36*
G01*
X120186000Y-77961500D02*
X120186000Y-77486500D01*
G75*
G02*
X120423500Y-77249000I237500J0D01*
G01*
X120923500Y-77249000D01*
G75*
G02*
X121161000Y-77486500I0J-237500D01*
G01*
X121161000Y-77961500D01*
G75*
G02*
X120923500Y-78199000I-237500J0D01*
G01*
X120423500Y-78199000D01*
G75*
G02*
X120186000Y-77961500I0J237500D01*
G01*
G37*
G36*
G01*
X118361000Y-77961500D02*
X118361000Y-77486500D01*
G75*
G02*
X118598500Y-77249000I237500J0D01*
G01*
X119098500Y-77249000D01*
G75*
G02*
X119336000Y-77486500I0J-237500D01*
G01*
X119336000Y-77961500D01*
G75*
G02*
X119098500Y-78199000I-237500J0D01*
G01*
X118598500Y-78199000D01*
G75*
G02*
X118361000Y-77961500I0J237500D01*
G01*
G37*
G36*
G01*
X132365000Y-115840500D02*
X132365000Y-116315500D01*
G75*
G02*
X132127500Y-116553000I-237500J0D01*
G01*
X131552500Y-116553000D01*
G75*
G02*
X131315000Y-116315500I0J237500D01*
G01*
X131315000Y-115840500D01*
G75*
G02*
X131552500Y-115603000I237500J0D01*
G01*
X132127500Y-115603000D01*
G75*
G02*
X132365000Y-115840500I0J-237500D01*
G01*
G37*
G36*
G01*
X134115000Y-115840500D02*
X134115000Y-116315500D01*
G75*
G02*
X133877500Y-116553000I-237500J0D01*
G01*
X133302500Y-116553000D01*
G75*
G02*
X133065000Y-116315500I0J237500D01*
G01*
X133065000Y-115840500D01*
G75*
G02*
X133302500Y-115603000I237500J0D01*
G01*
X133877500Y-115603000D01*
G75*
G02*
X134115000Y-115840500I0J-237500D01*
G01*
G37*
G36*
G01*
X153345000Y-71898500D02*
X153345000Y-72373500D01*
G75*
G02*
X153107500Y-72611000I-237500J0D01*
G01*
X152507500Y-72611000D01*
G75*
G02*
X152270000Y-72373500I0J237500D01*
G01*
X152270000Y-71898500D01*
G75*
G02*
X152507500Y-71661000I237500J0D01*
G01*
X153107500Y-71661000D01*
G75*
G02*
X153345000Y-71898500I0J-237500D01*
G01*
G37*
G36*
G01*
X155070000Y-71898500D02*
X155070000Y-72373500D01*
G75*
G02*
X154832500Y-72611000I-237500J0D01*
G01*
X154232500Y-72611000D01*
G75*
G02*
X153995000Y-72373500I0J237500D01*
G01*
X153995000Y-71898500D01*
G75*
G02*
X154232500Y-71661000I237500J0D01*
G01*
X154832500Y-71661000D01*
G75*
G02*
X155070000Y-71898500I0J-237500D01*
G01*
G37*
G36*
G01*
X162123000Y-72373500D02*
X162123000Y-71898500D01*
G75*
G02*
X162360500Y-71661000I237500J0D01*
G01*
X162960500Y-71661000D01*
G75*
G02*
X163198000Y-71898500I0J-237500D01*
G01*
X163198000Y-72373500D01*
G75*
G02*
X162960500Y-72611000I-237500J0D01*
G01*
X162360500Y-72611000D01*
G75*
G02*
X162123000Y-72373500I0J237500D01*
G01*
G37*
G36*
G01*
X160398000Y-72373500D02*
X160398000Y-71898500D01*
G75*
G02*
X160635500Y-71661000I237500J0D01*
G01*
X161235500Y-71661000D01*
G75*
G02*
X161473000Y-71898500I0J-237500D01*
G01*
X161473000Y-72373500D01*
G75*
G02*
X161235500Y-72611000I-237500J0D01*
G01*
X160635500Y-72611000D01*
G75*
G02*
X160398000Y-72373500I0J237500D01*
G01*
G37*
G36*
G01*
X122952500Y-73473500D02*
X123427500Y-73473500D01*
G75*
G02*
X123665000Y-73711000I0J-237500D01*
G01*
X123665000Y-74211000D01*
G75*
G02*
X123427500Y-74448500I-237500J0D01*
G01*
X122952500Y-74448500D01*
G75*
G02*
X122715000Y-74211000I0J237500D01*
G01*
X122715000Y-73711000D01*
G75*
G02*
X122952500Y-73473500I237500J0D01*
G01*
G37*
G36*
G01*
X122952500Y-71648500D02*
X123427500Y-71648500D01*
G75*
G02*
X123665000Y-71886000I0J-237500D01*
G01*
X123665000Y-72386000D01*
G75*
G02*
X123427500Y-72623500I-237500J0D01*
G01*
X122952500Y-72623500D01*
G75*
G02*
X122715000Y-72386000I0J237500D01*
G01*
X122715000Y-71886000D01*
G75*
G02*
X122952500Y-71648500I237500J0D01*
G01*
G37*
G36*
G01*
X130576500Y-76437500D02*
X130576500Y-75962500D01*
G75*
G02*
X130814000Y-75725000I237500J0D01*
G01*
X131314000Y-75725000D01*
G75*
G02*
X131551500Y-75962500I0J-237500D01*
G01*
X131551500Y-76437500D01*
G75*
G02*
X131314000Y-76675000I-237500J0D01*
G01*
X130814000Y-76675000D01*
G75*
G02*
X130576500Y-76437500I0J237500D01*
G01*
G37*
G36*
G01*
X128751500Y-76437500D02*
X128751500Y-75962500D01*
G75*
G02*
X128989000Y-75725000I237500J0D01*
G01*
X129489000Y-75725000D01*
G75*
G02*
X129726500Y-75962500I0J-237500D01*
G01*
X129726500Y-76437500D01*
G75*
G02*
X129489000Y-76675000I-237500J0D01*
G01*
X128989000Y-76675000D01*
G75*
G02*
X128751500Y-76437500I0J237500D01*
G01*
G37*
G36*
G01*
X130576500Y-72373500D02*
X130576500Y-71898500D01*
G75*
G02*
X130814000Y-71661000I237500J0D01*
G01*
X131314000Y-71661000D01*
G75*
G02*
X131551500Y-71898500I0J-237500D01*
G01*
X131551500Y-72373500D01*
G75*
G02*
X131314000Y-72611000I-237500J0D01*
G01*
X130814000Y-72611000D01*
G75*
G02*
X130576500Y-72373500I0J237500D01*
G01*
G37*
G36*
G01*
X128751500Y-72373500D02*
X128751500Y-71898500D01*
G75*
G02*
X128989000Y-71661000I237500J0D01*
G01*
X129489000Y-71661000D01*
G75*
G02*
X129726500Y-71898500I0J-237500D01*
G01*
X129726500Y-72373500D01*
G75*
G02*
X129489000Y-72611000I-237500J0D01*
G01*
X128989000Y-72611000D01*
G75*
G02*
X128751500Y-72373500I0J237500D01*
G01*
G37*
G36*
G01*
X124984500Y-73376500D02*
X125459500Y-73376500D01*
G75*
G02*
X125697000Y-73614000I0J-237500D01*
G01*
X125697000Y-74214000D01*
G75*
G02*
X125459500Y-74451500I-237500J0D01*
G01*
X124984500Y-74451500D01*
G75*
G02*
X124747000Y-74214000I0J237500D01*
G01*
X124747000Y-73614000D01*
G75*
G02*
X124984500Y-73376500I237500J0D01*
G01*
G37*
G36*
G01*
X124984500Y-71651500D02*
X125459500Y-71651500D01*
G75*
G02*
X125697000Y-71889000I0J-237500D01*
G01*
X125697000Y-72489000D01*
G75*
G02*
X125459500Y-72726500I-237500J0D01*
G01*
X124984500Y-72726500D01*
G75*
G02*
X124747000Y-72489000I0J237500D01*
G01*
X124747000Y-71889000D01*
G75*
G02*
X124984500Y-71651500I237500J0D01*
G01*
G37*
G36*
G01*
X129876500Y-77994500D02*
X129876500Y-78469500D01*
G75*
G02*
X129639000Y-78707000I-237500J0D01*
G01*
X129039000Y-78707000D01*
G75*
G02*
X128801500Y-78469500I0J237500D01*
G01*
X128801500Y-77994500D01*
G75*
G02*
X129039000Y-77757000I237500J0D01*
G01*
X129639000Y-77757000D01*
G75*
G02*
X129876500Y-77994500I0J-237500D01*
G01*
G37*
G36*
G01*
X131601500Y-77994500D02*
X131601500Y-78469500D01*
G75*
G02*
X131364000Y-78707000I-237500J0D01*
G01*
X130764000Y-78707000D01*
G75*
G02*
X130526500Y-78469500I0J237500D01*
G01*
X130526500Y-77994500D01*
G75*
G02*
X130764000Y-77757000I237500J0D01*
G01*
X131364000Y-77757000D01*
G75*
G02*
X131601500Y-77994500I0J-237500D01*
G01*
G37*
G36*
G01*
X129876500Y-73930500D02*
X129876500Y-74405500D01*
G75*
G02*
X129639000Y-74643000I-237500J0D01*
G01*
X129039000Y-74643000D01*
G75*
G02*
X128801500Y-74405500I0J237500D01*
G01*
X128801500Y-73930500D01*
G75*
G02*
X129039000Y-73693000I237500J0D01*
G01*
X129639000Y-73693000D01*
G75*
G02*
X129876500Y-73930500I0J-237500D01*
G01*
G37*
G36*
G01*
X131601500Y-73930500D02*
X131601500Y-74405500D01*
G75*
G02*
X131364000Y-74643000I-237500J0D01*
G01*
X130764000Y-74643000D01*
G75*
G02*
X130526500Y-74405500I0J237500D01*
G01*
X130526500Y-73930500D01*
G75*
G02*
X130764000Y-73693000I237500J0D01*
G01*
X131364000Y-73693000D01*
G75*
G02*
X131601500Y-73930500I0J-237500D01*
G01*
G37*
G36*
G01*
X145751500Y-80788500D02*
X145751500Y-81263500D01*
G75*
G02*
X145514000Y-81501000I-237500J0D01*
G01*
X144914000Y-81501000D01*
G75*
G02*
X144676500Y-81263500I0J237500D01*
G01*
X144676500Y-80788500D01*
G75*
G02*
X144914000Y-80551000I237500J0D01*
G01*
X145514000Y-80551000D01*
G75*
G02*
X145751500Y-80788500I0J-237500D01*
G01*
G37*
G36*
G01*
X147476500Y-80788500D02*
X147476500Y-81263500D01*
G75*
G02*
X147239000Y-81501000I-237500J0D01*
G01*
X146639000Y-81501000D01*
G75*
G02*
X146401500Y-81263500I0J237500D01*
G01*
X146401500Y-80788500D01*
G75*
G02*
X146639000Y-80551000I237500J0D01*
G01*
X147239000Y-80551000D01*
G75*
G02*
X147476500Y-80788500I0J-237500D01*
G01*
G37*
G36*
G01*
X137651500Y-90961500D02*
X137176500Y-90961500D01*
G75*
G02*
X136939000Y-90724000I0J237500D01*
G01*
X136939000Y-90124000D01*
G75*
G02*
X137176500Y-89886500I237500J0D01*
G01*
X137651500Y-89886500D01*
G75*
G02*
X137889000Y-90124000I0J-237500D01*
G01*
X137889000Y-90724000D01*
G75*
G02*
X137651500Y-90961500I-237500J0D01*
G01*
G37*
G36*
G01*
X137651500Y-92686500D02*
X137176500Y-92686500D01*
G75*
G02*
X136939000Y-92449000I0J237500D01*
G01*
X136939000Y-91849000D01*
G75*
G02*
X137176500Y-91611500I237500J0D01*
G01*
X137651500Y-91611500D01*
G75*
G02*
X137889000Y-91849000I0J-237500D01*
G01*
X137889000Y-92449000D01*
G75*
G02*
X137651500Y-92686500I-237500J0D01*
G01*
G37*
G36*
G01*
X168639500Y-94213500D02*
X168164500Y-94213500D01*
G75*
G02*
X167927000Y-93976000I0J237500D01*
G01*
X167927000Y-93476000D01*
G75*
G02*
X168164500Y-93238500I237500J0D01*
G01*
X168639500Y-93238500D01*
G75*
G02*
X168877000Y-93476000I0J-237500D01*
G01*
X168877000Y-93976000D01*
G75*
G02*
X168639500Y-94213500I-237500J0D01*
G01*
G37*
G36*
G01*
X168639500Y-96038500D02*
X168164500Y-96038500D01*
G75*
G02*
X167927000Y-95801000I0J237500D01*
G01*
X167927000Y-95301000D01*
G75*
G02*
X168164500Y-95063500I237500J0D01*
G01*
X168639500Y-95063500D01*
G75*
G02*
X168877000Y-95301000I0J-237500D01*
G01*
X168877000Y-95801000D01*
G75*
G02*
X168639500Y-96038500I-237500J0D01*
G01*
G37*
G36*
G01*
X163305500Y-86847500D02*
X162830500Y-86847500D01*
G75*
G02*
X162593000Y-86610000I0J237500D01*
G01*
X162593000Y-86110000D01*
G75*
G02*
X162830500Y-85872500I237500J0D01*
G01*
X163305500Y-85872500D01*
G75*
G02*
X163543000Y-86110000I0J-237500D01*
G01*
X163543000Y-86610000D01*
G75*
G02*
X163305500Y-86847500I-237500J0D01*
G01*
G37*
G36*
G01*
X163305500Y-88672500D02*
X162830500Y-88672500D01*
G75*
G02*
X162593000Y-88435000I0J237500D01*
G01*
X162593000Y-87935000D01*
G75*
G02*
X162830500Y-87697500I237500J0D01*
G01*
X163305500Y-87697500D01*
G75*
G02*
X163543000Y-87935000I0J-237500D01*
G01*
X163543000Y-88435000D01*
G75*
G02*
X163305500Y-88672500I-237500J0D01*
G01*
G37*
G36*
G01*
X161273500Y-86847500D02*
X160798500Y-86847500D01*
G75*
G02*
X160561000Y-86610000I0J237500D01*
G01*
X160561000Y-86110000D01*
G75*
G02*
X160798500Y-85872500I237500J0D01*
G01*
X161273500Y-85872500D01*
G75*
G02*
X161511000Y-86110000I0J-237500D01*
G01*
X161511000Y-86610000D01*
G75*
G02*
X161273500Y-86847500I-237500J0D01*
G01*
G37*
G36*
G01*
X161273500Y-88672500D02*
X160798500Y-88672500D01*
G75*
G02*
X160561000Y-88435000I0J237500D01*
G01*
X160561000Y-87935000D01*
G75*
G02*
X160798500Y-87697500I237500J0D01*
G01*
X161273500Y-87697500D01*
G75*
G02*
X161511000Y-87935000I0J-237500D01*
G01*
X161511000Y-88435000D01*
G75*
G02*
X161273500Y-88672500I-237500J0D01*
G01*
G37*
G36*
G01*
X145271500Y-118801000D02*
X144796500Y-118801000D01*
G75*
G02*
X144559000Y-118563500I0J237500D01*
G01*
X144559000Y-117963500D01*
G75*
G02*
X144796500Y-117726000I237500J0D01*
G01*
X145271500Y-117726000D01*
G75*
G02*
X145509000Y-117963500I0J-237500D01*
G01*
X145509000Y-118563500D01*
G75*
G02*
X145271500Y-118801000I-237500J0D01*
G01*
G37*
G36*
G01*
X145271500Y-120526000D02*
X144796500Y-120526000D01*
G75*
G02*
X144559000Y-120288500I0J237500D01*
G01*
X144559000Y-119688500D01*
G75*
G02*
X144796500Y-119451000I237500J0D01*
G01*
X145271500Y-119451000D01*
G75*
G02*
X145509000Y-119688500I0J-237500D01*
G01*
X145509000Y-120288500D01*
G75*
G02*
X145271500Y-120526000I-237500J0D01*
G01*
G37*
G36*
G01*
X180069500Y-103564500D02*
X179594500Y-103564500D01*
G75*
G02*
X179357000Y-103327000I0J237500D01*
G01*
X179357000Y-102827000D01*
G75*
G02*
X179594500Y-102589500I237500J0D01*
G01*
X180069500Y-102589500D01*
G75*
G02*
X180307000Y-102827000I0J-237500D01*
G01*
X180307000Y-103327000D01*
G75*
G02*
X180069500Y-103564500I-237500J0D01*
G01*
G37*
G36*
G01*
X180069500Y-105389500D02*
X179594500Y-105389500D01*
G75*
G02*
X179357000Y-105152000I0J237500D01*
G01*
X179357000Y-104652000D01*
G75*
G02*
X179594500Y-104414500I237500J0D01*
G01*
X180069500Y-104414500D01*
G75*
G02*
X180307000Y-104652000I0J-237500D01*
G01*
X180307000Y-105152000D01*
G75*
G02*
X180069500Y-105389500I-237500J0D01*
G01*
G37*
G36*
G01*
X179594500Y-112185500D02*
X180069500Y-112185500D01*
G75*
G02*
X180307000Y-112423000I0J-237500D01*
G01*
X180307000Y-113023000D01*
G75*
G02*
X180069500Y-113260500I-237500J0D01*
G01*
X179594500Y-113260500D01*
G75*
G02*
X179357000Y-113023000I0J237500D01*
G01*
X179357000Y-112423000D01*
G75*
G02*
X179594500Y-112185500I237500J0D01*
G01*
G37*
G36*
G01*
X179594500Y-110460500D02*
X180069500Y-110460500D01*
G75*
G02*
X180307000Y-110698000I0J-237500D01*
G01*
X180307000Y-111298000D01*
G75*
G02*
X180069500Y-111535500I-237500J0D01*
G01*
X179594500Y-111535500D01*
G75*
G02*
X179357000Y-111298000I0J237500D01*
G01*
X179357000Y-110698000D01*
G75*
G02*
X179594500Y-110460500I237500J0D01*
G01*
G37*
G36*
G01*
X161781500Y-111943000D02*
X161306500Y-111943000D01*
G75*
G02*
X161069000Y-111705500I0J237500D01*
G01*
X161069000Y-111105500D01*
G75*
G02*
X161306500Y-110868000I237500J0D01*
G01*
X161781500Y-110868000D01*
G75*
G02*
X162019000Y-111105500I0J-237500D01*
G01*
X162019000Y-111705500D01*
G75*
G02*
X161781500Y-111943000I-237500J0D01*
G01*
G37*
G36*
G01*
X161781500Y-113668000D02*
X161306500Y-113668000D01*
G75*
G02*
X161069000Y-113430500I0J237500D01*
G01*
X161069000Y-112830500D01*
G75*
G02*
X161306500Y-112593000I237500J0D01*
G01*
X161781500Y-112593000D01*
G75*
G02*
X162019000Y-112830500I0J-237500D01*
G01*
X162019000Y-113430500D01*
G75*
G02*
X161781500Y-113668000I-237500J0D01*
G01*
G37*
G36*
G01*
X175835500Y-102345500D02*
X175835500Y-101870500D01*
G75*
G02*
X176073000Y-101633000I237500J0D01*
G01*
X176573000Y-101633000D01*
G75*
G02*
X176810500Y-101870500I0J-237500D01*
G01*
X176810500Y-102345500D01*
G75*
G02*
X176573000Y-102583000I-237500J0D01*
G01*
X176073000Y-102583000D01*
G75*
G02*
X175835500Y-102345500I0J237500D01*
G01*
G37*
G36*
G01*
X174010500Y-102345500D02*
X174010500Y-101870500D01*
G75*
G02*
X174248000Y-101633000I237500J0D01*
G01*
X174748000Y-101633000D01*
G75*
G02*
X174985500Y-101870500I0J-237500D01*
G01*
X174985500Y-102345500D01*
G75*
G02*
X174748000Y-102583000I-237500J0D01*
G01*
X174248000Y-102583000D01*
G75*
G02*
X174010500Y-102345500I0J237500D01*
G01*
G37*
G36*
G01*
X147807500Y-121428500D02*
X147807500Y-121903500D01*
G75*
G02*
X147570000Y-122141000I-237500J0D01*
G01*
X147070000Y-122141000D01*
G75*
G02*
X146832500Y-121903500I0J237500D01*
G01*
X146832500Y-121428500D01*
G75*
G02*
X147070000Y-121191000I237500J0D01*
G01*
X147570000Y-121191000D01*
G75*
G02*
X147807500Y-121428500I0J-237500D01*
G01*
G37*
G36*
G01*
X149632500Y-121428500D02*
X149632500Y-121903500D01*
G75*
G02*
X149395000Y-122141000I-237500J0D01*
G01*
X148895000Y-122141000D01*
G75*
G02*
X148657500Y-121903500I0J237500D01*
G01*
X148657500Y-121428500D01*
G75*
G02*
X148895000Y-121191000I237500J0D01*
G01*
X149395000Y-121191000D01*
G75*
G02*
X149632500Y-121428500I0J-237500D01*
G01*
G37*
G36*
G01*
X144796500Y-123210500D02*
X145271500Y-123210500D01*
G75*
G02*
X145509000Y-123448000I0J-237500D01*
G01*
X145509000Y-123948000D01*
G75*
G02*
X145271500Y-124185500I-237500J0D01*
G01*
X144796500Y-124185500D01*
G75*
G02*
X144559000Y-123948000I0J237500D01*
G01*
X144559000Y-123448000D01*
G75*
G02*
X144796500Y-123210500I237500J0D01*
G01*
G37*
G36*
G01*
X144796500Y-121385500D02*
X145271500Y-121385500D01*
G75*
G02*
X145509000Y-121623000I0J-237500D01*
G01*
X145509000Y-122123000D01*
G75*
G02*
X145271500Y-122360500I-237500J0D01*
G01*
X144796500Y-122360500D01*
G75*
G02*
X144559000Y-122123000I0J237500D01*
G01*
X144559000Y-121623000D01*
G75*
G02*
X144796500Y-121385500I237500J0D01*
G01*
G37*
G36*
G01*
X175738500Y-100059500D02*
X175738500Y-99584500D01*
G75*
G02*
X175976000Y-99347000I237500J0D01*
G01*
X176576000Y-99347000D01*
G75*
G02*
X176813500Y-99584500I0J-237500D01*
G01*
X176813500Y-100059500D01*
G75*
G02*
X176576000Y-100297000I-237500J0D01*
G01*
X175976000Y-100297000D01*
G75*
G02*
X175738500Y-100059500I0J237500D01*
G01*
G37*
G36*
G01*
X174013500Y-100059500D02*
X174013500Y-99584500D01*
G75*
G02*
X174251000Y-99347000I237500J0D01*
G01*
X174851000Y-99347000D01*
G75*
G02*
X175088500Y-99584500I0J-237500D01*
G01*
X175088500Y-100059500D01*
G75*
G02*
X174851000Y-100297000I-237500J0D01*
G01*
X174251000Y-100297000D01*
G75*
G02*
X174013500Y-100059500I0J237500D01*
G01*
G37*
G36*
G01*
X175738500Y-104631500D02*
X175738500Y-104156500D01*
G75*
G02*
X175976000Y-103919000I237500J0D01*
G01*
X176576000Y-103919000D01*
G75*
G02*
X176813500Y-104156500I0J-237500D01*
G01*
X176813500Y-104631500D01*
G75*
G02*
X176576000Y-104869000I-237500J0D01*
G01*
X175976000Y-104869000D01*
G75*
G02*
X175738500Y-104631500I0J237500D01*
G01*
G37*
G36*
G01*
X174013500Y-104631500D02*
X174013500Y-104156500D01*
G75*
G02*
X174251000Y-103919000I237500J0D01*
G01*
X174851000Y-103919000D01*
G75*
G02*
X175088500Y-104156500I0J-237500D01*
G01*
X175088500Y-104631500D01*
G75*
G02*
X174851000Y-104869000I-237500J0D01*
G01*
X174251000Y-104869000D01*
G75*
G02*
X174013500Y-104631500I0J237500D01*
G01*
G37*
G36*
G01*
X148507500Y-123935500D02*
X148507500Y-123460500D01*
G75*
G02*
X148745000Y-123223000I237500J0D01*
G01*
X149345000Y-123223000D01*
G75*
G02*
X149582500Y-123460500I0J-237500D01*
G01*
X149582500Y-123935500D01*
G75*
G02*
X149345000Y-124173000I-237500J0D01*
G01*
X148745000Y-124173000D01*
G75*
G02*
X148507500Y-123935500I0J237500D01*
G01*
G37*
G36*
G01*
X146782500Y-123935500D02*
X146782500Y-123460500D01*
G75*
G02*
X147020000Y-123223000I237500J0D01*
G01*
X147620000Y-123223000D01*
G75*
G02*
X147857500Y-123460500I0J-237500D01*
G01*
X147857500Y-123935500D01*
G75*
G02*
X147620000Y-124173000I-237500J0D01*
G01*
X147020000Y-124173000D01*
G75*
G02*
X146782500Y-123935500I0J237500D01*
G01*
G37*
G36*
G01*
X178578500Y-91257000D02*
X179053500Y-91257000D01*
G75*
G02*
X179291000Y-91494500I0J-237500D01*
G01*
X179291000Y-92094500D01*
G75*
G02*
X179053500Y-92332000I-237500J0D01*
G01*
X178578500Y-92332000D01*
G75*
G02*
X178341000Y-92094500I0J237500D01*
G01*
X178341000Y-91494500D01*
G75*
G02*
X178578500Y-91257000I237500J0D01*
G01*
G37*
G36*
G01*
X178578500Y-89532000D02*
X179053500Y-89532000D01*
G75*
G02*
X179291000Y-89769500I0J-237500D01*
G01*
X179291000Y-90369500D01*
G75*
G02*
X179053500Y-90607000I-237500J0D01*
G01*
X178578500Y-90607000D01*
G75*
G02*
X178341000Y-90369500I0J237500D01*
G01*
X178341000Y-89769500D01*
G75*
G02*
X178578500Y-89532000I237500J0D01*
G01*
G37*
G36*
G01*
X166607500Y-94213500D02*
X166132500Y-94213500D01*
G75*
G02*
X165895000Y-93976000I0J237500D01*
G01*
X165895000Y-93476000D01*
G75*
G02*
X166132500Y-93238500I237500J0D01*
G01*
X166607500Y-93238500D01*
G75*
G02*
X166845000Y-93476000I0J-237500D01*
G01*
X166845000Y-93976000D01*
G75*
G02*
X166607500Y-94213500I-237500J0D01*
G01*
G37*
G36*
G01*
X166607500Y-96038500D02*
X166132500Y-96038500D01*
G75*
G02*
X165895000Y-95801000I0J237500D01*
G01*
X165895000Y-95301000D01*
G75*
G02*
X166132500Y-95063500I237500J0D01*
G01*
X166607500Y-95063500D01*
G75*
G02*
X166845000Y-95301000I0J-237500D01*
G01*
X166845000Y-95801000D01*
G75*
G02*
X166607500Y-96038500I-237500J0D01*
G01*
G37*
G36*
G01*
X116729500Y-77186500D02*
X117204500Y-77186500D01*
G75*
G02*
X117442000Y-77424000I0J-237500D01*
G01*
X117442000Y-78024000D01*
G75*
G02*
X117204500Y-78261500I-237500J0D01*
G01*
X116729500Y-78261500D01*
G75*
G02*
X116492000Y-78024000I0J237500D01*
G01*
X116492000Y-77424000D01*
G75*
G02*
X116729500Y-77186500I237500J0D01*
G01*
G37*
G36*
G01*
X116729500Y-75461500D02*
X117204500Y-75461500D01*
G75*
G02*
X117442000Y-75699000I0J-237500D01*
G01*
X117442000Y-76299000D01*
G75*
G02*
X117204500Y-76536500I-237500J0D01*
G01*
X116729500Y-76536500D01*
G75*
G02*
X116492000Y-76299000I0J237500D01*
G01*
X116492000Y-75699000D01*
G75*
G02*
X116729500Y-75461500I237500J0D01*
G01*
G37*
G36*
G01*
X161560500Y-101413500D02*
X162035500Y-101413500D01*
G75*
G02*
X162273000Y-101651000I0J-237500D01*
G01*
X162273000Y-102151000D01*
G75*
G02*
X162035500Y-102388500I-237500J0D01*
G01*
X161560500Y-102388500D01*
G75*
G02*
X161323000Y-102151000I0J237500D01*
G01*
X161323000Y-101651000D01*
G75*
G02*
X161560500Y-101413500I237500J0D01*
G01*
G37*
G36*
G01*
X161560500Y-99588500D02*
X162035500Y-99588500D01*
G75*
G02*
X162273000Y-99826000I0J-237500D01*
G01*
X162273000Y-100326000D01*
G75*
G02*
X162035500Y-100563500I-237500J0D01*
G01*
X161560500Y-100563500D01*
G75*
G02*
X161323000Y-100326000I0J237500D01*
G01*
X161323000Y-99826000D01*
G75*
G02*
X161560500Y-99588500I237500J0D01*
G01*
G37*
G36*
G01*
X135906500Y-115233500D02*
X136381500Y-115233500D01*
G75*
G02*
X136619000Y-115471000I0J-237500D01*
G01*
X136619000Y-116071000D01*
G75*
G02*
X136381500Y-116308500I-237500J0D01*
G01*
X135906500Y-116308500D01*
G75*
G02*
X135669000Y-116071000I0J237500D01*
G01*
X135669000Y-115471000D01*
G75*
G02*
X135906500Y-115233500I237500J0D01*
G01*
G37*
G36*
G01*
X135906500Y-113508500D02*
X136381500Y-113508500D01*
G75*
G02*
X136619000Y-113746000I0J-237500D01*
G01*
X136619000Y-114346000D01*
G75*
G02*
X136381500Y-114583500I-237500J0D01*
G01*
X135906500Y-114583500D01*
G75*
G02*
X135669000Y-114346000I0J237500D01*
G01*
X135669000Y-113746000D01*
G75*
G02*
X135906500Y-113508500I237500J0D01*
G01*
G37*
G36*
G01*
X113097500Y-72373500D02*
X113097500Y-71898500D01*
G75*
G02*
X113335000Y-71661000I237500J0D01*
G01*
X113835000Y-71661000D01*
G75*
G02*
X114072500Y-71898500I0J-237500D01*
G01*
X114072500Y-72373500D01*
G75*
G02*
X113835000Y-72611000I-237500J0D01*
G01*
X113335000Y-72611000D01*
G75*
G02*
X113097500Y-72373500I0J237500D01*
G01*
G37*
G36*
G01*
X111272500Y-72373500D02*
X111272500Y-71898500D01*
G75*
G02*
X111510000Y-71661000I237500J0D01*
G01*
X112010000Y-71661000D01*
G75*
G02*
X112247500Y-71898500I0J-237500D01*
G01*
X112247500Y-72373500D01*
G75*
G02*
X112010000Y-72611000I-237500J0D01*
G01*
X111510000Y-72611000D01*
G75*
G02*
X111272500Y-72373500I0J237500D01*
G01*
G37*
G36*
G01*
X151363500Y-115586500D02*
X151363500Y-116061500D01*
G75*
G02*
X151126000Y-116299000I-237500J0D01*
G01*
X150626000Y-116299000D01*
G75*
G02*
X150388500Y-116061500I0J237500D01*
G01*
X150388500Y-115586500D01*
G75*
G02*
X150626000Y-115349000I237500J0D01*
G01*
X151126000Y-115349000D01*
G75*
G02*
X151363500Y-115586500I0J-237500D01*
G01*
G37*
G36*
G01*
X153188500Y-115586500D02*
X153188500Y-116061500D01*
G75*
G02*
X152951000Y-116299000I-237500J0D01*
G01*
X152451000Y-116299000D01*
G75*
G02*
X152213500Y-116061500I0J237500D01*
G01*
X152213500Y-115586500D01*
G75*
G02*
X152451000Y-115349000I237500J0D01*
G01*
X152951000Y-115349000D01*
G75*
G02*
X153188500Y-115586500I0J-237500D01*
G01*
G37*
G36*
G01*
X151363500Y-113300500D02*
X151363500Y-113775500D01*
G75*
G02*
X151126000Y-114013000I-237500J0D01*
G01*
X150626000Y-114013000D01*
G75*
G02*
X150388500Y-113775500I0J237500D01*
G01*
X150388500Y-113300500D01*
G75*
G02*
X150626000Y-113063000I237500J0D01*
G01*
X151126000Y-113063000D01*
G75*
G02*
X151363500Y-113300500I0J-237500D01*
G01*
G37*
G36*
G01*
X153188500Y-113300500D02*
X153188500Y-113775500D01*
G75*
G02*
X152951000Y-114013000I-237500J0D01*
G01*
X152451000Y-114013000D01*
G75*
G02*
X152213500Y-113775500I0J237500D01*
G01*
X152213500Y-113300500D01*
G75*
G02*
X152451000Y-113063000I237500J0D01*
G01*
X152951000Y-113063000D01*
G75*
G02*
X153188500Y-113300500I0J-237500D01*
G01*
G37*
G36*
G01*
X165591500Y-111843000D02*
X165116500Y-111843000D01*
G75*
G02*
X164879000Y-111605500I0J237500D01*
G01*
X164879000Y-111105500D01*
G75*
G02*
X165116500Y-110868000I237500J0D01*
G01*
X165591500Y-110868000D01*
G75*
G02*
X165829000Y-111105500I0J-237500D01*
G01*
X165829000Y-111605500D01*
G75*
G02*
X165591500Y-111843000I-237500J0D01*
G01*
G37*
G36*
G01*
X165591500Y-113668000D02*
X165116500Y-113668000D01*
G75*
G02*
X164879000Y-113430500I0J237500D01*
G01*
X164879000Y-112930500D01*
G75*
G02*
X165116500Y-112693000I237500J0D01*
G01*
X165591500Y-112693000D01*
G75*
G02*
X165829000Y-112930500I0J-237500D01*
G01*
X165829000Y-113430500D01*
G75*
G02*
X165591500Y-113668000I-237500J0D01*
G01*
G37*
G36*
G01*
X165591500Y-108033000D02*
X165116500Y-108033000D01*
G75*
G02*
X164879000Y-107795500I0J237500D01*
G01*
X164879000Y-107295500D01*
G75*
G02*
X165116500Y-107058000I237500J0D01*
G01*
X165591500Y-107058000D01*
G75*
G02*
X165829000Y-107295500I0J-237500D01*
G01*
X165829000Y-107795500D01*
G75*
G02*
X165591500Y-108033000I-237500J0D01*
G01*
G37*
G36*
G01*
X165591500Y-109858000D02*
X165116500Y-109858000D01*
G75*
G02*
X164879000Y-109620500I0J237500D01*
G01*
X164879000Y-109120500D01*
G75*
G02*
X165116500Y-108883000I237500J0D01*
G01*
X165591500Y-108883000D01*
G75*
G02*
X165829000Y-109120500I0J-237500D01*
G01*
X165829000Y-109620500D01*
G75*
G02*
X165591500Y-109858000I-237500J0D01*
G01*
G37*
G36*
G01*
X145982500Y-71898500D02*
X145982500Y-72373500D01*
G75*
G02*
X145745000Y-72611000I-237500J0D01*
G01*
X145245000Y-72611000D01*
G75*
G02*
X145007500Y-72373500I0J237500D01*
G01*
X145007500Y-71898500D01*
G75*
G02*
X145245000Y-71661000I237500J0D01*
G01*
X145745000Y-71661000D01*
G75*
G02*
X145982500Y-71898500I0J-237500D01*
G01*
G37*
G36*
G01*
X147807500Y-71898500D02*
X147807500Y-72373500D01*
G75*
G02*
X147570000Y-72611000I-237500J0D01*
G01*
X147070000Y-72611000D01*
G75*
G02*
X146832500Y-72373500I0J237500D01*
G01*
X146832500Y-71898500D01*
G75*
G02*
X147070000Y-71661000I237500J0D01*
G01*
X147570000Y-71661000D01*
G75*
G02*
X147807500Y-71898500I0J-237500D01*
G01*
G37*
G36*
G01*
X142768500Y-72373500D02*
X142768500Y-71898500D01*
G75*
G02*
X143006000Y-71661000I237500J0D01*
G01*
X143506000Y-71661000D01*
G75*
G02*
X143743500Y-71898500I0J-237500D01*
G01*
X143743500Y-72373500D01*
G75*
G02*
X143506000Y-72611000I-237500J0D01*
G01*
X143006000Y-72611000D01*
G75*
G02*
X142768500Y-72373500I0J237500D01*
G01*
G37*
G36*
G01*
X140943500Y-72373500D02*
X140943500Y-71898500D01*
G75*
G02*
X141181000Y-71661000I237500J0D01*
G01*
X141681000Y-71661000D01*
G75*
G02*
X141918500Y-71898500I0J-237500D01*
G01*
X141918500Y-72373500D01*
G75*
G02*
X141681000Y-72611000I-237500J0D01*
G01*
X141181000Y-72611000D01*
G75*
G02*
X140943500Y-72373500I0J237500D01*
G01*
G37*
G36*
G01*
X156480500Y-73473500D02*
X156955500Y-73473500D01*
G75*
G02*
X157193000Y-73711000I0J-237500D01*
G01*
X157193000Y-74211000D01*
G75*
G02*
X156955500Y-74448500I-237500J0D01*
G01*
X156480500Y-74448500D01*
G75*
G02*
X156243000Y-74211000I0J237500D01*
G01*
X156243000Y-73711000D01*
G75*
G02*
X156480500Y-73473500I237500J0D01*
G01*
G37*
G36*
G01*
X156480500Y-71648500D02*
X156955500Y-71648500D01*
G75*
G02*
X157193000Y-71886000I0J-237500D01*
G01*
X157193000Y-72386000D01*
G75*
G02*
X156955500Y-72623500I-237500J0D01*
G01*
X156480500Y-72623500D01*
G75*
G02*
X156243000Y-72386000I0J237500D01*
G01*
X156243000Y-71886000D01*
G75*
G02*
X156480500Y-71648500I237500J0D01*
G01*
G37*
G36*
G01*
X146832500Y-74405500D02*
X146832500Y-73930500D01*
G75*
G02*
X147070000Y-73693000I237500J0D01*
G01*
X147570000Y-73693000D01*
G75*
G02*
X147807500Y-73930500I0J-237500D01*
G01*
X147807500Y-74405500D01*
G75*
G02*
X147570000Y-74643000I-237500J0D01*
G01*
X147070000Y-74643000D01*
G75*
G02*
X146832500Y-74405500I0J237500D01*
G01*
G37*
G36*
G01*
X145007500Y-74405500D02*
X145007500Y-73930500D01*
G75*
G02*
X145245000Y-73693000I237500J0D01*
G01*
X145745000Y-73693000D01*
G75*
G02*
X145982500Y-73930500I0J-237500D01*
G01*
X145982500Y-74405500D01*
G75*
G02*
X145745000Y-74643000I-237500J0D01*
G01*
X145245000Y-74643000D01*
G75*
G02*
X145007500Y-74405500I0J237500D01*
G01*
G37*
G36*
G01*
X158512500Y-73473500D02*
X158987500Y-73473500D01*
G75*
G02*
X159225000Y-73711000I0J-237500D01*
G01*
X159225000Y-74211000D01*
G75*
G02*
X158987500Y-74448500I-237500J0D01*
G01*
X158512500Y-74448500D01*
G75*
G02*
X158275000Y-74211000I0J237500D01*
G01*
X158275000Y-73711000D01*
G75*
G02*
X158512500Y-73473500I237500J0D01*
G01*
G37*
G36*
G01*
X158512500Y-71648500D02*
X158987500Y-71648500D01*
G75*
G02*
X159225000Y-71886000I0J-237500D01*
G01*
X159225000Y-72386000D01*
G75*
G02*
X158987500Y-72623500I-237500J0D01*
G01*
X158512500Y-72623500D01*
G75*
G02*
X158275000Y-72386000I0J237500D01*
G01*
X158275000Y-71886000D01*
G75*
G02*
X158512500Y-71648500I237500J0D01*
G01*
G37*
G36*
G01*
X157967500Y-105680500D02*
X157967500Y-106155500D01*
G75*
G02*
X157730000Y-106393000I-237500J0D01*
G01*
X157230000Y-106393000D01*
G75*
G02*
X156992500Y-106155500I0J237500D01*
G01*
X156992500Y-105680500D01*
G75*
G02*
X157230000Y-105443000I237500J0D01*
G01*
X157730000Y-105443000D01*
G75*
G02*
X157967500Y-105680500I0J-237500D01*
G01*
G37*
G36*
G01*
X159792500Y-105680500D02*
X159792500Y-106155500D01*
G75*
G02*
X159555000Y-106393000I-237500J0D01*
G01*
X159055000Y-106393000D01*
G75*
G02*
X158817500Y-106155500I0J237500D01*
G01*
X158817500Y-105680500D01*
G75*
G02*
X159055000Y-105443000I237500J0D01*
G01*
X159555000Y-105443000D01*
G75*
G02*
X159792500Y-105680500I0J-237500D01*
G01*
G37*
G36*
G01*
X157942100Y-103673900D02*
X157942100Y-104148900D01*
G75*
G02*
X157704600Y-104386400I-237500J0D01*
G01*
X157204600Y-104386400D01*
G75*
G02*
X156967100Y-104148900I0J237500D01*
G01*
X156967100Y-103673900D01*
G75*
G02*
X157204600Y-103436400I237500J0D01*
G01*
X157704600Y-103436400D01*
G75*
G02*
X157942100Y-103673900I0J-237500D01*
G01*
G37*
G36*
G01*
X159767100Y-103673900D02*
X159767100Y-104148900D01*
G75*
G02*
X159529600Y-104386400I-237500J0D01*
G01*
X159029600Y-104386400D01*
G75*
G02*
X158792100Y-104148900I0J237500D01*
G01*
X158792100Y-103673900D01*
G75*
G02*
X159029600Y-103436400I237500J0D01*
G01*
X159529600Y-103436400D01*
G75*
G02*
X159767100Y-103673900I0J-237500D01*
G01*
G37*
G36*
G01*
X157942100Y-101616500D02*
X157942100Y-102091500D01*
G75*
G02*
X157704600Y-102329000I-237500J0D01*
G01*
X157204600Y-102329000D01*
G75*
G02*
X156967100Y-102091500I0J237500D01*
G01*
X156967100Y-101616500D01*
G75*
G02*
X157204600Y-101379000I237500J0D01*
G01*
X157704600Y-101379000D01*
G75*
G02*
X157942100Y-101616500I0J-237500D01*
G01*
G37*
G36*
G01*
X159767100Y-101616500D02*
X159767100Y-102091500D01*
G75*
G02*
X159529600Y-102329000I-237500J0D01*
G01*
X159029600Y-102329000D01*
G75*
G02*
X158792100Y-102091500I0J237500D01*
G01*
X158792100Y-101616500D01*
G75*
G02*
X159029600Y-101379000I237500J0D01*
G01*
X159529600Y-101379000D01*
G75*
G02*
X159767100Y-101616500I0J-237500D01*
G01*
G37*
G36*
G01*
X157942100Y-99609900D02*
X157942100Y-100084900D01*
G75*
G02*
X157704600Y-100322400I-237500J0D01*
G01*
X157204600Y-100322400D01*
G75*
G02*
X156967100Y-100084900I0J237500D01*
G01*
X156967100Y-99609900D01*
G75*
G02*
X157204600Y-99372400I237500J0D01*
G01*
X157704600Y-99372400D01*
G75*
G02*
X157942100Y-99609900I0J-237500D01*
G01*
G37*
G36*
G01*
X159767100Y-99609900D02*
X159767100Y-100084900D01*
G75*
G02*
X159529600Y-100322400I-237500J0D01*
G01*
X159029600Y-100322400D01*
G75*
G02*
X158792100Y-100084900I0J237500D01*
G01*
X158792100Y-99609900D01*
G75*
G02*
X159029600Y-99372400I237500J0D01*
G01*
X159529600Y-99372400D01*
G75*
G02*
X159767100Y-99609900I0J-237500D01*
G01*
G37*
G36*
G01*
X124984500Y-77236500D02*
X125459500Y-77236500D01*
G75*
G02*
X125697000Y-77474000I0J-237500D01*
G01*
X125697000Y-77974000D01*
G75*
G02*
X125459500Y-78211500I-237500J0D01*
G01*
X124984500Y-78211500D01*
G75*
G02*
X124747000Y-77974000I0J237500D01*
G01*
X124747000Y-77474000D01*
G75*
G02*
X124984500Y-77236500I237500J0D01*
G01*
G37*
G36*
G01*
X124984500Y-75411500D02*
X125459500Y-75411500D01*
G75*
G02*
X125697000Y-75649000I0J-237500D01*
G01*
X125697000Y-76149000D01*
G75*
G02*
X125459500Y-76386500I-237500J0D01*
G01*
X124984500Y-76386500D01*
G75*
G02*
X124747000Y-76149000I0J237500D01*
G01*
X124747000Y-75649000D01*
G75*
G02*
X124984500Y-75411500I237500J0D01*
G01*
G37*
G36*
G01*
X112505500Y-112755500D02*
X112030500Y-112755500D01*
G75*
G02*
X111793000Y-112518000I0J237500D01*
G01*
X111793000Y-112018000D01*
G75*
G02*
X112030500Y-111780500I237500J0D01*
G01*
X112505500Y-111780500D01*
G75*
G02*
X112743000Y-112018000I0J-237500D01*
G01*
X112743000Y-112518000D01*
G75*
G02*
X112505500Y-112755500I-237500J0D01*
G01*
G37*
G36*
G01*
X112505500Y-114580500D02*
X112030500Y-114580500D01*
G75*
G02*
X111793000Y-114343000I0J237500D01*
G01*
X111793000Y-113843000D01*
G75*
G02*
X112030500Y-113605500I237500J0D01*
G01*
X112505500Y-113605500D01*
G75*
G02*
X112743000Y-113843000I0J-237500D01*
G01*
X112743000Y-114343000D01*
G75*
G02*
X112505500Y-114580500I-237500J0D01*
G01*
G37*
G36*
G01*
X114537500Y-110723500D02*
X114062500Y-110723500D01*
G75*
G02*
X113825000Y-110486000I0J237500D01*
G01*
X113825000Y-109986000D01*
G75*
G02*
X114062500Y-109748500I237500J0D01*
G01*
X114537500Y-109748500D01*
G75*
G02*
X114775000Y-109986000I0J-237500D01*
G01*
X114775000Y-110486000D01*
G75*
G02*
X114537500Y-110723500I-237500J0D01*
G01*
G37*
G36*
G01*
X114537500Y-112548500D02*
X114062500Y-112548500D01*
G75*
G02*
X113825000Y-112311000I0J237500D01*
G01*
X113825000Y-111811000D01*
G75*
G02*
X114062500Y-111573500I237500J0D01*
G01*
X114537500Y-111573500D01*
G75*
G02*
X114775000Y-111811000I0J-237500D01*
G01*
X114775000Y-112311000D01*
G75*
G02*
X114537500Y-112548500I-237500J0D01*
G01*
G37*
G36*
G01*
X112505500Y-97515500D02*
X112030500Y-97515500D01*
G75*
G02*
X111793000Y-97278000I0J237500D01*
G01*
X111793000Y-96778000D01*
G75*
G02*
X112030500Y-96540500I237500J0D01*
G01*
X112505500Y-96540500D01*
G75*
G02*
X112743000Y-96778000I0J-237500D01*
G01*
X112743000Y-97278000D01*
G75*
G02*
X112505500Y-97515500I-237500J0D01*
G01*
G37*
G36*
G01*
X112505500Y-99340500D02*
X112030500Y-99340500D01*
G75*
G02*
X111793000Y-99103000I0J237500D01*
G01*
X111793000Y-98603000D01*
G75*
G02*
X112030500Y-98365500I237500J0D01*
G01*
X112505500Y-98365500D01*
G75*
G02*
X112743000Y-98603000I0J-237500D01*
G01*
X112743000Y-99103000D01*
G75*
G02*
X112505500Y-99340500I-237500J0D01*
G01*
G37*
G36*
G01*
X114537500Y-95483500D02*
X114062500Y-95483500D01*
G75*
G02*
X113825000Y-95246000I0J237500D01*
G01*
X113825000Y-94746000D01*
G75*
G02*
X114062500Y-94508500I237500J0D01*
G01*
X114537500Y-94508500D01*
G75*
G02*
X114775000Y-94746000I0J-237500D01*
G01*
X114775000Y-95246000D01*
G75*
G02*
X114537500Y-95483500I-237500J0D01*
G01*
G37*
G36*
G01*
X114537500Y-97308500D02*
X114062500Y-97308500D01*
G75*
G02*
X113825000Y-97071000I0J237500D01*
G01*
X113825000Y-96571000D01*
G75*
G02*
X114062500Y-96333500I237500J0D01*
G01*
X114537500Y-96333500D01*
G75*
G02*
X114775000Y-96571000I0J-237500D01*
G01*
X114775000Y-97071000D01*
G75*
G02*
X114537500Y-97308500I-237500J0D01*
G01*
G37*
G36*
G01*
X112505500Y-82275500D02*
X112030500Y-82275500D01*
G75*
G02*
X111793000Y-82038000I0J237500D01*
G01*
X111793000Y-81538000D01*
G75*
G02*
X112030500Y-81300500I237500J0D01*
G01*
X112505500Y-81300500D01*
G75*
G02*
X112743000Y-81538000I0J-237500D01*
G01*
X112743000Y-82038000D01*
G75*
G02*
X112505500Y-82275500I-237500J0D01*
G01*
G37*
G36*
G01*
X112505500Y-84100500D02*
X112030500Y-84100500D01*
G75*
G02*
X111793000Y-83863000I0J237500D01*
G01*
X111793000Y-83363000D01*
G75*
G02*
X112030500Y-83125500I237500J0D01*
G01*
X112505500Y-83125500D01*
G75*
G02*
X112743000Y-83363000I0J-237500D01*
G01*
X112743000Y-83863000D01*
G75*
G02*
X112505500Y-84100500I-237500J0D01*
G01*
G37*
G36*
G01*
X114537500Y-80243500D02*
X114062500Y-80243500D01*
G75*
G02*
X113825000Y-80006000I0J237500D01*
G01*
X113825000Y-79506000D01*
G75*
G02*
X114062500Y-79268500I237500J0D01*
G01*
X114537500Y-79268500D01*
G75*
G02*
X114775000Y-79506000I0J-237500D01*
G01*
X114775000Y-80006000D01*
G75*
G02*
X114537500Y-80243500I-237500J0D01*
G01*
G37*
G36*
G01*
X114537500Y-82068500D02*
X114062500Y-82068500D01*
G75*
G02*
X113825000Y-81831000I0J237500D01*
G01*
X113825000Y-81331000D01*
G75*
G02*
X114062500Y-81093500I237500J0D01*
G01*
X114537500Y-81093500D01*
G75*
G02*
X114775000Y-81331000I0J-237500D01*
G01*
X114775000Y-81831000D01*
G75*
G02*
X114537500Y-82068500I-237500J0D01*
G01*
G37*
G36*
G01*
X108390500Y-116094500D02*
X108390500Y-116569500D01*
G75*
G02*
X108153000Y-116807000I-237500J0D01*
G01*
X107653000Y-116807000D01*
G75*
G02*
X107415500Y-116569500I0J237500D01*
G01*
X107415500Y-116094500D01*
G75*
G02*
X107653000Y-115857000I237500J0D01*
G01*
X108153000Y-115857000D01*
G75*
G02*
X108390500Y-116094500I0J-237500D01*
G01*
G37*
G36*
G01*
X110215500Y-116094500D02*
X110215500Y-116569500D01*
G75*
G02*
X109978000Y-116807000I-237500J0D01*
G01*
X109478000Y-116807000D01*
G75*
G02*
X109240500Y-116569500I0J237500D01*
G01*
X109240500Y-116094500D01*
G75*
G02*
X109478000Y-115857000I237500J0D01*
G01*
X109978000Y-115857000D01*
G75*
G02*
X110215500Y-116094500I0J-237500D01*
G01*
G37*
G36*
G01*
X108390500Y-114062500D02*
X108390500Y-114537500D01*
G75*
G02*
X108153000Y-114775000I-237500J0D01*
G01*
X107653000Y-114775000D01*
G75*
G02*
X107415500Y-114537500I0J237500D01*
G01*
X107415500Y-114062500D01*
G75*
G02*
X107653000Y-113825000I237500J0D01*
G01*
X108153000Y-113825000D01*
G75*
G02*
X108390500Y-114062500I0J-237500D01*
G01*
G37*
G36*
G01*
X110215500Y-114062500D02*
X110215500Y-114537500D01*
G75*
G02*
X109978000Y-114775000I-237500J0D01*
G01*
X109478000Y-114775000D01*
G75*
G02*
X109240500Y-114537500I0J237500D01*
G01*
X109240500Y-114062500D01*
G75*
G02*
X109478000Y-113825000I237500J0D01*
G01*
X109978000Y-113825000D01*
G75*
G02*
X110215500Y-114062500I0J-237500D01*
G01*
G37*
G36*
G01*
X108390500Y-100854500D02*
X108390500Y-101329500D01*
G75*
G02*
X108153000Y-101567000I-237500J0D01*
G01*
X107653000Y-101567000D01*
G75*
G02*
X107415500Y-101329500I0J237500D01*
G01*
X107415500Y-100854500D01*
G75*
G02*
X107653000Y-100617000I237500J0D01*
G01*
X108153000Y-100617000D01*
G75*
G02*
X108390500Y-100854500I0J-237500D01*
G01*
G37*
G36*
G01*
X110215500Y-100854500D02*
X110215500Y-101329500D01*
G75*
G02*
X109978000Y-101567000I-237500J0D01*
G01*
X109478000Y-101567000D01*
G75*
G02*
X109240500Y-101329500I0J237500D01*
G01*
X109240500Y-100854500D01*
G75*
G02*
X109478000Y-100617000I237500J0D01*
G01*
X109978000Y-100617000D01*
G75*
G02*
X110215500Y-100854500I0J-237500D01*
G01*
G37*
G36*
G01*
X108390500Y-98822500D02*
X108390500Y-99297500D01*
G75*
G02*
X108153000Y-99535000I-237500J0D01*
G01*
X107653000Y-99535000D01*
G75*
G02*
X107415500Y-99297500I0J237500D01*
G01*
X107415500Y-98822500D01*
G75*
G02*
X107653000Y-98585000I237500J0D01*
G01*
X108153000Y-98585000D01*
G75*
G02*
X108390500Y-98822500I0J-237500D01*
G01*
G37*
G36*
G01*
X110215500Y-98822500D02*
X110215500Y-99297500D01*
G75*
G02*
X109978000Y-99535000I-237500J0D01*
G01*
X109478000Y-99535000D01*
G75*
G02*
X109240500Y-99297500I0J237500D01*
G01*
X109240500Y-98822500D01*
G75*
G02*
X109478000Y-98585000I237500J0D01*
G01*
X109978000Y-98585000D01*
G75*
G02*
X110215500Y-98822500I0J-237500D01*
G01*
G37*
G36*
G01*
X108390500Y-85614500D02*
X108390500Y-86089500D01*
G75*
G02*
X108153000Y-86327000I-237500J0D01*
G01*
X107653000Y-86327000D01*
G75*
G02*
X107415500Y-86089500I0J237500D01*
G01*
X107415500Y-85614500D01*
G75*
G02*
X107653000Y-85377000I237500J0D01*
G01*
X108153000Y-85377000D01*
G75*
G02*
X108390500Y-85614500I0J-237500D01*
G01*
G37*
G36*
G01*
X110215500Y-85614500D02*
X110215500Y-86089500D01*
G75*
G02*
X109978000Y-86327000I-237500J0D01*
G01*
X109478000Y-86327000D01*
G75*
G02*
X109240500Y-86089500I0J237500D01*
G01*
X109240500Y-85614500D01*
G75*
G02*
X109478000Y-85377000I237500J0D01*
G01*
X109978000Y-85377000D01*
G75*
G02*
X110215500Y-85614500I0J-237500D01*
G01*
G37*
G36*
G01*
X108390500Y-83582500D02*
X108390500Y-84057500D01*
G75*
G02*
X108153000Y-84295000I-237500J0D01*
G01*
X107653000Y-84295000D01*
G75*
G02*
X107415500Y-84057500I0J237500D01*
G01*
X107415500Y-83582500D01*
G75*
G02*
X107653000Y-83345000I237500J0D01*
G01*
X108153000Y-83345000D01*
G75*
G02*
X108390500Y-83582500I0J-237500D01*
G01*
G37*
G36*
G01*
X110215500Y-83582500D02*
X110215500Y-84057500D01*
G75*
G02*
X109978000Y-84295000I-237500J0D01*
G01*
X109478000Y-84295000D01*
G75*
G02*
X109240500Y-84057500I0J237500D01*
G01*
X109240500Y-83582500D01*
G75*
G02*
X109478000Y-83345000I237500J0D01*
G01*
X109978000Y-83345000D01*
G75*
G02*
X110215500Y-83582500I0J-237500D01*
G01*
G37*
G36*
G01*
X168977000Y-110801999D02*
X168977000Y-111702001D01*
G75*
G02*
X168727001Y-111952000I-249999J0D01*
G01*
X168076999Y-111952000D01*
G75*
G02*
X167827000Y-111702001I0J249999D01*
G01*
X167827000Y-110801999D01*
G75*
G02*
X168076999Y-110552000I249999J0D01*
G01*
X168727001Y-110552000D01*
G75*
G02*
X168977000Y-110801999I0J-249999D01*
G01*
G37*
G36*
G01*
X171027000Y-110801999D02*
X171027000Y-111702001D01*
G75*
G02*
X170777001Y-111952000I-249999J0D01*
G01*
X170126999Y-111952000D01*
G75*
G02*
X169877000Y-111702001I0J249999D01*
G01*
X169877000Y-110801999D01*
G75*
G02*
X170126999Y-110552000I249999J0D01*
G01*
X170777001Y-110552000D01*
G75*
G02*
X171027000Y-110801999I0J-249999D01*
G01*
G37*
G36*
G01*
X117318500Y-72373500D02*
X117318500Y-71898500D01*
G75*
G02*
X117556000Y-71661000I237500J0D01*
G01*
X118156000Y-71661000D01*
G75*
G02*
X118393500Y-71898500I0J-237500D01*
G01*
X118393500Y-72373500D01*
G75*
G02*
X118156000Y-72611000I-237500J0D01*
G01*
X117556000Y-72611000D01*
G75*
G02*
X117318500Y-72373500I0J237500D01*
G01*
G37*
G36*
G01*
X115593500Y-72373500D02*
X115593500Y-71898500D01*
G75*
G02*
X115831000Y-71661000I237500J0D01*
G01*
X116431000Y-71661000D01*
G75*
G02*
X116668500Y-71898500I0J-237500D01*
G01*
X116668500Y-72373500D01*
G75*
G02*
X116431000Y-72611000I-237500J0D01*
G01*
X115831000Y-72611000D01*
G75*
G02*
X115593500Y-72373500I0J237500D01*
G01*
G37*
G36*
G01*
X152116500Y-111743500D02*
X152116500Y-111268500D01*
G75*
G02*
X152354000Y-111031000I237500J0D01*
G01*
X152954000Y-111031000D01*
G75*
G02*
X153191500Y-111268500I0J-237500D01*
G01*
X153191500Y-111743500D01*
G75*
G02*
X152954000Y-111981000I-237500J0D01*
G01*
X152354000Y-111981000D01*
G75*
G02*
X152116500Y-111743500I0J237500D01*
G01*
G37*
G36*
G01*
X150391500Y-111743500D02*
X150391500Y-111268500D01*
G75*
G02*
X150629000Y-111031000I237500J0D01*
G01*
X151229000Y-111031000D01*
G75*
G02*
X151466500Y-111268500I0J-237500D01*
G01*
X151466500Y-111743500D01*
G75*
G02*
X151229000Y-111981000I-237500J0D01*
G01*
X150629000Y-111981000D01*
G75*
G02*
X150391500Y-111743500I0J237500D01*
G01*
G37*
G36*
G01*
X152116500Y-118093500D02*
X152116500Y-117618500D01*
G75*
G02*
X152354000Y-117381000I237500J0D01*
G01*
X152954000Y-117381000D01*
G75*
G02*
X153191500Y-117618500I0J-237500D01*
G01*
X153191500Y-118093500D01*
G75*
G02*
X152954000Y-118331000I-237500J0D01*
G01*
X152354000Y-118331000D01*
G75*
G02*
X152116500Y-118093500I0J237500D01*
G01*
G37*
G36*
G01*
X150391500Y-118093500D02*
X150391500Y-117618500D01*
G75*
G02*
X150629000Y-117381000I237500J0D01*
G01*
X151229000Y-117381000D01*
G75*
G02*
X151466500Y-117618500I0J-237500D01*
G01*
X151466500Y-118093500D01*
G75*
G02*
X151229000Y-118331000I-237500J0D01*
G01*
X150629000Y-118331000D01*
G75*
G02*
X150391500Y-118093500I0J237500D01*
G01*
G37*
G36*
G01*
X133536700Y-95027700D02*
X133061700Y-95027700D01*
G75*
G02*
X132824200Y-94790200I0J237500D01*
G01*
X132824200Y-94190200D01*
G75*
G02*
X133061700Y-93952700I237500J0D01*
G01*
X133536700Y-93952700D01*
G75*
G02*
X133774200Y-94190200I0J-237500D01*
G01*
X133774200Y-94790200D01*
G75*
G02*
X133536700Y-95027700I-237500J0D01*
G01*
G37*
G36*
G01*
X133536700Y-96752700D02*
X133061700Y-96752700D01*
G75*
G02*
X132824200Y-96515200I0J237500D01*
G01*
X132824200Y-95915200D01*
G75*
G02*
X133061700Y-95677700I237500J0D01*
G01*
X133536700Y-95677700D01*
G75*
G02*
X133774200Y-95915200I0J-237500D01*
G01*
X133774200Y-96515200D01*
G75*
G02*
X133536700Y-96752700I-237500J0D01*
G01*
G37*
G36*
G01*
X135873500Y-95025500D02*
X135398500Y-95025500D01*
G75*
G02*
X135161000Y-94788000I0J237500D01*
G01*
X135161000Y-94188000D01*
G75*
G02*
X135398500Y-93950500I237500J0D01*
G01*
X135873500Y-93950500D01*
G75*
G02*
X136111000Y-94188000I0J-237500D01*
G01*
X136111000Y-94788000D01*
G75*
G02*
X135873500Y-95025500I-237500J0D01*
G01*
G37*
G36*
G01*
X135873500Y-96750500D02*
X135398500Y-96750500D01*
G75*
G02*
X135161000Y-96513000I0J237500D01*
G01*
X135161000Y-95913000D01*
G75*
G02*
X135398500Y-95675500I237500J0D01*
G01*
X135873500Y-95675500D01*
G75*
G02*
X136111000Y-95913000I0J-237500D01*
G01*
X136111000Y-96513000D01*
G75*
G02*
X135873500Y-96750500I-237500J0D01*
G01*
G37*
G36*
G01*
X152416500Y-94204500D02*
X152891500Y-94204500D01*
G75*
G02*
X153129000Y-94442000I0J-237500D01*
G01*
X153129000Y-95042000D01*
G75*
G02*
X152891500Y-95279500I-237500J0D01*
G01*
X152416500Y-95279500D01*
G75*
G02*
X152179000Y-95042000I0J237500D01*
G01*
X152179000Y-94442000D01*
G75*
G02*
X152416500Y-94204500I237500J0D01*
G01*
G37*
G36*
G01*
X152416500Y-92479500D02*
X152891500Y-92479500D01*
G75*
G02*
X153129000Y-92717000I0J-237500D01*
G01*
X153129000Y-93317000D01*
G75*
G02*
X152891500Y-93554500I-237500J0D01*
G01*
X152416500Y-93554500D01*
G75*
G02*
X152179000Y-93317000I0J237500D01*
G01*
X152179000Y-92717000D01*
G75*
G02*
X152416500Y-92479500I237500J0D01*
G01*
G37*
G36*
G01*
X134321500Y-103140500D02*
X134321500Y-103615500D01*
G75*
G02*
X134084000Y-103853000I-237500J0D01*
G01*
X133484000Y-103853000D01*
G75*
G02*
X133246500Y-103615500I0J237500D01*
G01*
X133246500Y-103140500D01*
G75*
G02*
X133484000Y-102903000I237500J0D01*
G01*
X134084000Y-102903000D01*
G75*
G02*
X134321500Y-103140500I0J-237500D01*
G01*
G37*
G36*
G01*
X136046500Y-103140500D02*
X136046500Y-103615500D01*
G75*
G02*
X135809000Y-103853000I-237500J0D01*
G01*
X135209000Y-103853000D01*
G75*
G02*
X134971500Y-103615500I0J237500D01*
G01*
X134971500Y-103140500D01*
G75*
G02*
X135209000Y-102903000I237500J0D01*
G01*
X135809000Y-102903000D01*
G75*
G02*
X136046500Y-103140500I0J-237500D01*
G01*
G37*
G36*
G01*
X148619500Y-106518700D02*
X148619500Y-106993700D01*
G75*
G02*
X148382000Y-107231200I-237500J0D01*
G01*
X147782000Y-107231200D01*
G75*
G02*
X147544500Y-106993700I0J237500D01*
G01*
X147544500Y-106518700D01*
G75*
G02*
X147782000Y-106281200I237500J0D01*
G01*
X148382000Y-106281200D01*
G75*
G02*
X148619500Y-106518700I0J-237500D01*
G01*
G37*
G36*
G01*
X150344500Y-106518700D02*
X150344500Y-106993700D01*
G75*
G02*
X150107000Y-107231200I-237500J0D01*
G01*
X149507000Y-107231200D01*
G75*
G02*
X149269500Y-106993700I0J237500D01*
G01*
X149269500Y-106518700D01*
G75*
G02*
X149507000Y-106281200I237500J0D01*
G01*
X150107000Y-106281200D01*
G75*
G02*
X150344500Y-106518700I0J-237500D01*
G01*
G37*
G36*
G01*
X142015500Y-73930500D02*
X142015500Y-74405500D01*
G75*
G02*
X141778000Y-74643000I-237500J0D01*
G01*
X141178000Y-74643000D01*
G75*
G02*
X140940500Y-74405500I0J237500D01*
G01*
X140940500Y-73930500D01*
G75*
G02*
X141178000Y-73693000I237500J0D01*
G01*
X141778000Y-73693000D01*
G75*
G02*
X142015500Y-73930500I0J-237500D01*
G01*
G37*
G36*
G01*
X143740500Y-73930500D02*
X143740500Y-74405500D01*
G75*
G02*
X143503000Y-74643000I-237500J0D01*
G01*
X142903000Y-74643000D01*
G75*
G02*
X142665500Y-74405500I0J237500D01*
G01*
X142665500Y-73930500D01*
G75*
G02*
X142903000Y-73693000I237500J0D01*
G01*
X143503000Y-73693000D01*
G75*
G02*
X143740500Y-73930500I0J-237500D01*
G01*
G37*
G36*
G01*
X153345000Y-73930500D02*
X153345000Y-74405500D01*
G75*
G02*
X153107500Y-74643000I-237500J0D01*
G01*
X152507500Y-74643000D01*
G75*
G02*
X152270000Y-74405500I0J237500D01*
G01*
X152270000Y-73930500D01*
G75*
G02*
X152507500Y-73693000I237500J0D01*
G01*
X153107500Y-73693000D01*
G75*
G02*
X153345000Y-73930500I0J-237500D01*
G01*
G37*
G36*
G01*
X155070000Y-73930500D02*
X155070000Y-74405500D01*
G75*
G02*
X154832500Y-74643000I-237500J0D01*
G01*
X154232500Y-74643000D01*
G75*
G02*
X153995000Y-74405500I0J237500D01*
G01*
X153995000Y-73930500D01*
G75*
G02*
X154232500Y-73693000I237500J0D01*
G01*
X154832500Y-73693000D01*
G75*
G02*
X155070000Y-73930500I0J-237500D01*
G01*
G37*
G36*
G01*
X149843500Y-72726500D02*
X149368500Y-72726500D01*
G75*
G02*
X149131000Y-72489000I0J237500D01*
G01*
X149131000Y-71889000D01*
G75*
G02*
X149368500Y-71651500I237500J0D01*
G01*
X149843500Y-71651500D01*
G75*
G02*
X150081000Y-71889000I0J-237500D01*
G01*
X150081000Y-72489000D01*
G75*
G02*
X149843500Y-72726500I-237500J0D01*
G01*
G37*
G36*
G01*
X149843500Y-74451500D02*
X149368500Y-74451500D01*
G75*
G02*
X149131000Y-74214000I0J237500D01*
G01*
X149131000Y-73614000D01*
G75*
G02*
X149368500Y-73376500I237500J0D01*
G01*
X149843500Y-73376500D01*
G75*
G02*
X150081000Y-73614000I0J-237500D01*
G01*
X150081000Y-74214000D01*
G75*
G02*
X149843500Y-74451500I-237500J0D01*
G01*
G37*
G36*
G01*
X134321500Y-101184700D02*
X134321500Y-101659700D01*
G75*
G02*
X134084000Y-101897200I-237500J0D01*
G01*
X133484000Y-101897200D01*
G75*
G02*
X133246500Y-101659700I0J237500D01*
G01*
X133246500Y-101184700D01*
G75*
G02*
X133484000Y-100947200I237500J0D01*
G01*
X134084000Y-100947200D01*
G75*
G02*
X134321500Y-101184700I0J-237500D01*
G01*
G37*
G36*
G01*
X136046500Y-101184700D02*
X136046500Y-101659700D01*
G75*
G02*
X135809000Y-101897200I-237500J0D01*
G01*
X135209000Y-101897200D01*
G75*
G02*
X134971500Y-101659700I0J237500D01*
G01*
X134971500Y-101184700D01*
G75*
G02*
X135209000Y-100947200I237500J0D01*
G01*
X135809000Y-100947200D01*
G75*
G02*
X136046500Y-101184700I0J-237500D01*
G01*
G37*
G36*
G01*
X162123000Y-74405500D02*
X162123000Y-73930500D01*
G75*
G02*
X162360500Y-73693000I237500J0D01*
G01*
X162960500Y-73693000D01*
G75*
G02*
X163198000Y-73930500I0J-237500D01*
G01*
X163198000Y-74405500D01*
G75*
G02*
X162960500Y-74643000I-237500J0D01*
G01*
X162360500Y-74643000D01*
G75*
G02*
X162123000Y-74405500I0J237500D01*
G01*
G37*
G36*
G01*
X160398000Y-74405500D02*
X160398000Y-73930500D01*
G75*
G02*
X160635500Y-73693000I237500J0D01*
G01*
X161235500Y-73693000D01*
G75*
G02*
X161473000Y-73930500I0J-237500D01*
G01*
X161473000Y-74405500D01*
G75*
G02*
X161235500Y-74643000I-237500J0D01*
G01*
X160635500Y-74643000D01*
G75*
G02*
X160398000Y-74405500I0J237500D01*
G01*
G37*
G36*
G01*
X135365500Y-90961500D02*
X134890500Y-90961500D01*
G75*
G02*
X134653000Y-90724000I0J237500D01*
G01*
X134653000Y-90124000D01*
G75*
G02*
X134890500Y-89886500I237500J0D01*
G01*
X135365500Y-89886500D01*
G75*
G02*
X135603000Y-90124000I0J-237500D01*
G01*
X135603000Y-90724000D01*
G75*
G02*
X135365500Y-90961500I-237500J0D01*
G01*
G37*
G36*
G01*
X135365500Y-92686500D02*
X134890500Y-92686500D01*
G75*
G02*
X134653000Y-92449000I0J237500D01*
G01*
X134653000Y-91849000D01*
G75*
G02*
X134890500Y-91611500I237500J0D01*
G01*
X135365500Y-91611500D01*
G75*
G02*
X135603000Y-91849000I0J-237500D01*
G01*
X135603000Y-92449000D01*
G75*
G02*
X135365500Y-92686500I-237500J0D01*
G01*
G37*
G36*
G01*
X152889800Y-89213700D02*
X152889800Y-88738700D01*
G75*
G02*
X153127300Y-88501200I237500J0D01*
G01*
X153727300Y-88501200D01*
G75*
G02*
X153964800Y-88738700I0J-237500D01*
G01*
X153964800Y-89213700D01*
G75*
G02*
X153727300Y-89451200I-237500J0D01*
G01*
X153127300Y-89451200D01*
G75*
G02*
X152889800Y-89213700I0J237500D01*
G01*
G37*
G36*
G01*
X151164800Y-89213700D02*
X151164800Y-88738700D01*
G75*
G02*
X151402300Y-88501200I237500J0D01*
G01*
X152002300Y-88501200D01*
G75*
G02*
X152239800Y-88738700I0J-237500D01*
G01*
X152239800Y-89213700D01*
G75*
G02*
X152002300Y-89451200I-237500J0D01*
G01*
X151402300Y-89451200D01*
G75*
G02*
X151164800Y-89213700I0J237500D01*
G01*
G37*
G36*
G01*
X155694800Y-88738700D02*
X155694800Y-89213700D01*
G75*
G02*
X155457300Y-89451200I-237500J0D01*
G01*
X154857300Y-89451200D01*
G75*
G02*
X154619800Y-89213700I0J237500D01*
G01*
X154619800Y-88738700D01*
G75*
G02*
X154857300Y-88501200I237500J0D01*
G01*
X155457300Y-88501200D01*
G75*
G02*
X155694800Y-88738700I0J-237500D01*
G01*
G37*
G36*
G01*
X157419800Y-88738700D02*
X157419800Y-89213700D01*
G75*
G02*
X157182300Y-89451200I-237500J0D01*
G01*
X156582300Y-89451200D01*
G75*
G02*
X156344800Y-89213700I0J237500D01*
G01*
X156344800Y-88738700D01*
G75*
G02*
X156582300Y-88501200I237500J0D01*
G01*
X157182300Y-88501200D01*
G75*
G02*
X157419800Y-88738700I0J-237500D01*
G01*
G37*
G36*
G01*
X142057000Y-81263500D02*
X142057000Y-80788500D01*
G75*
G02*
X142294500Y-80551000I237500J0D01*
G01*
X142894500Y-80551000D01*
G75*
G02*
X143132000Y-80788500I0J-237500D01*
G01*
X143132000Y-81263500D01*
G75*
G02*
X142894500Y-81501000I-237500J0D01*
G01*
X142294500Y-81501000D01*
G75*
G02*
X142057000Y-81263500I0J237500D01*
G01*
G37*
G36*
G01*
X140332000Y-81263500D02*
X140332000Y-80788500D01*
G75*
G02*
X140569500Y-80551000I237500J0D01*
G01*
X141169500Y-80551000D01*
G75*
G02*
X141407000Y-80788500I0J-237500D01*
G01*
X141407000Y-81263500D01*
G75*
G02*
X141169500Y-81501000I-237500J0D01*
G01*
X140569500Y-81501000D01*
G75*
G02*
X140332000Y-81263500I0J237500D01*
G01*
G37*
G36*
G01*
X130638500Y-111522500D02*
X130638500Y-111997500D01*
G75*
G02*
X130401000Y-112235000I-237500J0D01*
G01*
X129801000Y-112235000D01*
G75*
G02*
X129563500Y-111997500I0J237500D01*
G01*
X129563500Y-111522500D01*
G75*
G02*
X129801000Y-111285000I237500J0D01*
G01*
X130401000Y-111285000D01*
G75*
G02*
X130638500Y-111522500I0J-237500D01*
G01*
G37*
G36*
G01*
X132363500Y-111522500D02*
X132363500Y-111997500D01*
G75*
G02*
X132126000Y-112235000I-237500J0D01*
G01*
X131526000Y-112235000D01*
G75*
G02*
X131288500Y-111997500I0J237500D01*
G01*
X131288500Y-111522500D01*
G75*
G02*
X131526000Y-111285000I237500J0D01*
G01*
X132126000Y-111285000D01*
G75*
G02*
X132363500Y-111522500I0J-237500D01*
G01*
G37*
G36*
G01*
X122843300Y-107217500D02*
X122368300Y-107217500D01*
G75*
G02*
X122130800Y-106980000I0J237500D01*
G01*
X122130800Y-106380000D01*
G75*
G02*
X122368300Y-106142500I237500J0D01*
G01*
X122843300Y-106142500D01*
G75*
G02*
X123080800Y-106380000I0J-237500D01*
G01*
X123080800Y-106980000D01*
G75*
G02*
X122843300Y-107217500I-237500J0D01*
G01*
G37*
G36*
G01*
X122843300Y-108942500D02*
X122368300Y-108942500D01*
G75*
G02*
X122130800Y-108705000I0J237500D01*
G01*
X122130800Y-108105000D01*
G75*
G02*
X122368300Y-107867500I237500J0D01*
G01*
X122843300Y-107867500D01*
G75*
G02*
X123080800Y-108105000I0J-237500D01*
G01*
X123080800Y-108705000D01*
G75*
G02*
X122843300Y-108942500I-237500J0D01*
G01*
G37*
G36*
G01*
X122919500Y-92030500D02*
X122444500Y-92030500D01*
G75*
G02*
X122207000Y-91793000I0J237500D01*
G01*
X122207000Y-91193000D01*
G75*
G02*
X122444500Y-90955500I237500J0D01*
G01*
X122919500Y-90955500D01*
G75*
G02*
X123157000Y-91193000I0J-237500D01*
G01*
X123157000Y-91793000D01*
G75*
G02*
X122919500Y-92030500I-237500J0D01*
G01*
G37*
G36*
G01*
X122919500Y-93755500D02*
X122444500Y-93755500D01*
G75*
G02*
X122207000Y-93518000I0J237500D01*
G01*
X122207000Y-92918000D01*
G75*
G02*
X122444500Y-92680500I237500J0D01*
G01*
X122919500Y-92680500D01*
G75*
G02*
X123157000Y-92918000I0J-237500D01*
G01*
X123157000Y-93518000D01*
G75*
G02*
X122919500Y-93755500I-237500J0D01*
G01*
G37*
G36*
G01*
X123427500Y-76536500D02*
X122952500Y-76536500D01*
G75*
G02*
X122715000Y-76299000I0J237500D01*
G01*
X122715000Y-75699000D01*
G75*
G02*
X122952500Y-75461500I237500J0D01*
G01*
X123427500Y-75461500D01*
G75*
G02*
X123665000Y-75699000I0J-237500D01*
G01*
X123665000Y-76299000D01*
G75*
G02*
X123427500Y-76536500I-237500J0D01*
G01*
G37*
G36*
G01*
X123427500Y-78261500D02*
X122952500Y-78261500D01*
G75*
G02*
X122715000Y-78024000I0J237500D01*
G01*
X122715000Y-77424000D01*
G75*
G02*
X122952500Y-77186500I237500J0D01*
G01*
X123427500Y-77186500D01*
G75*
G02*
X123665000Y-77424000I0J-237500D01*
G01*
X123665000Y-78024000D01*
G75*
G02*
X123427500Y-78261500I-237500J0D01*
G01*
G37*
G36*
G01*
X129302500Y-115233500D02*
X129777500Y-115233500D01*
G75*
G02*
X130015000Y-115471000I0J-237500D01*
G01*
X130015000Y-116071000D01*
G75*
G02*
X129777500Y-116308500I-237500J0D01*
G01*
X129302500Y-116308500D01*
G75*
G02*
X129065000Y-116071000I0J237500D01*
G01*
X129065000Y-115471000D01*
G75*
G02*
X129302500Y-115233500I237500J0D01*
G01*
G37*
G36*
G01*
X129302500Y-113508500D02*
X129777500Y-113508500D01*
G75*
G02*
X130015000Y-113746000I0J-237500D01*
G01*
X130015000Y-114346000D01*
G75*
G02*
X129777500Y-114583500I-237500J0D01*
G01*
X129302500Y-114583500D01*
G75*
G02*
X129065000Y-114346000I0J237500D01*
G01*
X129065000Y-113746000D01*
G75*
G02*
X129302500Y-113508500I237500J0D01*
G01*
G37*
G36*
G01*
X117364500Y-107867500D02*
X117839500Y-107867500D01*
G75*
G02*
X118077000Y-108105000I0J-237500D01*
G01*
X118077000Y-108705000D01*
G75*
G02*
X117839500Y-108942500I-237500J0D01*
G01*
X117364500Y-108942500D01*
G75*
G02*
X117127000Y-108705000I0J237500D01*
G01*
X117127000Y-108105000D01*
G75*
G02*
X117364500Y-107867500I237500J0D01*
G01*
G37*
G36*
G01*
X117364500Y-106142500D02*
X117839500Y-106142500D01*
G75*
G02*
X118077000Y-106380000I0J-237500D01*
G01*
X118077000Y-106980000D01*
G75*
G02*
X117839500Y-107217500I-237500J0D01*
G01*
X117364500Y-107217500D01*
G75*
G02*
X117127000Y-106980000I0J237500D01*
G01*
X117127000Y-106380000D01*
G75*
G02*
X117364500Y-106142500I237500J0D01*
G01*
G37*
G36*
G01*
X117110500Y-92627500D02*
X117585500Y-92627500D01*
G75*
G02*
X117823000Y-92865000I0J-237500D01*
G01*
X117823000Y-93465000D01*
G75*
G02*
X117585500Y-93702500I-237500J0D01*
G01*
X117110500Y-93702500D01*
G75*
G02*
X116873000Y-93465000I0J237500D01*
G01*
X116873000Y-92865000D01*
G75*
G02*
X117110500Y-92627500I237500J0D01*
G01*
G37*
G36*
G01*
X117110500Y-90902500D02*
X117585500Y-90902500D01*
G75*
G02*
X117823000Y-91140000I0J-237500D01*
G01*
X117823000Y-91740000D01*
G75*
G02*
X117585500Y-91977500I-237500J0D01*
G01*
X117110500Y-91977500D01*
G75*
G02*
X116873000Y-91740000I0J237500D01*
G01*
X116873000Y-91140000D01*
G75*
G02*
X117110500Y-90902500I237500J0D01*
G01*
G37*
G36*
G01*
X127016500Y-115233500D02*
X127491500Y-115233500D01*
G75*
G02*
X127729000Y-115471000I0J-237500D01*
G01*
X127729000Y-116071000D01*
G75*
G02*
X127491500Y-116308500I-237500J0D01*
G01*
X127016500Y-116308500D01*
G75*
G02*
X126779000Y-116071000I0J237500D01*
G01*
X126779000Y-115471000D01*
G75*
G02*
X127016500Y-115233500I237500J0D01*
G01*
G37*
G36*
G01*
X127016500Y-113508500D02*
X127491500Y-113508500D01*
G75*
G02*
X127729000Y-113746000I0J-237500D01*
G01*
X127729000Y-114346000D01*
G75*
G02*
X127491500Y-114583500I-237500J0D01*
G01*
X127016500Y-114583500D01*
G75*
G02*
X126779000Y-114346000I0J237500D01*
G01*
X126779000Y-113746000D01*
G75*
G02*
X127016500Y-113508500I237500J0D01*
G01*
G37*
G36*
G01*
X164166500Y-80534500D02*
X164166500Y-81009500D01*
G75*
G02*
X163929000Y-81247000I-237500J0D01*
G01*
X163329000Y-81247000D01*
G75*
G02*
X163091500Y-81009500I0J237500D01*
G01*
X163091500Y-80534500D01*
G75*
G02*
X163329000Y-80297000I237500J0D01*
G01*
X163929000Y-80297000D01*
G75*
G02*
X164166500Y-80534500I0J-237500D01*
G01*
G37*
G36*
G01*
X165891500Y-80534500D02*
X165891500Y-81009500D01*
G75*
G02*
X165654000Y-81247000I-237500J0D01*
G01*
X165054000Y-81247000D01*
G75*
G02*
X164816500Y-81009500I0J237500D01*
G01*
X164816500Y-80534500D01*
G75*
G02*
X165054000Y-80297000I237500J0D01*
G01*
X165654000Y-80297000D01*
G75*
G02*
X165891500Y-80534500I0J-237500D01*
G01*
G37*
G36*
G01*
X114537500Y-114583500D02*
X114062500Y-114583500D01*
G75*
G02*
X113825000Y-114346000I0J237500D01*
G01*
X113825000Y-113746000D01*
G75*
G02*
X114062500Y-113508500I237500J0D01*
G01*
X114537500Y-113508500D01*
G75*
G02*
X114775000Y-113746000I0J-237500D01*
G01*
X114775000Y-114346000D01*
G75*
G02*
X114537500Y-114583500I-237500J0D01*
G01*
G37*
G36*
G01*
X114537500Y-116308500D02*
X114062500Y-116308500D01*
G75*
G02*
X113825000Y-116071000I0J237500D01*
G01*
X113825000Y-115471000D01*
G75*
G02*
X114062500Y-115233500I237500J0D01*
G01*
X114537500Y-115233500D01*
G75*
G02*
X114775000Y-115471000I0J-237500D01*
G01*
X114775000Y-116071000D01*
G75*
G02*
X114537500Y-116308500I-237500J0D01*
G01*
G37*
G36*
G01*
X114537500Y-99343500D02*
X114062500Y-99343500D01*
G75*
G02*
X113825000Y-99106000I0J237500D01*
G01*
X113825000Y-98506000D01*
G75*
G02*
X114062500Y-98268500I237500J0D01*
G01*
X114537500Y-98268500D01*
G75*
G02*
X114775000Y-98506000I0J-237500D01*
G01*
X114775000Y-99106000D01*
G75*
G02*
X114537500Y-99343500I-237500J0D01*
G01*
G37*
G36*
G01*
X114537500Y-101068500D02*
X114062500Y-101068500D01*
G75*
G02*
X113825000Y-100831000I0J237500D01*
G01*
X113825000Y-100231000D01*
G75*
G02*
X114062500Y-99993500I237500J0D01*
G01*
X114537500Y-99993500D01*
G75*
G02*
X114775000Y-100231000I0J-237500D01*
G01*
X114775000Y-100831000D01*
G75*
G02*
X114537500Y-101068500I-237500J0D01*
G01*
G37*
G36*
G01*
X114537500Y-84103500D02*
X114062500Y-84103500D01*
G75*
G02*
X113825000Y-83866000I0J237500D01*
G01*
X113825000Y-83266000D01*
G75*
G02*
X114062500Y-83028500I237500J0D01*
G01*
X114537500Y-83028500D01*
G75*
G02*
X114775000Y-83266000I0J-237500D01*
G01*
X114775000Y-83866000D01*
G75*
G02*
X114537500Y-84103500I-237500J0D01*
G01*
G37*
G36*
G01*
X114537500Y-85828500D02*
X114062500Y-85828500D01*
G75*
G02*
X113825000Y-85591000I0J237500D01*
G01*
X113825000Y-84991000D01*
G75*
G02*
X114062500Y-84753500I237500J0D01*
G01*
X114537500Y-84753500D01*
G75*
G02*
X114775000Y-84991000I0J-237500D01*
G01*
X114775000Y-85591000D01*
G75*
G02*
X114537500Y-85828500I-237500J0D01*
G01*
G37*
G36*
G01*
X112030500Y-117265500D02*
X112505500Y-117265500D01*
G75*
G02*
X112743000Y-117503000I0J-237500D01*
G01*
X112743000Y-118103000D01*
G75*
G02*
X112505500Y-118340500I-237500J0D01*
G01*
X112030500Y-118340500D01*
G75*
G02*
X111793000Y-118103000I0J237500D01*
G01*
X111793000Y-117503000D01*
G75*
G02*
X112030500Y-117265500I237500J0D01*
G01*
G37*
G36*
G01*
X112030500Y-115540500D02*
X112505500Y-115540500D01*
G75*
G02*
X112743000Y-115778000I0J-237500D01*
G01*
X112743000Y-116378000D01*
G75*
G02*
X112505500Y-116615500I-237500J0D01*
G01*
X112030500Y-116615500D01*
G75*
G02*
X111793000Y-116378000I0J237500D01*
G01*
X111793000Y-115778000D01*
G75*
G02*
X112030500Y-115540500I237500J0D01*
G01*
G37*
G36*
G01*
X109490500Y-110915500D02*
X109965500Y-110915500D01*
G75*
G02*
X110203000Y-111153000I0J-237500D01*
G01*
X110203000Y-111753000D01*
G75*
G02*
X109965500Y-111990500I-237500J0D01*
G01*
X109490500Y-111990500D01*
G75*
G02*
X109253000Y-111753000I0J237500D01*
G01*
X109253000Y-111153000D01*
G75*
G02*
X109490500Y-110915500I237500J0D01*
G01*
G37*
G36*
G01*
X109490500Y-109190500D02*
X109965500Y-109190500D01*
G75*
G02*
X110203000Y-109428000I0J-237500D01*
G01*
X110203000Y-110028000D01*
G75*
G02*
X109965500Y-110265500I-237500J0D01*
G01*
X109490500Y-110265500D01*
G75*
G02*
X109253000Y-110028000I0J237500D01*
G01*
X109253000Y-109428000D01*
G75*
G02*
X109490500Y-109190500I237500J0D01*
G01*
G37*
G36*
G01*
X109556500Y-105426500D02*
X109556500Y-105901500D01*
G75*
G02*
X109319000Y-106139000I-237500J0D01*
G01*
X108719000Y-106139000D01*
G75*
G02*
X108481500Y-105901500I0J237500D01*
G01*
X108481500Y-105426500D01*
G75*
G02*
X108719000Y-105189000I237500J0D01*
G01*
X109319000Y-105189000D01*
G75*
G02*
X109556500Y-105426500I0J-237500D01*
G01*
G37*
G36*
G01*
X111281500Y-105426500D02*
X111281500Y-105901500D01*
G75*
G02*
X111044000Y-106139000I-237500J0D01*
G01*
X110444000Y-106139000D01*
G75*
G02*
X110206500Y-105901500I0J237500D01*
G01*
X110206500Y-105426500D01*
G75*
G02*
X110444000Y-105189000I237500J0D01*
G01*
X111044000Y-105189000D01*
G75*
G02*
X111281500Y-105426500I0J-237500D01*
G01*
G37*
G36*
G01*
X112030500Y-102025500D02*
X112505500Y-102025500D01*
G75*
G02*
X112743000Y-102263000I0J-237500D01*
G01*
X112743000Y-102863000D01*
G75*
G02*
X112505500Y-103100500I-237500J0D01*
G01*
X112030500Y-103100500D01*
G75*
G02*
X111793000Y-102863000I0J237500D01*
G01*
X111793000Y-102263000D01*
G75*
G02*
X112030500Y-102025500I237500J0D01*
G01*
G37*
G36*
G01*
X112030500Y-100300500D02*
X112505500Y-100300500D01*
G75*
G02*
X112743000Y-100538000I0J-237500D01*
G01*
X112743000Y-101138000D01*
G75*
G02*
X112505500Y-101375500I-237500J0D01*
G01*
X112030500Y-101375500D01*
G75*
G02*
X111793000Y-101138000I0J237500D01*
G01*
X111793000Y-100538000D01*
G75*
G02*
X112030500Y-100300500I237500J0D01*
G01*
G37*
G36*
G01*
X109490500Y-95675500D02*
X109965500Y-95675500D01*
G75*
G02*
X110203000Y-95913000I0J-237500D01*
G01*
X110203000Y-96513000D01*
G75*
G02*
X109965500Y-96750500I-237500J0D01*
G01*
X109490500Y-96750500D01*
G75*
G02*
X109253000Y-96513000I0J237500D01*
G01*
X109253000Y-95913000D01*
G75*
G02*
X109490500Y-95675500I237500J0D01*
G01*
G37*
G36*
G01*
X109490500Y-93950500D02*
X109965500Y-93950500D01*
G75*
G02*
X110203000Y-94188000I0J-237500D01*
G01*
X110203000Y-94788000D01*
G75*
G02*
X109965500Y-95025500I-237500J0D01*
G01*
X109490500Y-95025500D01*
G75*
G02*
X109253000Y-94788000I0J237500D01*
G01*
X109253000Y-94188000D01*
G75*
G02*
X109490500Y-93950500I237500J0D01*
G01*
G37*
G36*
G01*
X109556500Y-90186500D02*
X109556500Y-90661500D01*
G75*
G02*
X109319000Y-90899000I-237500J0D01*
G01*
X108719000Y-90899000D01*
G75*
G02*
X108481500Y-90661500I0J237500D01*
G01*
X108481500Y-90186500D01*
G75*
G02*
X108719000Y-89949000I237500J0D01*
G01*
X109319000Y-89949000D01*
G75*
G02*
X109556500Y-90186500I0J-237500D01*
G01*
G37*
G36*
G01*
X111281500Y-90186500D02*
X111281500Y-90661500D01*
G75*
G02*
X111044000Y-90899000I-237500J0D01*
G01*
X110444000Y-90899000D01*
G75*
G02*
X110206500Y-90661500I0J237500D01*
G01*
X110206500Y-90186500D01*
G75*
G02*
X110444000Y-89949000I237500J0D01*
G01*
X111044000Y-89949000D01*
G75*
G02*
X111281500Y-90186500I0J-237500D01*
G01*
G37*
G36*
G01*
X112030500Y-86785500D02*
X112505500Y-86785500D01*
G75*
G02*
X112743000Y-87023000I0J-237500D01*
G01*
X112743000Y-87623000D01*
G75*
G02*
X112505500Y-87860500I-237500J0D01*
G01*
X112030500Y-87860500D01*
G75*
G02*
X111793000Y-87623000I0J237500D01*
G01*
X111793000Y-87023000D01*
G75*
G02*
X112030500Y-86785500I237500J0D01*
G01*
G37*
G36*
G01*
X112030500Y-85060500D02*
X112505500Y-85060500D01*
G75*
G02*
X112743000Y-85298000I0J-237500D01*
G01*
X112743000Y-85898000D01*
G75*
G02*
X112505500Y-86135500I-237500J0D01*
G01*
X112030500Y-86135500D01*
G75*
G02*
X111793000Y-85898000I0J237500D01*
G01*
X111793000Y-85298000D01*
G75*
G02*
X112030500Y-85060500I237500J0D01*
G01*
G37*
G36*
G01*
X109490500Y-80435500D02*
X109965500Y-80435500D01*
G75*
G02*
X110203000Y-80673000I0J-237500D01*
G01*
X110203000Y-81273000D01*
G75*
G02*
X109965500Y-81510500I-237500J0D01*
G01*
X109490500Y-81510500D01*
G75*
G02*
X109253000Y-81273000I0J237500D01*
G01*
X109253000Y-80673000D01*
G75*
G02*
X109490500Y-80435500I237500J0D01*
G01*
G37*
G36*
G01*
X109490500Y-78710500D02*
X109965500Y-78710500D01*
G75*
G02*
X110203000Y-78948000I0J-237500D01*
G01*
X110203000Y-79548000D01*
G75*
G02*
X109965500Y-79785500I-237500J0D01*
G01*
X109490500Y-79785500D01*
G75*
G02*
X109253000Y-79548000I0J237500D01*
G01*
X109253000Y-78948000D01*
G75*
G02*
X109490500Y-78710500I237500J0D01*
G01*
G37*
G36*
G01*
X109556500Y-74946500D02*
X109556500Y-75421500D01*
G75*
G02*
X109319000Y-75659000I-237500J0D01*
G01*
X108719000Y-75659000D01*
G75*
G02*
X108481500Y-75421500I0J237500D01*
G01*
X108481500Y-74946500D01*
G75*
G02*
X108719000Y-74709000I237500J0D01*
G01*
X109319000Y-74709000D01*
G75*
G02*
X109556500Y-74946500I0J-237500D01*
G01*
G37*
G36*
G01*
X111281500Y-74946500D02*
X111281500Y-75421500D01*
G75*
G02*
X111044000Y-75659000I-237500J0D01*
G01*
X110444000Y-75659000D01*
G75*
G02*
X110206500Y-75421500I0J237500D01*
G01*
X110206500Y-74946500D01*
G75*
G02*
X110444000Y-74709000I237500J0D01*
G01*
X111044000Y-74709000D01*
G75*
G02*
X111281500Y-74946500I0J-237500D01*
G01*
G37*
G36*
G01*
X107458500Y-110915500D02*
X107933500Y-110915500D01*
G75*
G02*
X108171000Y-111153000I0J-237500D01*
G01*
X108171000Y-111753000D01*
G75*
G02*
X107933500Y-111990500I-237500J0D01*
G01*
X107458500Y-111990500D01*
G75*
G02*
X107221000Y-111753000I0J237500D01*
G01*
X107221000Y-111153000D01*
G75*
G02*
X107458500Y-110915500I237500J0D01*
G01*
G37*
G36*
G01*
X107458500Y-109190500D02*
X107933500Y-109190500D01*
G75*
G02*
X108171000Y-109428000I0J-237500D01*
G01*
X108171000Y-110028000D01*
G75*
G02*
X107933500Y-110265500I-237500J0D01*
G01*
X107458500Y-110265500D01*
G75*
G02*
X107221000Y-110028000I0J237500D01*
G01*
X107221000Y-109428000D01*
G75*
G02*
X107458500Y-109190500I237500J0D01*
G01*
G37*
G36*
G01*
X107458500Y-95675500D02*
X107933500Y-95675500D01*
G75*
G02*
X108171000Y-95913000I0J-237500D01*
G01*
X108171000Y-96513000D01*
G75*
G02*
X107933500Y-96750500I-237500J0D01*
G01*
X107458500Y-96750500D01*
G75*
G02*
X107221000Y-96513000I0J237500D01*
G01*
X107221000Y-95913000D01*
G75*
G02*
X107458500Y-95675500I237500J0D01*
G01*
G37*
G36*
G01*
X107458500Y-93950500D02*
X107933500Y-93950500D01*
G75*
G02*
X108171000Y-94188000I0J-237500D01*
G01*
X108171000Y-94788000D01*
G75*
G02*
X107933500Y-95025500I-237500J0D01*
G01*
X107458500Y-95025500D01*
G75*
G02*
X107221000Y-94788000I0J237500D01*
G01*
X107221000Y-94188000D01*
G75*
G02*
X107458500Y-93950500I237500J0D01*
G01*
G37*
G36*
G01*
X107458500Y-80435500D02*
X107933500Y-80435500D01*
G75*
G02*
X108171000Y-80673000I0J-237500D01*
G01*
X108171000Y-81273000D01*
G75*
G02*
X107933500Y-81510500I-237500J0D01*
G01*
X107458500Y-81510500D01*
G75*
G02*
X107221000Y-81273000I0J237500D01*
G01*
X107221000Y-80673000D01*
G75*
G02*
X107458500Y-80435500I237500J0D01*
G01*
G37*
G36*
G01*
X107458500Y-78710500D02*
X107933500Y-78710500D01*
G75*
G02*
X108171000Y-78948000I0J-237500D01*
G01*
X108171000Y-79548000D01*
G75*
G02*
X107933500Y-79785500I-237500J0D01*
G01*
X107458500Y-79785500D01*
G75*
G02*
X107221000Y-79548000I0J237500D01*
G01*
X107221000Y-78948000D01*
G75*
G02*
X107458500Y-78710500I237500J0D01*
G01*
G37*
G36*
G01*
X142510500Y-115233500D02*
X142985500Y-115233500D01*
G75*
G02*
X143223000Y-115471000I0J-237500D01*
G01*
X143223000Y-116071000D01*
G75*
G02*
X142985500Y-116308500I-237500J0D01*
G01*
X142510500Y-116308500D01*
G75*
G02*
X142273000Y-116071000I0J237500D01*
G01*
X142273000Y-115471000D01*
G75*
G02*
X142510500Y-115233500I237500J0D01*
G01*
G37*
G36*
G01*
X142510500Y-113508500D02*
X142985500Y-113508500D01*
G75*
G02*
X143223000Y-113746000I0J-237500D01*
G01*
X143223000Y-114346000D01*
G75*
G02*
X142985500Y-114583500I-237500J0D01*
G01*
X142510500Y-114583500D01*
G75*
G02*
X142273000Y-114346000I0J237500D01*
G01*
X142273000Y-113746000D01*
G75*
G02*
X142510500Y-113508500I237500J0D01*
G01*
G37*
G36*
G01*
X144796500Y-115233500D02*
X145271500Y-115233500D01*
G75*
G02*
X145509000Y-115471000I0J-237500D01*
G01*
X145509000Y-116071000D01*
G75*
G02*
X145271500Y-116308500I-237500J0D01*
G01*
X144796500Y-116308500D01*
G75*
G02*
X144559000Y-116071000I0J237500D01*
G01*
X144559000Y-115471000D01*
G75*
G02*
X144796500Y-115233500I237500J0D01*
G01*
G37*
G36*
G01*
X144796500Y-113508500D02*
X145271500Y-113508500D01*
G75*
G02*
X145509000Y-113746000I0J-237500D01*
G01*
X145509000Y-114346000D01*
G75*
G02*
X145271500Y-114583500I-237500J0D01*
G01*
X144796500Y-114583500D01*
G75*
G02*
X144559000Y-114346000I0J237500D01*
G01*
X144559000Y-113746000D01*
G75*
G02*
X144796500Y-113508500I237500J0D01*
G01*
G37*
D17*
X112808000Y-107254000D03*
X114808000Y-106304000D03*
X114808000Y-108204000D03*
X112808000Y-92014000D03*
X114808000Y-91064000D03*
X114808000Y-92964000D03*
X112808000Y-76774000D03*
X114808000Y-75824000D03*
X114808000Y-77724000D03*
G36*
G01*
X132604500Y-91649000D02*
X133079500Y-91649000D01*
G75*
G02*
X133317000Y-91886500I0J-237500D01*
G01*
X133317000Y-92461500D01*
G75*
G02*
X133079500Y-92699000I-237500J0D01*
G01*
X132604500Y-92699000D01*
G75*
G02*
X132367000Y-92461500I0J237500D01*
G01*
X132367000Y-91886500D01*
G75*
G02*
X132604500Y-91649000I237500J0D01*
G01*
G37*
G36*
G01*
X132604500Y-89899000D02*
X133079500Y-89899000D01*
G75*
G02*
X133317000Y-90136500I0J-237500D01*
G01*
X133317000Y-90711500D01*
G75*
G02*
X133079500Y-90949000I-237500J0D01*
G01*
X132604500Y-90949000D01*
G75*
G02*
X132367000Y-90711500I0J237500D01*
G01*
X132367000Y-90136500D01*
G75*
G02*
X132604500Y-89899000I237500J0D01*
G01*
G37*
G36*
G01*
X132379000Y-113808500D02*
X132379000Y-114283500D01*
G75*
G02*
X132141500Y-114521000I-237500J0D01*
G01*
X131566500Y-114521000D01*
G75*
G02*
X131329000Y-114283500I0J237500D01*
G01*
X131329000Y-113808500D01*
G75*
G02*
X131566500Y-113571000I237500J0D01*
G01*
X132141500Y-113571000D01*
G75*
G02*
X132379000Y-113808500I0J-237500D01*
G01*
G37*
G36*
G01*
X134129000Y-113808500D02*
X134129000Y-114283500D01*
G75*
G02*
X133891500Y-114521000I-237500J0D01*
G01*
X133316500Y-114521000D01*
G75*
G02*
X133079000Y-114283500I0J237500D01*
G01*
X133079000Y-113808500D01*
G75*
G02*
X133316500Y-113571000I237500J0D01*
G01*
X133891500Y-113571000D01*
G75*
G02*
X134129000Y-113808500I0J-237500D01*
G01*
G37*
G36*
G01*
X110219000Y-107933500D02*
X110219000Y-107458500D01*
G75*
G02*
X110456500Y-107221000I237500J0D01*
G01*
X111031500Y-107221000D01*
G75*
G02*
X111269000Y-107458500I0J-237500D01*
G01*
X111269000Y-107933500D01*
G75*
G02*
X111031500Y-108171000I-237500J0D01*
G01*
X110456500Y-108171000D01*
G75*
G02*
X110219000Y-107933500I0J237500D01*
G01*
G37*
G36*
G01*
X108469000Y-107933500D02*
X108469000Y-107458500D01*
G75*
G02*
X108706500Y-107221000I237500J0D01*
G01*
X109281500Y-107221000D01*
G75*
G02*
X109519000Y-107458500I0J-237500D01*
G01*
X109519000Y-107933500D01*
G75*
G02*
X109281500Y-108171000I-237500J0D01*
G01*
X108706500Y-108171000D01*
G75*
G02*
X108469000Y-107933500I0J237500D01*
G01*
G37*
G36*
G01*
X110219000Y-92693500D02*
X110219000Y-92218500D01*
G75*
G02*
X110456500Y-91981000I237500J0D01*
G01*
X111031500Y-91981000D01*
G75*
G02*
X111269000Y-92218500I0J-237500D01*
G01*
X111269000Y-92693500D01*
G75*
G02*
X111031500Y-92931000I-237500J0D01*
G01*
X110456500Y-92931000D01*
G75*
G02*
X110219000Y-92693500I0J237500D01*
G01*
G37*
G36*
G01*
X108469000Y-92693500D02*
X108469000Y-92218500D01*
G75*
G02*
X108706500Y-91981000I237500J0D01*
G01*
X109281500Y-91981000D01*
G75*
G02*
X109519000Y-92218500I0J-237500D01*
G01*
X109519000Y-92693500D01*
G75*
G02*
X109281500Y-92931000I-237500J0D01*
G01*
X108706500Y-92931000D01*
G75*
G02*
X108469000Y-92693500I0J237500D01*
G01*
G37*
G36*
G01*
X110219000Y-77453500D02*
X110219000Y-76978500D01*
G75*
G02*
X110456500Y-76741000I237500J0D01*
G01*
X111031500Y-76741000D01*
G75*
G02*
X111269000Y-76978500I0J-237500D01*
G01*
X111269000Y-77453500D01*
G75*
G02*
X111031500Y-77691000I-237500J0D01*
G01*
X110456500Y-77691000D01*
G75*
G02*
X110219000Y-77453500I0J237500D01*
G01*
G37*
G36*
G01*
X108469000Y-77453500D02*
X108469000Y-76978500D01*
G75*
G02*
X108706500Y-76741000I237500J0D01*
G01*
X109281500Y-76741000D01*
G75*
G02*
X109519000Y-76978500I0J-237500D01*
G01*
X109519000Y-77453500D01*
G75*
G02*
X109281500Y-77691000I-237500J0D01*
G01*
X108706500Y-77691000D01*
G75*
G02*
X108469000Y-77453500I0J237500D01*
G01*
G37*
G36*
G01*
X154096000Y-105705900D02*
X154096000Y-106180900D01*
G75*
G02*
X153858500Y-106418400I-237500J0D01*
G01*
X153283500Y-106418400D01*
G75*
G02*
X153046000Y-106180900I0J237500D01*
G01*
X153046000Y-105705900D01*
G75*
G02*
X153283500Y-105468400I237500J0D01*
G01*
X153858500Y-105468400D01*
G75*
G02*
X154096000Y-105705900I0J-237500D01*
G01*
G37*
G36*
G01*
X155846000Y-105705900D02*
X155846000Y-106180900D01*
G75*
G02*
X155608500Y-106418400I-237500J0D01*
G01*
X155033500Y-106418400D01*
G75*
G02*
X154796000Y-106180900I0J237500D01*
G01*
X154796000Y-105705900D01*
G75*
G02*
X155033500Y-105468400I237500J0D01*
G01*
X155608500Y-105468400D01*
G75*
G02*
X155846000Y-105705900I0J-237500D01*
G01*
G37*
G36*
G01*
X154096000Y-103699300D02*
X154096000Y-104174300D01*
G75*
G02*
X153858500Y-104411800I-237500J0D01*
G01*
X153283500Y-104411800D01*
G75*
G02*
X153046000Y-104174300I0J237500D01*
G01*
X153046000Y-103699300D01*
G75*
G02*
X153283500Y-103461800I237500J0D01*
G01*
X153858500Y-103461800D01*
G75*
G02*
X154096000Y-103699300I0J-237500D01*
G01*
G37*
G36*
G01*
X155846000Y-103699300D02*
X155846000Y-104174300D01*
G75*
G02*
X155608500Y-104411800I-237500J0D01*
G01*
X155033500Y-104411800D01*
G75*
G02*
X154796000Y-104174300I0J237500D01*
G01*
X154796000Y-103699300D01*
G75*
G02*
X155033500Y-103461800I237500J0D01*
G01*
X155608500Y-103461800D01*
G75*
G02*
X155846000Y-103699300I0J-237500D01*
G01*
G37*
G36*
G01*
X154096000Y-101667300D02*
X154096000Y-102142300D01*
G75*
G02*
X153858500Y-102379800I-237500J0D01*
G01*
X153283500Y-102379800D01*
G75*
G02*
X153046000Y-102142300I0J237500D01*
G01*
X153046000Y-101667300D01*
G75*
G02*
X153283500Y-101429800I237500J0D01*
G01*
X153858500Y-101429800D01*
G75*
G02*
X154096000Y-101667300I0J-237500D01*
G01*
G37*
G36*
G01*
X155846000Y-101667300D02*
X155846000Y-102142300D01*
G75*
G02*
X155608500Y-102379800I-237500J0D01*
G01*
X155033500Y-102379800D01*
G75*
G02*
X154796000Y-102142300I0J237500D01*
G01*
X154796000Y-101667300D01*
G75*
G02*
X155033500Y-101429800I237500J0D01*
G01*
X155608500Y-101429800D01*
G75*
G02*
X155846000Y-101667300I0J-237500D01*
G01*
G37*
G36*
G01*
X154070600Y-99635300D02*
X154070600Y-100110300D01*
G75*
G02*
X153833100Y-100347800I-237500J0D01*
G01*
X153258100Y-100347800D01*
G75*
G02*
X153020600Y-100110300I0J237500D01*
G01*
X153020600Y-99635300D01*
G75*
G02*
X153258100Y-99397800I237500J0D01*
G01*
X153833100Y-99397800D01*
G75*
G02*
X154070600Y-99635300I0J-237500D01*
G01*
G37*
G36*
G01*
X155820600Y-99635300D02*
X155820600Y-100110300D01*
G75*
G02*
X155583100Y-100347800I-237500J0D01*
G01*
X155008100Y-100347800D01*
G75*
G02*
X154770600Y-100110300I0J237500D01*
G01*
X154770600Y-99635300D01*
G75*
G02*
X155008100Y-99397800I237500J0D01*
G01*
X155583100Y-99397800D01*
G75*
G02*
X155820600Y-99635300I0J-237500D01*
G01*
G37*
D18*
X170434000Y-80010000D03*
D19*
X170434000Y-86310000D03*
X172734000Y-86310000D03*
X168134000Y-86310000D03*
G36*
G01*
X147947000Y-92102000D02*
X148097000Y-92102000D01*
G75*
G02*
X148172000Y-92177000I0J-75000D01*
G01*
X148172000Y-93577000D01*
G75*
G02*
X148097000Y-93652000I-75000J0D01*
G01*
X147947000Y-93652000D01*
G75*
G02*
X147872000Y-93577000I0J75000D01*
G01*
X147872000Y-92177000D01*
G75*
G02*
X147947000Y-92102000I75000J0D01*
G01*
G37*
G36*
G01*
X147447000Y-92102000D02*
X147597000Y-92102000D01*
G75*
G02*
X147672000Y-92177000I0J-75000D01*
G01*
X147672000Y-93577000D01*
G75*
G02*
X147597000Y-93652000I-75000J0D01*
G01*
X147447000Y-93652000D01*
G75*
G02*
X147372000Y-93577000I0J75000D01*
G01*
X147372000Y-92177000D01*
G75*
G02*
X147447000Y-92102000I75000J0D01*
G01*
G37*
G36*
G01*
X146947000Y-92102000D02*
X147097000Y-92102000D01*
G75*
G02*
X147172000Y-92177000I0J-75000D01*
G01*
X147172000Y-93577000D01*
G75*
G02*
X147097000Y-93652000I-75000J0D01*
G01*
X146947000Y-93652000D01*
G75*
G02*
X146872000Y-93577000I0J75000D01*
G01*
X146872000Y-92177000D01*
G75*
G02*
X146947000Y-92102000I75000J0D01*
G01*
G37*
G36*
G01*
X146447000Y-92102000D02*
X146597000Y-92102000D01*
G75*
G02*
X146672000Y-92177000I0J-75000D01*
G01*
X146672000Y-93577000D01*
G75*
G02*
X146597000Y-93652000I-75000J0D01*
G01*
X146447000Y-93652000D01*
G75*
G02*
X146372000Y-93577000I0J75000D01*
G01*
X146372000Y-92177000D01*
G75*
G02*
X146447000Y-92102000I75000J0D01*
G01*
G37*
G36*
G01*
X145947000Y-92102000D02*
X146097000Y-92102000D01*
G75*
G02*
X146172000Y-92177000I0J-75000D01*
G01*
X146172000Y-93577000D01*
G75*
G02*
X146097000Y-93652000I-75000J0D01*
G01*
X145947000Y-93652000D01*
G75*
G02*
X145872000Y-93577000I0J75000D01*
G01*
X145872000Y-92177000D01*
G75*
G02*
X145947000Y-92102000I75000J0D01*
G01*
G37*
G36*
G01*
X145447000Y-92102000D02*
X145597000Y-92102000D01*
G75*
G02*
X145672000Y-92177000I0J-75000D01*
G01*
X145672000Y-93577000D01*
G75*
G02*
X145597000Y-93652000I-75000J0D01*
G01*
X145447000Y-93652000D01*
G75*
G02*
X145372000Y-93577000I0J75000D01*
G01*
X145372000Y-92177000D01*
G75*
G02*
X145447000Y-92102000I75000J0D01*
G01*
G37*
G36*
G01*
X144947000Y-92102000D02*
X145097000Y-92102000D01*
G75*
G02*
X145172000Y-92177000I0J-75000D01*
G01*
X145172000Y-93577000D01*
G75*
G02*
X145097000Y-93652000I-75000J0D01*
G01*
X144947000Y-93652000D01*
G75*
G02*
X144872000Y-93577000I0J75000D01*
G01*
X144872000Y-92177000D01*
G75*
G02*
X144947000Y-92102000I75000J0D01*
G01*
G37*
G36*
G01*
X144447000Y-92102000D02*
X144597000Y-92102000D01*
G75*
G02*
X144672000Y-92177000I0J-75000D01*
G01*
X144672000Y-93577000D01*
G75*
G02*
X144597000Y-93652000I-75000J0D01*
G01*
X144447000Y-93652000D01*
G75*
G02*
X144372000Y-93577000I0J75000D01*
G01*
X144372000Y-92177000D01*
G75*
G02*
X144447000Y-92102000I75000J0D01*
G01*
G37*
G36*
G01*
X143947000Y-92102000D02*
X144097000Y-92102000D01*
G75*
G02*
X144172000Y-92177000I0J-75000D01*
G01*
X144172000Y-93577000D01*
G75*
G02*
X144097000Y-93652000I-75000J0D01*
G01*
X143947000Y-93652000D01*
G75*
G02*
X143872000Y-93577000I0J75000D01*
G01*
X143872000Y-92177000D01*
G75*
G02*
X143947000Y-92102000I75000J0D01*
G01*
G37*
G36*
G01*
X143447000Y-92102000D02*
X143597000Y-92102000D01*
G75*
G02*
X143672000Y-92177000I0J-75000D01*
G01*
X143672000Y-93577000D01*
G75*
G02*
X143597000Y-93652000I-75000J0D01*
G01*
X143447000Y-93652000D01*
G75*
G02*
X143372000Y-93577000I0J75000D01*
G01*
X143372000Y-92177000D01*
G75*
G02*
X143447000Y-92102000I75000J0D01*
G01*
G37*
G36*
G01*
X142947000Y-92102000D02*
X143097000Y-92102000D01*
G75*
G02*
X143172000Y-92177000I0J-75000D01*
G01*
X143172000Y-93577000D01*
G75*
G02*
X143097000Y-93652000I-75000J0D01*
G01*
X142947000Y-93652000D01*
G75*
G02*
X142872000Y-93577000I0J75000D01*
G01*
X142872000Y-92177000D01*
G75*
G02*
X142947000Y-92102000I75000J0D01*
G01*
G37*
G36*
G01*
X142447000Y-92102000D02*
X142597000Y-92102000D01*
G75*
G02*
X142672000Y-92177000I0J-75000D01*
G01*
X142672000Y-93577000D01*
G75*
G02*
X142597000Y-93652000I-75000J0D01*
G01*
X142447000Y-93652000D01*
G75*
G02*
X142372000Y-93577000I0J75000D01*
G01*
X142372000Y-92177000D01*
G75*
G02*
X142447000Y-92102000I75000J0D01*
G01*
G37*
G36*
G01*
X141947000Y-92102000D02*
X142097000Y-92102000D01*
G75*
G02*
X142172000Y-92177000I0J-75000D01*
G01*
X142172000Y-93577000D01*
G75*
G02*
X142097000Y-93652000I-75000J0D01*
G01*
X141947000Y-93652000D01*
G75*
G02*
X141872000Y-93577000I0J75000D01*
G01*
X141872000Y-92177000D01*
G75*
G02*
X141947000Y-92102000I75000J0D01*
G01*
G37*
G36*
G01*
X141447000Y-92102000D02*
X141597000Y-92102000D01*
G75*
G02*
X141672000Y-92177000I0J-75000D01*
G01*
X141672000Y-93577000D01*
G75*
G02*
X141597000Y-93652000I-75000J0D01*
G01*
X141447000Y-93652000D01*
G75*
G02*
X141372000Y-93577000I0J75000D01*
G01*
X141372000Y-92177000D01*
G75*
G02*
X141447000Y-92102000I75000J0D01*
G01*
G37*
G36*
G01*
X140947000Y-92102000D02*
X141097000Y-92102000D01*
G75*
G02*
X141172000Y-92177000I0J-75000D01*
G01*
X141172000Y-93577000D01*
G75*
G02*
X141097000Y-93652000I-75000J0D01*
G01*
X140947000Y-93652000D01*
G75*
G02*
X140872000Y-93577000I0J75000D01*
G01*
X140872000Y-92177000D01*
G75*
G02*
X140947000Y-92102000I75000J0D01*
G01*
G37*
G36*
G01*
X140447000Y-92102000D02*
X140597000Y-92102000D01*
G75*
G02*
X140672000Y-92177000I0J-75000D01*
G01*
X140672000Y-93577000D01*
G75*
G02*
X140597000Y-93652000I-75000J0D01*
G01*
X140447000Y-93652000D01*
G75*
G02*
X140372000Y-93577000I0J75000D01*
G01*
X140372000Y-92177000D01*
G75*
G02*
X140447000Y-92102000I75000J0D01*
G01*
G37*
G36*
G01*
X137897000Y-94652000D02*
X139297000Y-94652000D01*
G75*
G02*
X139372000Y-94727000I0J-75000D01*
G01*
X139372000Y-94877000D01*
G75*
G02*
X139297000Y-94952000I-75000J0D01*
G01*
X137897000Y-94952000D01*
G75*
G02*
X137822000Y-94877000I0J75000D01*
G01*
X137822000Y-94727000D01*
G75*
G02*
X137897000Y-94652000I75000J0D01*
G01*
G37*
G36*
G01*
X137897000Y-95152000D02*
X139297000Y-95152000D01*
G75*
G02*
X139372000Y-95227000I0J-75000D01*
G01*
X139372000Y-95377000D01*
G75*
G02*
X139297000Y-95452000I-75000J0D01*
G01*
X137897000Y-95452000D01*
G75*
G02*
X137822000Y-95377000I0J75000D01*
G01*
X137822000Y-95227000D01*
G75*
G02*
X137897000Y-95152000I75000J0D01*
G01*
G37*
G36*
G01*
X137897000Y-95652000D02*
X139297000Y-95652000D01*
G75*
G02*
X139372000Y-95727000I0J-75000D01*
G01*
X139372000Y-95877000D01*
G75*
G02*
X139297000Y-95952000I-75000J0D01*
G01*
X137897000Y-95952000D01*
G75*
G02*
X137822000Y-95877000I0J75000D01*
G01*
X137822000Y-95727000D01*
G75*
G02*
X137897000Y-95652000I75000J0D01*
G01*
G37*
G36*
G01*
X137897000Y-96152000D02*
X139297000Y-96152000D01*
G75*
G02*
X139372000Y-96227000I0J-75000D01*
G01*
X139372000Y-96377000D01*
G75*
G02*
X139297000Y-96452000I-75000J0D01*
G01*
X137897000Y-96452000D01*
G75*
G02*
X137822000Y-96377000I0J75000D01*
G01*
X137822000Y-96227000D01*
G75*
G02*
X137897000Y-96152000I75000J0D01*
G01*
G37*
G36*
G01*
X137897000Y-96652000D02*
X139297000Y-96652000D01*
G75*
G02*
X139372000Y-96727000I0J-75000D01*
G01*
X139372000Y-96877000D01*
G75*
G02*
X139297000Y-96952000I-75000J0D01*
G01*
X137897000Y-96952000D01*
G75*
G02*
X137822000Y-96877000I0J75000D01*
G01*
X137822000Y-96727000D01*
G75*
G02*
X137897000Y-96652000I75000J0D01*
G01*
G37*
G36*
G01*
X137897000Y-97152000D02*
X139297000Y-97152000D01*
G75*
G02*
X139372000Y-97227000I0J-75000D01*
G01*
X139372000Y-97377000D01*
G75*
G02*
X139297000Y-97452000I-75000J0D01*
G01*
X137897000Y-97452000D01*
G75*
G02*
X137822000Y-97377000I0J75000D01*
G01*
X137822000Y-97227000D01*
G75*
G02*
X137897000Y-97152000I75000J0D01*
G01*
G37*
G36*
G01*
X137897000Y-97652000D02*
X139297000Y-97652000D01*
G75*
G02*
X139372000Y-97727000I0J-75000D01*
G01*
X139372000Y-97877000D01*
G75*
G02*
X139297000Y-97952000I-75000J0D01*
G01*
X137897000Y-97952000D01*
G75*
G02*
X137822000Y-97877000I0J75000D01*
G01*
X137822000Y-97727000D01*
G75*
G02*
X137897000Y-97652000I75000J0D01*
G01*
G37*
G36*
G01*
X137897000Y-98152000D02*
X139297000Y-98152000D01*
G75*
G02*
X139372000Y-98227000I0J-75000D01*
G01*
X139372000Y-98377000D01*
G75*
G02*
X139297000Y-98452000I-75000J0D01*
G01*
X137897000Y-98452000D01*
G75*
G02*
X137822000Y-98377000I0J75000D01*
G01*
X137822000Y-98227000D01*
G75*
G02*
X137897000Y-98152000I75000J0D01*
G01*
G37*
G36*
G01*
X137897000Y-98652000D02*
X139297000Y-98652000D01*
G75*
G02*
X139372000Y-98727000I0J-75000D01*
G01*
X139372000Y-98877000D01*
G75*
G02*
X139297000Y-98952000I-75000J0D01*
G01*
X137897000Y-98952000D01*
G75*
G02*
X137822000Y-98877000I0J75000D01*
G01*
X137822000Y-98727000D01*
G75*
G02*
X137897000Y-98652000I75000J0D01*
G01*
G37*
G36*
G01*
X137897000Y-99152000D02*
X139297000Y-99152000D01*
G75*
G02*
X139372000Y-99227000I0J-75000D01*
G01*
X139372000Y-99377000D01*
G75*
G02*
X139297000Y-99452000I-75000J0D01*
G01*
X137897000Y-99452000D01*
G75*
G02*
X137822000Y-99377000I0J75000D01*
G01*
X137822000Y-99227000D01*
G75*
G02*
X137897000Y-99152000I75000J0D01*
G01*
G37*
G36*
G01*
X137897000Y-99652000D02*
X139297000Y-99652000D01*
G75*
G02*
X139372000Y-99727000I0J-75000D01*
G01*
X139372000Y-99877000D01*
G75*
G02*
X139297000Y-99952000I-75000J0D01*
G01*
X137897000Y-99952000D01*
G75*
G02*
X137822000Y-99877000I0J75000D01*
G01*
X137822000Y-99727000D01*
G75*
G02*
X137897000Y-99652000I75000J0D01*
G01*
G37*
G36*
G01*
X137897000Y-100152000D02*
X139297000Y-100152000D01*
G75*
G02*
X139372000Y-100227000I0J-75000D01*
G01*
X139372000Y-100377000D01*
G75*
G02*
X139297000Y-100452000I-75000J0D01*
G01*
X137897000Y-100452000D01*
G75*
G02*
X137822000Y-100377000I0J75000D01*
G01*
X137822000Y-100227000D01*
G75*
G02*
X137897000Y-100152000I75000J0D01*
G01*
G37*
G36*
G01*
X137897000Y-100652000D02*
X139297000Y-100652000D01*
G75*
G02*
X139372000Y-100727000I0J-75000D01*
G01*
X139372000Y-100877000D01*
G75*
G02*
X139297000Y-100952000I-75000J0D01*
G01*
X137897000Y-100952000D01*
G75*
G02*
X137822000Y-100877000I0J75000D01*
G01*
X137822000Y-100727000D01*
G75*
G02*
X137897000Y-100652000I75000J0D01*
G01*
G37*
G36*
G01*
X137897000Y-101152000D02*
X139297000Y-101152000D01*
G75*
G02*
X139372000Y-101227000I0J-75000D01*
G01*
X139372000Y-101377000D01*
G75*
G02*
X139297000Y-101452000I-75000J0D01*
G01*
X137897000Y-101452000D01*
G75*
G02*
X137822000Y-101377000I0J75000D01*
G01*
X137822000Y-101227000D01*
G75*
G02*
X137897000Y-101152000I75000J0D01*
G01*
G37*
G36*
G01*
X137897000Y-101652000D02*
X139297000Y-101652000D01*
G75*
G02*
X139372000Y-101727000I0J-75000D01*
G01*
X139372000Y-101877000D01*
G75*
G02*
X139297000Y-101952000I-75000J0D01*
G01*
X137897000Y-101952000D01*
G75*
G02*
X137822000Y-101877000I0J75000D01*
G01*
X137822000Y-101727000D01*
G75*
G02*
X137897000Y-101652000I75000J0D01*
G01*
G37*
G36*
G01*
X137897000Y-102152000D02*
X139297000Y-102152000D01*
G75*
G02*
X139372000Y-102227000I0J-75000D01*
G01*
X139372000Y-102377000D01*
G75*
G02*
X139297000Y-102452000I-75000J0D01*
G01*
X137897000Y-102452000D01*
G75*
G02*
X137822000Y-102377000I0J75000D01*
G01*
X137822000Y-102227000D01*
G75*
G02*
X137897000Y-102152000I75000J0D01*
G01*
G37*
G36*
G01*
X140447000Y-103452000D02*
X140597000Y-103452000D01*
G75*
G02*
X140672000Y-103527000I0J-75000D01*
G01*
X140672000Y-104927000D01*
G75*
G02*
X140597000Y-105002000I-75000J0D01*
G01*
X140447000Y-105002000D01*
G75*
G02*
X140372000Y-104927000I0J75000D01*
G01*
X140372000Y-103527000D01*
G75*
G02*
X140447000Y-103452000I75000J0D01*
G01*
G37*
G36*
G01*
X140947000Y-103452000D02*
X141097000Y-103452000D01*
G75*
G02*
X141172000Y-103527000I0J-75000D01*
G01*
X141172000Y-104927000D01*
G75*
G02*
X141097000Y-105002000I-75000J0D01*
G01*
X140947000Y-105002000D01*
G75*
G02*
X140872000Y-104927000I0J75000D01*
G01*
X140872000Y-103527000D01*
G75*
G02*
X140947000Y-103452000I75000J0D01*
G01*
G37*
G36*
G01*
X141447000Y-103452000D02*
X141597000Y-103452000D01*
G75*
G02*
X141672000Y-103527000I0J-75000D01*
G01*
X141672000Y-104927000D01*
G75*
G02*
X141597000Y-105002000I-75000J0D01*
G01*
X141447000Y-105002000D01*
G75*
G02*
X141372000Y-104927000I0J75000D01*
G01*
X141372000Y-103527000D01*
G75*
G02*
X141447000Y-103452000I75000J0D01*
G01*
G37*
G36*
G01*
X141947000Y-103452000D02*
X142097000Y-103452000D01*
G75*
G02*
X142172000Y-103527000I0J-75000D01*
G01*
X142172000Y-104927000D01*
G75*
G02*
X142097000Y-105002000I-75000J0D01*
G01*
X141947000Y-105002000D01*
G75*
G02*
X141872000Y-104927000I0J75000D01*
G01*
X141872000Y-103527000D01*
G75*
G02*
X141947000Y-103452000I75000J0D01*
G01*
G37*
G36*
G01*
X142447000Y-103452000D02*
X142597000Y-103452000D01*
G75*
G02*
X142672000Y-103527000I0J-75000D01*
G01*
X142672000Y-104927000D01*
G75*
G02*
X142597000Y-105002000I-75000J0D01*
G01*
X142447000Y-105002000D01*
G75*
G02*
X142372000Y-104927000I0J75000D01*
G01*
X142372000Y-103527000D01*
G75*
G02*
X142447000Y-103452000I75000J0D01*
G01*
G37*
G36*
G01*
X142947000Y-103452000D02*
X143097000Y-103452000D01*
G75*
G02*
X143172000Y-103527000I0J-75000D01*
G01*
X143172000Y-104927000D01*
G75*
G02*
X143097000Y-105002000I-75000J0D01*
G01*
X142947000Y-105002000D01*
G75*
G02*
X142872000Y-104927000I0J75000D01*
G01*
X142872000Y-103527000D01*
G75*
G02*
X142947000Y-103452000I75000J0D01*
G01*
G37*
G36*
G01*
X143447000Y-103452000D02*
X143597000Y-103452000D01*
G75*
G02*
X143672000Y-103527000I0J-75000D01*
G01*
X143672000Y-104927000D01*
G75*
G02*
X143597000Y-105002000I-75000J0D01*
G01*
X143447000Y-105002000D01*
G75*
G02*
X143372000Y-104927000I0J75000D01*
G01*
X143372000Y-103527000D01*
G75*
G02*
X143447000Y-103452000I75000J0D01*
G01*
G37*
G36*
G01*
X143947000Y-103452000D02*
X144097000Y-103452000D01*
G75*
G02*
X144172000Y-103527000I0J-75000D01*
G01*
X144172000Y-104927000D01*
G75*
G02*
X144097000Y-105002000I-75000J0D01*
G01*
X143947000Y-105002000D01*
G75*
G02*
X143872000Y-104927000I0J75000D01*
G01*
X143872000Y-103527000D01*
G75*
G02*
X143947000Y-103452000I75000J0D01*
G01*
G37*
G36*
G01*
X144447000Y-103452000D02*
X144597000Y-103452000D01*
G75*
G02*
X144672000Y-103527000I0J-75000D01*
G01*
X144672000Y-104927000D01*
G75*
G02*
X144597000Y-105002000I-75000J0D01*
G01*
X144447000Y-105002000D01*
G75*
G02*
X144372000Y-104927000I0J75000D01*
G01*
X144372000Y-103527000D01*
G75*
G02*
X144447000Y-103452000I75000J0D01*
G01*
G37*
G36*
G01*
X144947000Y-103452000D02*
X145097000Y-103452000D01*
G75*
G02*
X145172000Y-103527000I0J-75000D01*
G01*
X145172000Y-104927000D01*
G75*
G02*
X145097000Y-105002000I-75000J0D01*
G01*
X144947000Y-105002000D01*
G75*
G02*
X144872000Y-104927000I0J75000D01*
G01*
X144872000Y-103527000D01*
G75*
G02*
X144947000Y-103452000I75000J0D01*
G01*
G37*
G36*
G01*
X145447000Y-103452000D02*
X145597000Y-103452000D01*
G75*
G02*
X145672000Y-103527000I0J-75000D01*
G01*
X145672000Y-104927000D01*
G75*
G02*
X145597000Y-105002000I-75000J0D01*
G01*
X145447000Y-105002000D01*
G75*
G02*
X145372000Y-104927000I0J75000D01*
G01*
X145372000Y-103527000D01*
G75*
G02*
X145447000Y-103452000I75000J0D01*
G01*
G37*
G36*
G01*
X145947000Y-103452000D02*
X146097000Y-103452000D01*
G75*
G02*
X146172000Y-103527000I0J-75000D01*
G01*
X146172000Y-104927000D01*
G75*
G02*
X146097000Y-105002000I-75000J0D01*
G01*
X145947000Y-105002000D01*
G75*
G02*
X145872000Y-104927000I0J75000D01*
G01*
X145872000Y-103527000D01*
G75*
G02*
X145947000Y-103452000I75000J0D01*
G01*
G37*
G36*
G01*
X146447000Y-103452000D02*
X146597000Y-103452000D01*
G75*
G02*
X146672000Y-103527000I0J-75000D01*
G01*
X146672000Y-104927000D01*
G75*
G02*
X146597000Y-105002000I-75000J0D01*
G01*
X146447000Y-105002000D01*
G75*
G02*
X146372000Y-104927000I0J75000D01*
G01*
X146372000Y-103527000D01*
G75*
G02*
X146447000Y-103452000I75000J0D01*
G01*
G37*
G36*
G01*
X146947000Y-103452000D02*
X147097000Y-103452000D01*
G75*
G02*
X147172000Y-103527000I0J-75000D01*
G01*
X147172000Y-104927000D01*
G75*
G02*
X147097000Y-105002000I-75000J0D01*
G01*
X146947000Y-105002000D01*
G75*
G02*
X146872000Y-104927000I0J75000D01*
G01*
X146872000Y-103527000D01*
G75*
G02*
X146947000Y-103452000I75000J0D01*
G01*
G37*
G36*
G01*
X147447000Y-103452000D02*
X147597000Y-103452000D01*
G75*
G02*
X147672000Y-103527000I0J-75000D01*
G01*
X147672000Y-104927000D01*
G75*
G02*
X147597000Y-105002000I-75000J0D01*
G01*
X147447000Y-105002000D01*
G75*
G02*
X147372000Y-104927000I0J75000D01*
G01*
X147372000Y-103527000D01*
G75*
G02*
X147447000Y-103452000I75000J0D01*
G01*
G37*
G36*
G01*
X147947000Y-103452000D02*
X148097000Y-103452000D01*
G75*
G02*
X148172000Y-103527000I0J-75000D01*
G01*
X148172000Y-104927000D01*
G75*
G02*
X148097000Y-105002000I-75000J0D01*
G01*
X147947000Y-105002000D01*
G75*
G02*
X147872000Y-104927000I0J75000D01*
G01*
X147872000Y-103527000D01*
G75*
G02*
X147947000Y-103452000I75000J0D01*
G01*
G37*
G36*
G01*
X149247000Y-102152000D02*
X150647000Y-102152000D01*
G75*
G02*
X150722000Y-102227000I0J-75000D01*
G01*
X150722000Y-102377000D01*
G75*
G02*
X150647000Y-102452000I-75000J0D01*
G01*
X149247000Y-102452000D01*
G75*
G02*
X149172000Y-102377000I0J75000D01*
G01*
X149172000Y-102227000D01*
G75*
G02*
X149247000Y-102152000I75000J0D01*
G01*
G37*
G36*
G01*
X149247000Y-101652000D02*
X150647000Y-101652000D01*
G75*
G02*
X150722000Y-101727000I0J-75000D01*
G01*
X150722000Y-101877000D01*
G75*
G02*
X150647000Y-101952000I-75000J0D01*
G01*
X149247000Y-101952000D01*
G75*
G02*
X149172000Y-101877000I0J75000D01*
G01*
X149172000Y-101727000D01*
G75*
G02*
X149247000Y-101652000I75000J0D01*
G01*
G37*
G36*
G01*
X149247000Y-101152000D02*
X150647000Y-101152000D01*
G75*
G02*
X150722000Y-101227000I0J-75000D01*
G01*
X150722000Y-101377000D01*
G75*
G02*
X150647000Y-101452000I-75000J0D01*
G01*
X149247000Y-101452000D01*
G75*
G02*
X149172000Y-101377000I0J75000D01*
G01*
X149172000Y-101227000D01*
G75*
G02*
X149247000Y-101152000I75000J0D01*
G01*
G37*
G36*
G01*
X149247000Y-100652000D02*
X150647000Y-100652000D01*
G75*
G02*
X150722000Y-100727000I0J-75000D01*
G01*
X150722000Y-100877000D01*
G75*
G02*
X150647000Y-100952000I-75000J0D01*
G01*
X149247000Y-100952000D01*
G75*
G02*
X149172000Y-100877000I0J75000D01*
G01*
X149172000Y-100727000D01*
G75*
G02*
X149247000Y-100652000I75000J0D01*
G01*
G37*
G36*
G01*
X149247000Y-100152000D02*
X150647000Y-100152000D01*
G75*
G02*
X150722000Y-100227000I0J-75000D01*
G01*
X150722000Y-100377000D01*
G75*
G02*
X150647000Y-100452000I-75000J0D01*
G01*
X149247000Y-100452000D01*
G75*
G02*
X149172000Y-100377000I0J75000D01*
G01*
X149172000Y-100227000D01*
G75*
G02*
X149247000Y-100152000I75000J0D01*
G01*
G37*
G36*
G01*
X149247000Y-99652000D02*
X150647000Y-99652000D01*
G75*
G02*
X150722000Y-99727000I0J-75000D01*
G01*
X150722000Y-99877000D01*
G75*
G02*
X150647000Y-99952000I-75000J0D01*
G01*
X149247000Y-99952000D01*
G75*
G02*
X149172000Y-99877000I0J75000D01*
G01*
X149172000Y-99727000D01*
G75*
G02*
X149247000Y-99652000I75000J0D01*
G01*
G37*
G36*
G01*
X149247000Y-99152000D02*
X150647000Y-99152000D01*
G75*
G02*
X150722000Y-99227000I0J-75000D01*
G01*
X150722000Y-99377000D01*
G75*
G02*
X150647000Y-99452000I-75000J0D01*
G01*
X149247000Y-99452000D01*
G75*
G02*
X149172000Y-99377000I0J75000D01*
G01*
X149172000Y-99227000D01*
G75*
G02*
X149247000Y-99152000I75000J0D01*
G01*
G37*
G36*
G01*
X149247000Y-98652000D02*
X150647000Y-98652000D01*
G75*
G02*
X150722000Y-98727000I0J-75000D01*
G01*
X150722000Y-98877000D01*
G75*
G02*
X150647000Y-98952000I-75000J0D01*
G01*
X149247000Y-98952000D01*
G75*
G02*
X149172000Y-98877000I0J75000D01*
G01*
X149172000Y-98727000D01*
G75*
G02*
X149247000Y-98652000I75000J0D01*
G01*
G37*
G36*
G01*
X149247000Y-98152000D02*
X150647000Y-98152000D01*
G75*
G02*
X150722000Y-98227000I0J-75000D01*
G01*
X150722000Y-98377000D01*
G75*
G02*
X150647000Y-98452000I-75000J0D01*
G01*
X149247000Y-98452000D01*
G75*
G02*
X149172000Y-98377000I0J75000D01*
G01*
X149172000Y-98227000D01*
G75*
G02*
X149247000Y-98152000I75000J0D01*
G01*
G37*
G36*
G01*
X149247000Y-97652000D02*
X150647000Y-97652000D01*
G75*
G02*
X150722000Y-97727000I0J-75000D01*
G01*
X150722000Y-97877000D01*
G75*
G02*
X150647000Y-97952000I-75000J0D01*
G01*
X149247000Y-97952000D01*
G75*
G02*
X149172000Y-97877000I0J75000D01*
G01*
X149172000Y-97727000D01*
G75*
G02*
X149247000Y-97652000I75000J0D01*
G01*
G37*
G36*
G01*
X149247000Y-97152000D02*
X150647000Y-97152000D01*
G75*
G02*
X150722000Y-97227000I0J-75000D01*
G01*
X150722000Y-97377000D01*
G75*
G02*
X150647000Y-97452000I-75000J0D01*
G01*
X149247000Y-97452000D01*
G75*
G02*
X149172000Y-97377000I0J75000D01*
G01*
X149172000Y-97227000D01*
G75*
G02*
X149247000Y-97152000I75000J0D01*
G01*
G37*
G36*
G01*
X149247000Y-96652000D02*
X150647000Y-96652000D01*
G75*
G02*
X150722000Y-96727000I0J-75000D01*
G01*
X150722000Y-96877000D01*
G75*
G02*
X150647000Y-96952000I-75000J0D01*
G01*
X149247000Y-96952000D01*
G75*
G02*
X149172000Y-96877000I0J75000D01*
G01*
X149172000Y-96727000D01*
G75*
G02*
X149247000Y-96652000I75000J0D01*
G01*
G37*
G36*
G01*
X149247000Y-96152000D02*
X150647000Y-96152000D01*
G75*
G02*
X150722000Y-96227000I0J-75000D01*
G01*
X150722000Y-96377000D01*
G75*
G02*
X150647000Y-96452000I-75000J0D01*
G01*
X149247000Y-96452000D01*
G75*
G02*
X149172000Y-96377000I0J75000D01*
G01*
X149172000Y-96227000D01*
G75*
G02*
X149247000Y-96152000I75000J0D01*
G01*
G37*
G36*
G01*
X149247000Y-95652000D02*
X150647000Y-95652000D01*
G75*
G02*
X150722000Y-95727000I0J-75000D01*
G01*
X150722000Y-95877000D01*
G75*
G02*
X150647000Y-95952000I-75000J0D01*
G01*
X149247000Y-95952000D01*
G75*
G02*
X149172000Y-95877000I0J75000D01*
G01*
X149172000Y-95727000D01*
G75*
G02*
X149247000Y-95652000I75000J0D01*
G01*
G37*
G36*
G01*
X149247000Y-95152000D02*
X150647000Y-95152000D01*
G75*
G02*
X150722000Y-95227000I0J-75000D01*
G01*
X150722000Y-95377000D01*
G75*
G02*
X150647000Y-95452000I-75000J0D01*
G01*
X149247000Y-95452000D01*
G75*
G02*
X149172000Y-95377000I0J75000D01*
G01*
X149172000Y-95227000D01*
G75*
G02*
X149247000Y-95152000I75000J0D01*
G01*
G37*
G36*
G01*
X149247000Y-94652000D02*
X150647000Y-94652000D01*
G75*
G02*
X150722000Y-94727000I0J-75000D01*
G01*
X150722000Y-94877000D01*
G75*
G02*
X150647000Y-94952000I-75000J0D01*
G01*
X149247000Y-94952000D01*
G75*
G02*
X149172000Y-94877000I0J75000D01*
G01*
X149172000Y-94727000D01*
G75*
G02*
X149247000Y-94652000I75000J0D01*
G01*
G37*
M02*
