M48
INCH,TZ
T1C0.0157
T2C0.0197
T3C0.0315
T4C0.0362
T5C0.0394
T6C0.0917
%
G90
G05
T1
X47200Y-28002
X48900Y-31900
X48950Y-37900
X48950Y-43600
X49000Y-33900
X49000Y-39900
X49003Y-33400
X49150Y-45900
X49300Y-41050
X49470Y-36400
X49600Y-37850
X49625Y-44325
X50000Y-28500
X50500Y-34500
X50950Y-34500
X51408Y-36303
X51794Y-36134
X52308Y-30471
X52375Y-31125
X52400Y-30050
X52600Y-34300
X52697Y-31400
X53177Y-33600
X53196Y-33152
X53200Y-32728
X54400Y-32500
X54400Y-33700
X55220Y-38520
X55224Y-37714
X55300Y-30900
X55300Y-35300
X55542Y-37161
X55697Y-37600
X56300Y-38600
X56308Y-39052
X56351Y-37500
X56650Y-31900
X56750Y-37350
X57100Y-43150
X57200Y-40340
X57950Y-30900
X57950Y-40345
X58000Y-43150
X58200Y-39650
X58900Y-32500
X58900Y-33700
X59400Y-32900
X59550Y-40530
X59973Y-39527
X61357Y-38398
X61696Y-45160
X61750Y-38200
X62100Y-32900
X62200Y-38200
X62714Y-44786
X62750Y-42560
X63400Y-42250
X63550Y-42884
X63700Y-35400
X63850Y-38898
X63900Y-36150
X64860Y-34710
X64950Y-37630
X64950Y-38051
T2
X42300Y-29600
X42300Y-35600
X42300Y-41600
X42800Y-32450
X42800Y-38450
X42800Y-44450
X45550Y-33400
X45550Y-39400
X45550Y-45400
X46000Y-47450
X46050Y-29350
X46208Y-35367
X46300Y-41400
X46800Y-36350
X47000Y-45640
X47200Y-28650
X47300Y-31200
X47300Y-36900
X47300Y-42900
X47400Y-47700
X47900Y-28000
X48259Y-35409
X48260Y-41370
X48801Y-36374
X49100Y-45350
X49150Y-32725
X49200Y-46650
X49800Y-30300
X49875Y-43375
X49900Y-38400
X49900Y-41500
X50030Y-35330
X50500Y-42600
X50500Y-44100
X50920Y-31350
X51650Y-34400
X51700Y-49050
X51850Y-37550
X51900Y-40310
X51900Y-46600
X52450Y-43510
X52940Y-37900
X53200Y-46200
X53450Y-29850
X53450Y-49250
X53900Y-40490
X54390Y-31380
X54400Y-34800
X54900Y-47750
X55700Y-29800
X55800Y-40300
X55850Y-44050
X56400Y-46300
X56800Y-35850
X56950Y-38400
X57700Y-35350
X57901Y-45600
X58750Y-45550
X58900Y-31400
X58900Y-34800
X59400Y-31000
X59400Y-34500
X59400Y-42500
X59500Y-28800
X60100Y-47150
X60650Y-36200
X60700Y-37300
X60700Y-43900
X60750Y-34500
X61000Y-46100
X62100Y-31000
X62100Y-34500
X63400Y-40800
X63500Y-31500
X64150Y-27700
X64500Y-42350
X64550Y-37100
X64610Y-45830
X64800Y-33750
X65800Y-34900
X66200Y-38600
X66550Y-44650
X67190Y-36850
X67400Y-40200
X68200Y-37500
X68900Y-42300
X69550Y-41950
X69600Y-45300
X70100Y-39300
X70400Y-33300
X70420Y-37150
X70900Y-31500
X71010Y-40000
X71130Y-29130
X72000Y-40000
T3
X55700Y-33500
X57621Y-33500
T4
X65378Y-46146
X65378Y-46933
X66362Y-46146
X66362Y-46933
T5
X41000Y-30000
X41000Y-31000
X41000Y-32000
X41000Y-33000
X41000Y-34000
X41000Y-36000
X41000Y-37000
X41000Y-38000
X41000Y-39000
X41000Y-40000
X41000Y-42000
X41000Y-43000
X41000Y-44000
X41000Y-45000
X41000Y-46000
X44000Y-27000
X45000Y-27000
X45000Y-48000
X45000Y-49000
X46000Y-27000
X48000Y-27000
X49000Y-27000
X50000Y-27000
X51000Y-27000
X52000Y-27000
X54000Y-27000
X55000Y-27000
X56000Y-27000
X58000Y-27000
X59000Y-27000
X61000Y-27000
X62000Y-27000
X63000Y-27000
X64000Y-27000
X65000Y-27000
X67000Y-27000
X67000Y-28000
X69000Y-27000
X69000Y-28000
X72000Y-30000
X72000Y-31000
X72000Y-32000
X72000Y-33000
X72000Y-36000
X72000Y-37000
X72000Y-38000
X72000Y-39000
X72000Y-41000
X72000Y-42000
X72000Y-43000
X72000Y-44000
X72000Y-45000
X72000Y-46000
T6
X63500Y-48000
X68240Y-48000
T0
M30
