G04 #@! TF.GenerationSoftware,KiCad,Pcbnew,(5.1.9)-1*
G04 #@! TF.CreationDate,2021-05-26T18:29:59+02:00*
G04 #@! TF.ProjectId,thrust_v2,74687275-7374-45f7-9632-2e6b69636164,2.0.3*
G04 #@! TF.SameCoordinates,Original*
G04 #@! TF.FileFunction,Soldermask,Bot*
G04 #@! TF.FilePolarity,Negative*
%FSLAX46Y46*%
G04 Gerber Fmt 4.6, Leading zero omitted, Abs format (unit mm)*
G04 Created by KiCad (PCBNEW (5.1.9)-1) date 2021-05-26 18:29:59*
%MOMM*%
%LPD*%
G01*
G04 APERTURE LIST*
%ADD10C,3.900000*%
%ADD11C,2.100000*%
%ADD12O,2.100000X2.100000*%
%ADD13C,1.900000*%
%ADD14C,3.600000*%
G04 APERTURE END LIST*
D10*
X161290000Y-121920000D03*
X173330000Y-121920000D03*
D11*
X168560000Y-119210000D03*
X166060000Y-119210000D03*
X166060000Y-117210000D03*
G36*
G01*
X167710000Y-116160000D02*
X169410000Y-116160000D01*
G75*
G02*
X169610000Y-116360000I0J-200000D01*
G01*
X169610000Y-118060000D01*
G75*
G02*
X169410000Y-118260000I-200000J0D01*
G01*
X167710000Y-118260000D01*
G75*
G02*
X167510000Y-118060000I0J200000D01*
G01*
X167510000Y-116360000D01*
G75*
G02*
X167710000Y-116160000I200000J0D01*
G01*
G37*
D12*
X165100000Y-68580000D03*
X162560000Y-68580000D03*
X160020000Y-68580000D03*
X157480000Y-68580000D03*
G36*
G01*
X155790000Y-69630000D02*
X154090000Y-69630000D01*
G75*
G02*
X153890000Y-69430000I0J200000D01*
G01*
X153890000Y-67730000D01*
G75*
G02*
X154090000Y-67530000I200000J0D01*
G01*
X155790000Y-67530000D01*
G75*
G02*
X155990000Y-67730000I0J-200000D01*
G01*
X155990000Y-69430000D01*
G75*
G02*
X155790000Y-69630000I-200000J0D01*
G01*
G37*
X132080000Y-68580000D03*
X129540000Y-68580000D03*
X127000000Y-68580000D03*
X124460000Y-68580000D03*
G36*
G01*
X122770000Y-69630000D02*
X121070000Y-69630000D01*
G75*
G02*
X120870000Y-69430000I0J200000D01*
G01*
X120870000Y-67730000D01*
G75*
G02*
X121070000Y-67530000I200000J0D01*
G01*
X122770000Y-67530000D01*
G75*
G02*
X122970000Y-67730000I0J-200000D01*
G01*
X122970000Y-69430000D01*
G75*
G02*
X122770000Y-69630000I-200000J0D01*
G01*
G37*
D13*
X146358000Y-85090000D03*
X141478000Y-85090000D03*
D14*
X105410000Y-123190000D03*
X181610000Y-123190000D03*
X105410000Y-69850000D03*
X181610000Y-69850000D03*
D12*
X182880000Y-104140000D03*
X182880000Y-106680000D03*
X182880000Y-109220000D03*
X182880000Y-111760000D03*
X182880000Y-114300000D03*
G36*
G01*
X183930000Y-115990000D02*
X183930000Y-117690000D01*
G75*
G02*
X183730000Y-117890000I-200000J0D01*
G01*
X182030000Y-117890000D01*
G75*
G02*
X181830000Y-117690000I0J200000D01*
G01*
X181830000Y-115990000D01*
G75*
G02*
X182030000Y-115790000I200000J0D01*
G01*
X183730000Y-115790000D01*
G75*
G02*
X183930000Y-115990000I0J-200000D01*
G01*
G37*
X114300000Y-121920000D03*
G36*
G01*
X115350000Y-123610000D02*
X115350000Y-125310000D01*
G75*
G02*
X115150000Y-125510000I-200000J0D01*
G01*
X113450000Y-125510000D01*
G75*
G02*
X113250000Y-125310000I0J200000D01*
G01*
X113250000Y-123610000D01*
G75*
G02*
X113450000Y-123410000I200000J0D01*
G01*
X115150000Y-123410000D01*
G75*
G02*
X115350000Y-123610000I0J-200000D01*
G01*
G37*
X170180000Y-71120000D03*
G36*
G01*
X169130000Y-69430000D02*
X169130000Y-67730000D01*
G75*
G02*
X169330000Y-67530000I200000J0D01*
G01*
X171030000Y-67530000D01*
G75*
G02*
X171230000Y-67730000I0J-200000D01*
G01*
X171230000Y-69430000D01*
G75*
G02*
X171030000Y-69630000I-200000J0D01*
G01*
X169330000Y-69630000D01*
G75*
G02*
X169130000Y-69430000I0J200000D01*
G01*
G37*
X182880000Y-99060000D03*
X182880000Y-96520000D03*
X182880000Y-93980000D03*
G36*
G01*
X181830000Y-92290000D02*
X181830000Y-90590000D01*
G75*
G02*
X182030000Y-90390000I200000J0D01*
G01*
X183730000Y-90390000D01*
G75*
G02*
X183930000Y-90590000I0J-200000D01*
G01*
X183930000Y-92290000D01*
G75*
G02*
X183730000Y-92490000I-200000J0D01*
G01*
X182030000Y-92490000D01*
G75*
G02*
X181830000Y-92290000I0J200000D01*
G01*
G37*
X182880000Y-76200000D03*
X182880000Y-78740000D03*
X182880000Y-81280000D03*
G36*
G01*
X183930000Y-82970000D02*
X183930000Y-84670000D01*
G75*
G02*
X183730000Y-84870000I-200000J0D01*
G01*
X182030000Y-84870000D01*
G75*
G02*
X181830000Y-84670000I0J200000D01*
G01*
X181830000Y-82970000D01*
G75*
G02*
X182030000Y-82770000I200000J0D01*
G01*
X183730000Y-82770000D01*
G75*
G02*
X183930000Y-82970000I0J-200000D01*
G01*
G37*
X116840000Y-68580000D03*
X114300000Y-68580000D03*
G36*
G01*
X112610000Y-69630000D02*
X110910000Y-69630000D01*
G75*
G02*
X110710000Y-69430000I0J200000D01*
G01*
X110710000Y-67730000D01*
G75*
G02*
X110910000Y-67530000I200000J0D01*
G01*
X112610000Y-67530000D01*
G75*
G02*
X112810000Y-67730000I0J-200000D01*
G01*
X112810000Y-69430000D01*
G75*
G02*
X112610000Y-69630000I-200000J0D01*
G01*
G37*
X142240000Y-68580000D03*
X139700000Y-68580000D03*
G36*
G01*
X138010000Y-69630000D02*
X136310000Y-69630000D01*
G75*
G02*
X136110000Y-69430000I0J200000D01*
G01*
X136110000Y-67730000D01*
G75*
G02*
X136310000Y-67530000I200000J0D01*
G01*
X138010000Y-67530000D01*
G75*
G02*
X138210000Y-67730000I0J-200000D01*
G01*
X138210000Y-69430000D01*
G75*
G02*
X138010000Y-69630000I-200000J0D01*
G01*
G37*
X149860000Y-68580000D03*
G36*
G01*
X148170000Y-69630000D02*
X146470000Y-69630000D01*
G75*
G02*
X146270000Y-69430000I0J200000D01*
G01*
X146270000Y-67730000D01*
G75*
G02*
X146470000Y-67530000I200000J0D01*
G01*
X148170000Y-67530000D01*
G75*
G02*
X148370000Y-67730000I0J-200000D01*
G01*
X148370000Y-69430000D01*
G75*
G02*
X148170000Y-69630000I-200000J0D01*
G01*
G37*
X175260000Y-71120000D03*
G36*
G01*
X174210000Y-69430000D02*
X174210000Y-67730000D01*
G75*
G02*
X174410000Y-67530000I200000J0D01*
G01*
X176110000Y-67530000D01*
G75*
G02*
X176310000Y-67730000I0J-200000D01*
G01*
X176310000Y-69430000D01*
G75*
G02*
X176110000Y-69630000I-200000J0D01*
G01*
X174410000Y-69630000D01*
G75*
G02*
X174210000Y-69430000I0J200000D01*
G01*
G37*
X104140000Y-106680000D03*
X104140000Y-109220000D03*
X104140000Y-111760000D03*
X104140000Y-114300000D03*
G36*
G01*
X105190000Y-115990000D02*
X105190000Y-117690000D01*
G75*
G02*
X104990000Y-117890000I-200000J0D01*
G01*
X103290000Y-117890000D01*
G75*
G02*
X103090000Y-117690000I0J200000D01*
G01*
X103090000Y-115990000D01*
G75*
G02*
X103290000Y-115790000I200000J0D01*
G01*
X104990000Y-115790000D01*
G75*
G02*
X105190000Y-115990000I0J-200000D01*
G01*
G37*
X104140000Y-91440000D03*
X104140000Y-93980000D03*
X104140000Y-96520000D03*
X104140000Y-99060000D03*
G36*
G01*
X105190000Y-100750000D02*
X105190000Y-102450000D01*
G75*
G02*
X104990000Y-102650000I-200000J0D01*
G01*
X103290000Y-102650000D01*
G75*
G02*
X103090000Y-102450000I0J200000D01*
G01*
X103090000Y-100750000D01*
G75*
G02*
X103290000Y-100550000I200000J0D01*
G01*
X104990000Y-100550000D01*
G75*
G02*
X105190000Y-100750000I0J-200000D01*
G01*
G37*
X104140000Y-76200000D03*
X104140000Y-78740000D03*
X104140000Y-81280000D03*
X104140000Y-83820000D03*
G36*
G01*
X105190000Y-85510000D02*
X105190000Y-87210000D01*
G75*
G02*
X104990000Y-87410000I-200000J0D01*
G01*
X103290000Y-87410000D01*
G75*
G02*
X103090000Y-87210000I0J200000D01*
G01*
X103090000Y-85510000D01*
G75*
G02*
X103290000Y-85310000I200000J0D01*
G01*
X104990000Y-85310000D01*
G75*
G02*
X105190000Y-85510000I0J-200000D01*
G01*
G37*
M02*
